<?xml version="1.0" encoding="UTF-8" standalone="no"?>
<!DOCTYPE svg PUBLIC "-//W3C//DTD SVG 1.1//EN" "http://www.w3.org/Graphics/SVG/1.1/DTD/svg11.dtd">
<svg version="1.1" xmlns="http://www.w3.org/2000/svg" xmlns:xlink="http://www.w3.org/1999/xlink" preserveAspectRatio="xMidYMid meet" viewBox="0 0 56 56" width="56" height="56"><defs><path d="M3.19 28.41C3.19 18.74 8.69 10.32 16.74 6.19C16.74 8.85 16.74 22.15 16.74 46.08C17.12 46.08 19.02 46.08 22.45 46.08L22.45 42.61L27.06 37L32.08 46.08L39.63 46.08L30.76 32.51L39.63 21.08L32.18 21.08C26.34 27.96 23.1 31.78 22.45 32.54C22.45 15.46 22.45 5.97 22.45 4.07C24.29 3.65 26.24 3.42 28.22 3.42C42.01 3.42 53.19 14.61 53.19 28.41C53.19 42.22 42.01 53.41 28.19 53.41C14.4 53.41 3.19 42.22 3.19 28.41Z" id="g1Xz2rt7I"></path></defs><g><g><g><use xlink:href="#g1Xz2rt7I" opacity="1" fill="#f3f3f3" fill-opacity="1"></use><g><use xlink:href="#g1Xz2rt7I" opacity="1" fill-opacity="0" stroke="#000000" stroke-width="1" stroke-opacity="0"></use></g></g></g></g></svg>