<?xml version="1.0" encoding="utf-8"?>
<!-- Generator: Adobe Illustrator 18.0.0, SVG Export Plug-In . SVG Version: 6.00 Build 0)  -->
<!DOCTYPE svg PUBLIC "-//W3C//DTD SVG 1.1//EN" "http://www.w3.org/Graphics/SVG/1.1/DTD/svg11.dtd">
<svg version="1.1" id="Laag_1" xmlns="http://www.w3.org/2000/svg" xmlns:xlink="http://www.w3.org/1999/xlink" x="0px" y="0px"
	 viewBox="0 0 595.3 141.7" style="enable-background:new 0 0 595.3 141.7;" xml:space="preserve">
<style type="text/css">
	.st0{fill:url(#XMLID_3_);stroke:#000000;stroke-miterlimit:10;}
	.st1{fill:url(#XMLID_8_);}
	.st2{fill:#046CB4;}
	.st3{fill:#1D71B8;}
</style>
<linearGradient id="XMLID_3_" gradientUnits="userSpaceOnUse" x1="113.3875" y1="255.1175" x2="481.8925" y2="-113.3875">
	<stop  offset="0" style="stop-color:#1D71B8;stop-opacity:0.82"/>
	<stop  offset="0.2167" style="stop-color:#FFFFFF"/>
	<stop  offset="0.67" style="stop-color:#E94E1B;stop-opacity:0.82"/>
	<stop  offset="1" style="stop-color:#BE1622;stop-opacity:0.9"/>
	<stop  offset="1" style="stop-color:#29235C;stop-opacity:0.9"/>
</linearGradient>
<rect id="XMLID_1_" class="st0" width="595.3" height="141.7"/>
<radialGradient id="XMLID_8_" cx="65.5231" cy="68.2346" r="36.637" gradientTransform="matrix(0.9453 0 0 -0.9553 12.9438 135.8252)" gradientUnits="userSpaceOnUse">
	<stop  offset="0" style="stop-color:#1FA0DB"/>
	<stop  offset="1" style="stop-color:#0B77BD"/>
</radialGradient>
<path id="XMLID_7_" class="st1" d="M110,72.4c0,19.9-16,36.1-35.7,36.1c-19.7,0-35.7-16.1-35.7-36.1c0-14,7.9-26.1,19.4-32.1v57.5
	h8.2v-5l6.6-8.1l7.2,13.1h10.8L78,78.4l12.7-16.5H80L66.1,78.4V37.3c2.6-0.6,5.4-1,8.2-1C94,36.4,110,52.5,110,72.4z"/>
<path id="XMLID_4_" class="st2" d="M73.8,28.5c23.6-0.4,42.3,17.2,42.8,43.2c0.5,23.9-19.2,43.2-42.8,43.2S30.9,95.6,30.9,71.7
	S50.1,28.5,73.8,28.5 M73.8,26.3c-24.8,0-45,20.4-45,45.4s20.2,45.4,45,45.4s45-20.4,45-45.4S98.6,26.3,73.8,26.3L73.8,26.3z"/>
<g>
	<path class="st3" d="M154.3,75.9l-0.1,0.1h-6.3V61.4h5.3c0.2,0,0.5,0.1,0.8,0.3L154.3,75.9z M150.5,67.1c0-0.2-0.1-0.4-0.3-0.7
		c-0.2-0.2-0.5-0.3-0.8-0.3c-0.3,0-0.5,0.1-0.7,0.4c-0.2,0.2-0.3,0.5-0.3,0.6c0,0.2,0.1,0.4,0.3,0.7c0.2,0.2,0.5,0.3,0.8,0.3
		c0.3,0,0.5-0.1,0.7-0.2C150.4,67.7,150.5,67.4,150.5,67.1z M150.5,70.5c0-0.1-0.1-0.3-0.2-0.6c-0.2-0.3-0.4-0.4-0.8-0.4
		c-0.3,0-0.6,0.1-0.8,0.4c-0.2,0.2-0.4,0.5-0.4,0.7c0,0.2,0.1,0.4,0.3,0.6c0.2,0.2,0.5,0.3,0.8,0.3c0.2,0,0.4-0.1,0.7-0.2
		S150.5,70.9,150.5,70.5z M156.8,70.3l-1.9,1.8v-9.2c0-0.1,0-0.2-0.1-0.5c0-0.2-0.1-0.5-0.2-0.7c-0.1-0.3-0.2-0.5-0.3-0.7
		s-0.3-0.3-0.5-0.3h-4.2v-2.6c0-0.2,0.1-0.3,0.3-0.4c0.2-0.1,0.4-0.1,0.6-0.2c0.2,0,0.5,0,0.7,0c0.2,0,0.4,0,0.5,0h3.4
		c0,0,0.2,0,0.3,0s0.4,0,0.6,0.1c0.2,0,0.4,0.1,0.5,0.2c0.2,0.1,0.2,0.2,0.2,0.4V70.3z M151.9,63.5c0-0.2-0.1-0.4-0.2-0.6
		c-0.2-0.2-0.4-0.3-0.8-0.3c-0.3,0-0.5,0.1-0.7,0.2c-0.2,0.2-0.3,0.4-0.3,0.7c0,0.2,0.1,0.4,0.3,0.6c0.2,0.2,0.4,0.4,0.8,0.4
		c0.2,0,0.4-0.1,0.7-0.2S151.9,63.8,151.9,63.5z M156.8,86c0,0.2,0,0.4-0.1,0.7c-0.1,0.3-0.3,0.4-0.6,0.4h-6l-0.4-2.6V77
		c0.4-0.1,0.8-0.1,1.3,0c0,0.5,0.1,1,0.2,1.6c0.1,0.5,0.1,1.1,0.2,1.7c0.8,0.8,1.7,1.6,2.6,2.4c0.9,0.8,1.8,1.6,2.7,2.4
		c0,0.1,0.1,0.3,0.1,0.5C156.8,85.7,156.8,85.9,156.8,86z M152.2,74.3c0-0.1-0.1-0.3-0.3-0.6c-0.2-0.3-0.4-0.4-0.8-0.4
		c-0.2,0-0.5,0.1-0.7,0.2c-0.2,0.2-0.4,0.4-0.4,0.8c0,0.2,0.1,0.5,0.2,0.7c0.2,0.2,0.4,0.3,0.8,0.3c0,0,0.1,0,0.2-0.1
		s0.2-0.1,0.4-0.2c0.1-0.1,0.2-0.2,0.3-0.3C152.1,74.6,152.2,74.5,152.2,74.3z M178.1,87.2h-7.2c-0.2,0-0.5-0.1-0.7-0.3
		c-0.3-0.2-0.5-0.4-0.8-0.7c-0.3-0.3-0.6-0.6-0.9-1c-0.3-0.3-0.5-0.7-0.8-1c-0.2-0.3-0.4-0.6-0.5-0.8c-0.1-0.2-0.2-0.3-0.2-0.4
		c-0.7-0.9-1.5-1.8-2.1-2.8c-0.7-0.9-1.3-1.8-2-2.7c-0.4-0.5-0.8-1-1.2-1.5s-0.8-0.9-1.1-1.4h-0.3l-3.4,3.5l0,5.6
		c-0.2-0.1-0.3-0.3-0.3-0.6c0-0.3,0-0.6-0.1-0.8c-0.2-0.2-0.4-0.4-0.7-0.6c-0.3-0.2-0.5-0.4-0.8-0.6c-0.3-0.2-0.6-0.5-0.8-0.7
		c-0.3-0.3-0.5-0.5-0.7-0.8c-0.2-0.3-0.3-0.7-0.3-1.2s0-0.9-0.1-1.3v-0.3c0.3,0,0.6,0,1,0c0.4,0,0.8-0.2,1.2-0.5l-0.1-3
		c0-0.2,0.1-0.3,0.2-0.5c0.1-0.2,0.3-0.4,0.5-0.6c0.2-0.2,0.4-0.4,0.6-0.5c0.2-0.2,0.3-0.3,0.5-0.4c0.5-0.6,1.2-1.2,1.9-2
		c0.7-0.7,1.5-1.5,2.3-2.4c0.8-0.8,1.7-1.7,2.5-2.5c0.9-0.8,1.7-1.7,2.5-2.4c0.1-0.1,0.3-0.1,0.6,0h1.8l4.5-4.3h3.9
		c0.2,0,0.4,0.1,0.6,0.3l-10.5,10.3c-0.2,0-0.4-0.1-0.6-0.3c-0.2-0.1-0.4-0.2-0.6-0.2c-0.1,0-0.3,0.1-0.5,0.2
		c-0.3,0.1-0.6,0.3-0.9,0.5c-0.4,0.2-0.7,0.4-1.1,0.7c-0.4,0.3-0.8,0.5-1.1,0.7c-0.3,0.2-0.6,0.4-0.9,0.6c-0.3,0.2-0.4,0.3-0.5,0.3
		c-0.1,0.1-0.2,0.3-0.4,0.4c-0.1,0.2-0.2,0.3-0.2,0.5c0,0,0.1,0.2,0.4,0.6s0.6,0.7,0.9,1.2c0.4,0.5,0.8,1,1.2,1.5
		c0.4,0.5,0.8,1,1.1,1.4c0.4,0.5,0.8,1,1.2,1.7c0.4,0.6,0.9,1.2,1.4,1.9c0.5,0.7,1,1.3,1.5,2c0.5,0.7,1,1.3,1.5,1.9
		c0.1,0.1,0.2,0.2,0.4,0.3c0.2,0.1,0.3,0.1,0.5,0.1l4-2.6l3.9,4.8V87.2z M175.2,80.1l-4.9,3.6l-9.5-11.9l4.9-3.2L175.2,80.1z
		 M165.6,71.9c0-0.2-0.1-0.4-0.3-0.6c-0.2-0.3-0.4-0.4-0.8-0.4c-0.2,0-0.5,0.1-0.7,0.3c-0.2,0.2-0.4,0.4-0.4,0.7
		c0,0.2,0.1,0.4,0.3,0.7s0.4,0.3,0.8,0.3c0.3,0,0.5-0.1,0.8-0.2C165.5,72.4,165.6,72.2,165.6,71.9z M166.7,75.5
		c0-0.2-0.1-0.5-0.3-0.7c-0.2-0.2-0.4-0.3-0.7-0.3s-0.6,0.1-0.8,0.3c-0.2,0.2-0.4,0.5-0.4,0.7c0,0.2,0.1,0.4,0.3,0.6
		c0.2,0.2,0.5,0.4,0.8,0.4c0.3,0,0.5-0.1,0.7-0.2C166.6,76.1,166.7,75.8,166.7,75.5z M171.1,57.9l-2.7,2.7h-1.7l3.2-3h1.1
		c0,0,0.1,0.1,0.1,0.2C171,57.8,171.1,57.8,171.1,57.9z M168.9,78.3c0-0.3-0.1-0.5-0.3-0.7c-0.2-0.2-0.5-0.3-0.8-0.3
		c-0.3,0-0.5,0.1-0.7,0.3c-0.2,0.2-0.3,0.4-0.3,0.7c0,0,0,0.1,0.1,0.2c0,0.1,0.1,0.2,0.2,0.3c0.1,0.1,0.2,0.2,0.3,0.3
		c0.1,0.1,0.3,0.1,0.5,0.1c0.3,0,0.5-0.1,0.7-0.3S168.9,78.6,168.9,78.3z M172.6,80.5c0,0,0-0.1-0.1-0.2c0-0.1-0.1-0.2-0.2-0.3
		c-0.1-0.1-0.2-0.2-0.3-0.3s-0.3-0.1-0.5-0.1c-0.3,0-0.5,0.1-0.7,0.3c-0.2,0.2-0.3,0.4-0.3,0.7c0,0.2,0.1,0.5,0.3,0.7
		c0.2,0.2,0.5,0.3,0.8,0.3c0.3,0,0.5-0.1,0.7-0.3C172.4,81,172.6,80.8,172.6,80.5z"/>
	<path class="st3" d="M214.3,86.8c0,0.1-0.1,0.2-0.2,0.3c-0.1,0.1-0.2,0.2-0.1,0.3c-0.4,0-0.8-0.1-1.2,0c-0.3,0-0.6,0.1-0.7,0.1
		c-0.3,0-0.7-0.1-1-0.2c-0.3-0.1-0.6-0.3-0.9-0.5c-0.3-0.2-0.5-0.3-0.7-0.5c-0.2-0.1-0.3-0.2-0.4-0.2c-0.2,0-0.5,0.1-0.7,0.3l1.3,1
		H205c-0.1,0-0.3,0-0.4-0.1c-0.2-0.1-0.3-0.2-0.3-0.3c-0.2-0.5-0.4-1-0.6-1.6c-0.2-0.5-0.3-1.1-0.5-1.6c-0.1-0.2-0.1-0.4-0.2-0.7
		c-0.1-0.3-0.2-0.5-0.3-0.7c-0.3,0-0.7-0.1-1.1-0.1c-0.4,0-0.7,0-0.8,0l-2.3,0.1c-0.1,0-0.4,0-0.7,0c-0.4,0-0.7,0-0.9-0.1
		c-0.1,0-0.2-0.1-0.4-0.2c-0.1-0.1-0.2-0.1-0.4-0.1c-0.1,0-0.2,0-0.2,0.1c0,0.1-0.1,0.1-0.2,0.1h-4.1c-0.3,0.4-0.5,0.8-0.6,1.3
		s-0.2,0.9-0.3,1.4c-0.1,0.4-0.2,0.9-0.3,1.3c-0.1,0.4-0.4,0.7-0.7,1c-0.1,0.1-0.2,0.1-0.4,0.1c-0.2,0-0.4,0-0.7,0
		c-0.2,0-0.5,0-0.7,0c-0.2,0-0.3,0-0.4,0c-0.1,0-0.2,0-0.5,0c-0.3,0-0.5,0-0.8-0.1s-0.6,0-0.8-0.1c-0.3,0-0.4,0-0.5,0
		c-0.1,0-0.3,0-0.4,0.1c-0.2,0.1-0.3,0.1-0.4,0.1h-3.3c0-0.1-0.1-0.3-0.1-0.5c0-0.2,0-0.4,0-0.5c0-0.3,0.1-0.8,0.3-1.4
		s0.4-1.2,0.6-1.8c0.2-0.6,0.5-1.2,0.7-1.7c0.2-0.5,0.4-0.9,0.5-1.2c0.2-0.6,0.4-1.2,0.7-1.8c0.3-0.6,0.6-1.2,0.8-1.8l3.9,1
		c0.2,0,0.4,0,0.5,0c0.1-0.1,0.2-0.1,0.3-0.2c0.3-0.7,0.5-1.4,0.8-2.1s0.5-1.4,0.7-2c0.3-0.8,0.6-1.7,0.9-2.7c0.3-1,0.6-1.9,0.9-2.7
		c0.3-0.8,0.6-1.6,0.9-2.4c0.3-0.8,0.5-1.5,0.5-2.1c0-0.4-0.1-0.8-0.3-1c-0.2-0.2-0.5-0.3-0.8-0.4c-0.3-0.1-0.7-0.2-1.1-0.2
		s-0.7-0.2-1.1-0.4v-0.3c0-0.2,0.1-0.4,0.3-0.6c0.2-0.2,0.3-0.5,0.3-1c0.2-0.1,0.5-0.2,0.8-0.3c0.3-0.2,0.5-0.4,0.5-0.7l-0.6-0.4
		c0-0.4,0.2-0.6,0.4-0.9c0.2-0.2,0.5-0.3,0.8-0.3h1.9v0.3c0.1,0,0.3,0.1,0.5,0.1c0.2,0,0.4,0,0.6-0.1c0.2-0.1,0.4-0.1,0.6-0.2
		c0.2,0,0.4-0.1,0.6-0.1c0,0.1,0,0.2-0.1,0.2c-0.1,0-0.2,0.1-0.3,0.1c-0.1,0-0.2,0.1-0.3,0.1c-0.1,0-0.2,0.1-0.2,0.2
		c0.1,0.2,0.2,0.2,0.3,0.3c0.1,0,0.2,0,0.3-0.1c0.1,0,0.2-0.1,0.4-0.1c0.1,0,0.2,0,0.4,0l0.2,0.2l-2.3,0.9l0.2,0.2l2.2-0.6
		c0.1,0.1,0.1,0.2,0.1,0.4c-0.2,0-0.3,0.1-0.5,0.2c-0.2,0.1-0.4,0.2-0.6,0.4c0,0.2,0,0.2,0.2,0.2l1.2-0.3c0,0.2-0.2,0.3-0.4,0.5
		c-0.3,0.1-0.5,0.3-0.7,0.4l-0.2-0.3c-0.1,0.1-0.2,0.2-0.3,0.3c0,0.1-0.2,0.2-0.3,0.3c0.2,0.1,0.4,0.2,0.6,0.1
		c0.2-0.1,0.3-0.2,0.5-0.2c0.2,0,0.4,0,0.6,0c0.2,0,0.4-0.1,0.7-0.2c0,0,0,0.1,0.1,0.2c0,0.1,0.1,0.2,0.1,0.2
		c-0.2,0.1-0.4,0.1-0.6,0.2c-0.2,0-0.4,0.1-0.5,0.2v0c0,0.1,0,0.1,0.1,0.1l1.1-0.3l0.1,0.1c0,0.1,0.1,0.2,0.2,0.2l-2.3,0.9
		c0,0,0.1,0.1,0.1,0.1s0.1,0,0.1,0l2.2-0.6c0,0,0,0.1,0.1,0.2c0.1,0.1,0.1,0.2,0.2,0.3c-0.2,0.1-0.4,0.2-0.6,0.3
		c-0.2,0.1-0.4,0.2-0.6,0.3c0.1,0.1,0.2,0.1,0.3,0.1c0.1,0,0.2,0,0.3-0.1c0.1,0,0.2-0.1,0.3-0.2c0.1-0.1,0.2-0.1,0.3-0.1
		c0,0,0.1,0.1,0.1,0.2s0.1,0.2,0.1,0.3l-2.2,0.8l0.2,0.2l2.1-0.7c0.2,0.2,0.3,0.5,0.3,0.7c-0.4,0.1-0.8,0.3-1.2,0.5
		c0.1,0,0.3,0,0.5,0c0.2,0,0.4-0.1,0.6-0.1l0.1,0.1l0.1,0.4c-0.1,0-0.3,0.1-0.5,0.1c-0.2,0-0.4,0.1-0.6,0.1c-0.2,0-0.4,0.1-0.5,0.2
		c-0.2,0.1-0.3,0.2-0.4,0.3v0.1l1.7-0.6h0.5c0,0,0,0.1,0.1,0.2c0,0.1,0.1,0.1,0.1,0.2l-1.2,0.6c0.1,0.1,0.2,0.2,0.3,0.2l1-0.3
		c0.1,0,0.1,0.1,0.2,0.2c0,0.1,0.1,0.2,0.1,0.3l-2.2,0.8c0,0,0,0,0,0c0,0,0.1,0,0.1,0l2.1-0.6l0.1,0.1v0.3c-0.2,0-0.4,0.1-0.6,0.2
		c-0.2,0.1-0.4,0.2-0.6,0.3l0.2,0.2c0.2,0,0.3-0.1,0.5-0.2c0.2-0.1,0.4-0.1,0.7-0.2c0,0,0,0.1,0.1,0.2c0,0.1,0.1,0.2,0.1,0.4
		l-2.2,0.8c0,0,0.1,0.1,0.1,0.1s0.1,0,0.1,0l2.2-0.6c0,0,0,0.1,0.1,0.2c0,0.1,0.1,0.2,0.1,0.2c-0.4,0.1-0.8,0.3-1.2,0.5
		c0,0,0.1,0.1,0.1,0.1c0,0,0,0,0.2,0c0.1,0,0.3,0,0.4-0.1c0.2-0.1,0.3-0.1,0.5-0.2c0.1,0.1,0.2,0.2,0.2,0.3c0,0.1,0.1,0.2,0.1,0.4
		l-2.2,0.8c0,0,0.1,0.1,0.1,0.1s0.1,0,0.1,0l1.8-0.6c0.2,0,0.3,0,0.4,0.1v0.3c-0.2,0.1-0.3,0.2-0.5,0.3c-0.2,0.1-0.4,0.1-0.5,0.3
		c0,0,0,0.1,0,0.2c0,0.1,0.1,0.1,0.2,0.1c0,0,0.1,0,0.2-0.1c0.1,0,0.3-0.1,0.4-0.2s0.3-0.1,0.4-0.2c0.1-0.1,0.2-0.2,0.3-0.3
		l-4.6-13.1c0.1,0,0.2,0.1,0.4,0.1c0.1,0,0.3,0.1,0.4,0.2c0.2,0.2,0.3,0.4,0.5,0.6c0.1,0.2,0.2,0.5,0.3,0.7c0.1,0.2,0.2,0.5,0.4,0.7
		c0.1,0.2,0.3,0.4,0.5,0.6c0.1,0,0.2-0.1,0.2-0.2s0-0.1,0-0.1l-1.3-2.4c0.1,0,0.3-0.1,0.4-0.2c0.1-0.1,0.3-0.1,0.4-0.1
		c0.1,0,0.3,0,0.4,0c0.2,0,0.6,0,1.2,0.1c0.1,0,0.3,0,0.5,0.1c0.2,0,0.4,0.1,0.6,0.1c0.2,0.1,0.3,0.2,0.3,0.3
		c0.2,0.4,0.4,0.9,0.6,1.5c0.2,0.6,0.4,1.1,0.6,1.7c0,0,0,0.1-0.1,0.2c-0.1,0.1-0.1,0.2-0.2,0.3c0.2,0.1,0.4,0.3,0.6,0.5
		c0.2,0.2,0.3,0.4,0.4,0.7c0.1,0.2,0.2,0.5,0.3,0.7c0.1,0.2,0.2,0.5,0.2,0.7c0.1,0.2,0.2,0.5,0.4,0.9c0.2,0.3,0.3,0.7,0.5,1
		c0.1,0.3,0.3,0.6,0.4,0.9s0.2,0.4,0.2,0.5c0,0-0.1,0.1-0.3,0.4c-0.2,0.2-0.4,0.5-0.6,0.8c-0.2,0.3-0.4,0.6-0.7,1
		c-0.2,0.3-0.4,0.6-0.5,0.8c0,0.1-0.1,0.2-0.1,0.3c0,0.1-0.1,0.1-0.3,0l-0.9,5.5v2.5l0.3,0.2c0.1,0,0.2-0.1,0.3-0.2
		c0.1-0.1,0.2-0.2,0.3-0.3l-0.2-1.1v-2.5c0-0.4,0.1-1,0.3-1.7c0.2-0.7,0.5-1.3,0.8-2c0.3-0.7,0.6-1.3,1-1.8c0.3-0.5,0.6-0.8,0.8-0.9
		l1,2.6c-0.6,1-1,2-1.3,3.2c-0.3,1.1-0.3,2.2-0.1,3.1c-0.2,0-0.4-0.1-0.6-0.2s-0.5-0.2-0.7-0.3c0,0.2-0.1,0.4-0.2,0.6
		c-0.1,0.2-0.1,0.3-0.1,0.5c0,0.1,0,0.2,0.1,0.3c0.1,0.1,0.2,0.2,0.3,0.2c0.2,0.7,0.4,1.4,0.7,2.2c0.3,0.7,0.7,1.4,1.2,2.2
		s1.1,1.4,1.7,2s1.4,1.2,2.3,1.6l2-1.1c-0.1-0.2-0.2-0.5-0.2-0.7c0.1,0.1,0.2,0.3,0.3,0.5c0.1,0.2,0.3,0.4,0.4,0.6s0.3,0.5,0.4,0.7
		C214.2,86.5,214.3,86.7,214.3,86.8z M192.7,63.8L188,77.3h-0.5l-5-1.6c0,0,0,0-0.1,0c0,0-0.1-0.1-0.1-0.2c0-0.1,0-0.2,0-0.4
		c0-0.2,0.1-0.5,0.1-0.7c0-0.3,0.1-0.5,0.1-0.8c0-0.3,0.1-0.5,0.2-0.7c0.6-1.8,1.3-3.7,2.1-5.5c0.7-1.9,1.5-3.7,2.2-5.5l2.4,0.8
		c0,0,0,0,0,0c0,0,0.1-0.1,0.2-0.1c0,0,0.2,0,0.4,0.1c0.2,0.1,0.4,0.1,0.7,0.2s0.5,0.2,0.8,0.3c0.3,0.1,0.5,0.2,0.7,0.2
		c0.1,0,0.1,0.1,0.2,0.2C192.6,63.6,192.7,63.7,192.7,63.8z M186.4,70.6c0-0.2-0.1-0.5-0.3-0.7c-0.2-0.2-0.4-0.3-0.7-0.3
		c-0.3,0-0.6,0.1-0.8,0.4c-0.2,0.2-0.4,0.5-0.4,0.7c0,0.2,0.1,0.4,0.3,0.7c0.2,0.2,0.5,0.4,0.8,0.4c0.2,0,0.4-0.1,0.7-0.2
		C186.3,71.3,186.4,71,186.4,70.6z M186.6,74.8c0-0.2-0.1-0.5-0.3-0.7c-0.2-0.2-0.5-0.3-0.8-0.3c-0.3,0-0.5,0.1-0.7,0.2
		c-0.2,0.1-0.3,0.4-0.3,0.8c0,0.1,0,0.2,0.1,0.3c0,0.1,0.1,0.2,0.2,0.4c0.1,0.1,0.2,0.2,0.3,0.3c0.1,0.1,0.3,0.1,0.5,0.1
		c0,0,0.1,0,0.3-0.1c0.1,0,0.2-0.1,0.4-0.2c0.1-0.1,0.2-0.2,0.3-0.3C186.6,75.1,186.6,75,186.6,74.8z M187.7,67.4c0,0,0-0.1-0.1-0.2
		c0-0.1-0.1-0.2-0.2-0.3c-0.1-0.1-0.2-0.2-0.3-0.3c-0.1-0.1-0.3-0.1-0.4-0.1c-0.3,0-0.6,0.1-0.8,0.3c-0.2,0.2-0.3,0.5-0.3,0.7
		c0,0.2,0.1,0.4,0.2,0.6s0.4,0.4,0.8,0.4c0.2,0,0.5-0.1,0.7-0.3C187.6,67.9,187.7,67.7,187.7,67.4z M188.2,83.1L188,83
		c0,0,0,0.1,0.1,0.1C188.1,83.2,188.1,83.2,188.2,83.1z M190.2,64.4c0-0.2-0.1-0.4-0.3-0.7c-0.2-0.2-0.5-0.4-0.8-0.4
		c-0.4,0-0.6,0.1-0.8,0.4c-0.2,0.3-0.3,0.5-0.3,0.6c0,0.2,0.1,0.4,0.2,0.7c0.2,0.2,0.4,0.3,0.8,0.3c0.2,0,0.4-0.1,0.7-0.3
		C190.1,64.9,190.2,64.7,190.2,64.4z M202.5,76.9c-0.4,0-0.7,0-0.8,0c-0.1,0.1-0.3,0.1-0.4,0.2l-0.2-0.2c0.3-0.2,0.5-0.5,0.5-0.8
		c0-0.3,0-0.5,0-0.6c0.1-0.1,0.1-0.2,0.2-0.3c0.1-0.1,0.1-0.3,0.2-0.4c-0.1-0.1-0.2-0.2-0.2-0.3c0,0-0.1,0-0.3-0.1
		c-0.1,0-0.2,0-0.3,0l-0.8,0.3l-3.2-8.9h-0.4l-3.1,9.6c0,0.1,0,0.2,0,0.3c0,0.1,0.1,0.2,0.1,0.2c0.2,0,0.3,0.1,0.5,0.2
		c0.2,0.1,0.3,0.1,0.5,0.1c0.1,0,0.2,0,0.3-0.1c0.1,0,0.3-0.1,0.4-0.1c0.2,0,0.3-0.1,0.4-0.1c0.1,0,0.3-0.1,0.3-0.1
		c0.1,0,0.3,0,0.5,0.1c0.2,0,0.7,0.1,1.4,0.1c0.1,0,0.2,0.1,0.4,0.2c0.2,0.1,0.3,0.2,0.3,0.3c-0.1,0.2-0.3,0.3-0.6,0.3
		c-0.3,0-0.4,0-0.5,0c-0.3,0.3-0.7,0.5-1.1,0.7c-0.4,0.2-0.8,0.4-1.1,0.6v0.4l0.3,0.3c-0.1,0-0.2,0.1-0.3,0.1
		c-0.1,0-0.2,0.1-0.3,0.1c0,0-0.1-0.1-0.1-0.2c0-0.1-0.1-0.2-0.1-0.2c-0.3,0.3-0.7,0.6-1.1,0.7c-0.4,0.2-0.8,0.3-1.2,0.5
		c-0.4,0.1-0.9,0.3-1.3,0.4c-0.4,0.1-0.9,0.3-1.3,0.5h0.7c0.1,0,0.3,0,0.6-0.1c0.2-0.1,0.4-0.2,0.6-0.2c0,0,0.1,0.1,0.2,0.2
		c0.1,0.1,0.1,0.2,0.2,0.2c0-0.1,0-0.2,0-0.3c0-0.1,0-0.2,0-0.2c0.1,0,0.2,0,0.3-0.1c0.1,0,0.2-0.1,0.3-0.1c0.1,0.1,0.2,0.2,0.3,0.4
		c0.1,0.1,0.1,0.2,0.2,0.4c0-0.1,0-0.2,0-0.4s-0.1-0.3-0.1-0.4c0.1,0,0.2-0.1,0.3-0.1c0.1,0,0.1-0.1,0.2-0.1
		c0.1,0.2,0.2,0.3,0.3,0.5c0.1,0.1,0.1,0.3,0.2,0.5h0.4l-0.3-1c0.1,0,0.2-0.1,0.3-0.1c0.1,0,0.2,0,0.3-0.1l0.5,1.1
		c0-0.2,0-0.3-0.1-0.5c-0.1-0.2-0.1-0.4-0.2-0.6c0.1-0.1,0.2-0.2,0.3-0.2c0.1,0,0.2,0,0.3-0.1c0,0.2,0.1,0.3,0.2,0.5
		c0.1,0.2,0.1,0.3,0,0.5h0.5c0-0.1,0-0.2,0.1-0.3c0.1-0.1,0.2-0.2,0.2-0.2c0.1,0.2,0.1,0.3,0.2,0.5s0.1,0.3,0.2,0.4
		c0-0.2-0.1-0.4-0.1-0.6c0-0.2,0-0.4,0-0.5c0.1,0,0.2,0,0.3,0c0.1,0,0.1,0,0.3,0c0.1,0,0.2,0.1,0.3,0.2c0,0.1,0.1,0.2,0.1,0.2
		c0.1-0.2,0.1-0.3,0.1-0.4c-0.1-0.1,0-0.2,0.3-0.3c0.1,0.2,0.2,0.4,0.3,0.6c0.1,0.2,0.2,0.4,0.2,0.6h0.4c-0.1-0.3-0.2-0.5-0.2-0.7
		c0-0.2,0-0.4,0-0.5c0.2-0.1,0.4-0.1,0.5-0.1c0.2-0.2,0.4-0.4,0.6-0.7c0.2-0.3,0.5-0.5,0.8-0.7c0.2-0.1,0.4-0.2,0.6-0.3
		C202.1,77.1,202.3,77.1,202.5,76.9z M197.3,78.3c0,0-0.1,0-0.3,0.1c-0.1,0-0.3,0.1-0.5,0.1c0,0,0-0.1,0.1-0.2
		c0.1-0.1,0.1-0.2,0.2-0.3c0,0,0.1,0.1,0.3,0.1C197.1,78.1,197.2,78.2,197.3,78.3z M196.9,81.5h-0.4v0.4c0.1,0,0.2-0.1,0.3-0.2
		C196.9,81.6,196.9,81.5,196.9,81.5z M199.3,77.3c0,0.2-0.1,0.3-0.3,0.4c-0.2,0.1-0.5,0.2-0.8,0.2c0-0.2,0.1-0.3,0.2-0.3
		c0.1-0.1,0.2-0.1,0.3-0.2c0.1,0,0.2-0.1,0.3-0.1c0.1-0.1,0.2-0.1,0.3-0.3c0,0,0,0,0.1,0C199.3,77.2,199.3,77.3,199.3,77.3z
		 M201,61.7c-0.2-0.2-0.3-0.4-0.4-0.5c-0.1-0.2-0.3-0.3-0.4-0.3v0.4c0.2,0.2,0.3,0.3,0.4,0.5c0.1,0.2,0.2,0.4,0.3,0.5L201,61.7z
		 M201.3,62.8v-0.5h-0.2v0.5H201.3z M201.7,63.3l-0.1-0.1l-0.1,0.3l0.1,0.1L201.7,63.3z M202.7,66.2v-0.6c0-0.1-0.1-0.3-0.2-0.4
		c-0.1-0.2-0.2-0.3-0.3-0.4c0,0-0.1,0.1-0.1,0.3c0,0.1,0,0.2,0,0.3c0,0.1,0.1,0.3,0.2,0.5C202.4,65.9,202.5,66,202.7,66.2z
		 M203.8,69.3V69c-0.1-0.2-0.2-0.3-0.3-0.5c-0.1-0.2-0.1-0.3-0.2-0.5c0-0.2-0.1-0.3-0.1-0.5c0-0.2-0.1-0.3-0.1-0.3
		c0,0.1,0,0.3,0,0.5c0,0.2,0,0.4,0.1,0.7c0.1,0.2,0.1,0.4,0.3,0.6C203.5,69.1,203.7,69.2,203.8,69.3z M212.9,83.9c0,0-0.1,0-0.2,0.1
		s-0.2,0.1-0.3,0.1c0,0-0.1,0.1-0.1,0.2c0,0.1,0,0.2,0,0.2c-0.9-0.5-1.7-1.1-2.4-1.8c-0.6-0.7-1.2-1.4-1.5-2.1
		c-0.4-0.7-0.7-1.5-0.9-2.2c-0.2-0.8-0.3-1.5-0.3-2.1c0-1.4,0.4-2.8,1.2-4.3L212.9,83.9z"/>
	<path class="st3" d="M215.7,60.5c0-0.1-0.1-0.1-0.3-0.1c0,0.1-0.1,0.2,0,0.3c0,0.1,0,0.2,0,0.4c0,0-0.1,0.1-0.1,0.2
		c0,0.1-0.1,0.2-0.2,0.3c0.1,0.2,0.2,0.5,0.2,0.9c0,0.3,0,0.6-0.1,1c0,0.3-0.1,0.6-0.2,0.9c-0.1,0.3-0.2,0.6-0.3,0.8
		c-0.1,0-0.2,0.1-0.3,0.1c-0.1,0-0.3,0-0.5,0c-0.2,0-0.3,0-0.5,0s-0.3,0-0.3,0c0,0-0.2,0-0.4,0c-0.2,0-0.4,0-0.6-0.1
		c-0.2,0-0.4-0.1-0.6-0.2c-0.2-0.1-0.3-0.2-0.3-0.4v-6.2c0-0.2,0.1-0.4,0.3-0.5c0.2-0.2,0.5-0.2,0.7-0.2h3.4V60.5z M241.4,64.6
		c0,0.2-0.1,0.3-0.2,0.4s-0.3,0.2-0.4,0.2c-0.2,0-0.4,0.1-0.7,0.1c-0.1,0-0.2,0-0.4-0.1c-0.2,0-0.3-0.1-0.5-0.1
		c-0.2,0-0.4-0.1-0.5-0.1s-0.3-0.1-0.4-0.1c-0.1,0-0.2,0-0.3,0.1c-0.2,0-0.3,0.1-0.5,0.1s-0.3,0.1-0.5,0.1c-0.2,0-0.3,0.1-0.3,0.1
		c-0.1,0-0.2,0-0.4-0.1c-0.2,0-0.4-0.1-0.5-0.1c-0.2,0-0.4-0.1-0.6-0.2c-0.1,0-0.2,0.1-0.4,0.2s-0.3,0.2-0.4,0.2h-3.1v17.2
		c0,0.1,0,0.3-0.1,0.6c-0.1,0.3-0.1,0.5-0.1,0.7c0,0-0.1,0.1-0.2,0.1c-0.1,0-0.1,0.1-0.1,0.2v0.6c0,0,0.1,0.1,0.2,0.1
		c0.1,0,0.1,0,0.2,0.1c0.2,0.3,0.3,0.6,0.3,0.8c0,0.1,0,0.3-0.1,0.4c-0.1,0.2-0.1,0.3-0.2,0.5c-0.2-0.1-0.3-0.2-0.4-0.4
		c-0.1-0.1-0.2-0.3-0.3-0.4V70.1c0-0.1-0.1-0.3-0.3-0.6c-0.2-0.3-0.4-0.5-0.6-0.8l-1.9,2v-5.6h-0.3c-0.2,0.2-0.3,0.5-0.2,0.8
		c0,0.3,0.1,0.6,0.1,0.8c0,0.3,0,0.6-0.1,0.9c-0.1,0.3-0.1,0.6-0.1,0.9c0,0.2,0,0.3,0.1,0.6s0.1,0.4,0.1,0.6s0.1,0.4,0.1,0.5
		c0,0.2,0.1,0.3,0.1,0.3c0,0.4-0.3,0.8-0.8,1.3l0.8,0.6c0,0.1,0,0.2-0.1,0.3c-0.1,0.1-0.2,0.1-0.2,0.2c-0.1,0-0.2,0.1-0.3,0.1
		c-0.1,0-0.2,0-0.3,0.1c0,0.1,0.1,0.3,0.3,0.4s0.3,0.3,0.5,0.4c0,0.1,0,0.2,0,0.3c0,0.1,0.1,0.3,0.2,0.4c0-0.2,0.1-0.5,0.1-0.7
		c0-0.2,0.1-0.5,0.2-0.8c0,0-0.1-0.1-0.1-0.2c0-0.1-0.1-0.1-0.2-0.2l1.8,1.1v8l-3.1,3.9c-0.8-0.5-1.6-0.8-2.5-1.1
		c-0.9-0.3-1.8-0.4-2.6-0.4V65.3h-4.7c-0.1,0-0.2,0-0.4-0.1c-0.1-0.1-0.3-0.2-0.4-0.2v-2.3c0.2,0.2,0.3,0.3,0.4,0.3
		c0.1,0,0.3,0.1,0.4,0.1l10.7,0.1c0,0.1-0.1,0.2-0.1,0.3c-0.1,0.1,0,0.2,0.2,0.3c0.1-0.2,0.2-0.3,0.2-0.4c0-0.1,0-0.2,0-0.2h0.1
		l8.4,0.2c0.1,0,0.2,0,0.3-0.1c0.1,0,0.2-0.1,0.4-0.2s0.3-0.1,0.4-0.2c0.1-0.1,0.2-0.2,0.2-0.3c0-0.1,0-0.4,0-0.7c0-0.3,0-0.5,0-0.7
		v-3.6h3.2c0.1,0,0.3,0,0.4,0.1c0.2,0.1,0.3,0.2,0.4,0.3c0,0.2,0.1,0.4,0,0.6c0,0.2-0.1,0.4-0.1,0.6c0,0.2,0,0.3,0.1,0.5
		c0.1,0.2,0.1,0.3,0.1,0.5V64.6z M236.5,62.5h-6c-0.1,0-0.3,0-0.7-0.1c-0.3-0.1-0.5-0.1-0.7-0.1h-12.6c0,0-0.1-0.1-0.2-0.2
		c-0.1-0.1-0.1-0.2-0.1-0.3c0-0.1,0-0.2,0.1-0.2c0,0,0.1-0.1,0.1-0.1c0-0.2,0-0.4,0-0.6c0-0.2,0-0.4,0-0.7c0-0.2,0-0.4,0-0.6
		c0-0.2,0-0.3,0-0.4v-1.5c0-0.2,0-0.3,0-0.3c0-0.1,0-0.1,0.1-0.1c0.1,0,0.2,0,0.3,0c0.1,0,0.3,0,0.6,0h19V62.5z M219.7,59.5
		c0-0.2-0.1-0.4-0.2-0.6c-0.2-0.2-0.4-0.3-0.8-0.3c-0.2,0-0.5,0.1-0.7,0.2c-0.2,0.2-0.4,0.4-0.4,0.7c0,0.2,0.1,0.4,0.2,0.6
		c0.1,0.2,0.4,0.4,0.9,0.4c0.2,0,0.5-0.1,0.7-0.2C219.6,60.2,219.7,59.9,219.7,59.5z M227.5,87.8h-5.4c-0.1,0-0.3-0.1-0.5-0.3
		s-0.3-0.3-0.3-0.5V85h1c0.3,0,0.7,0.1,1.3,0.3c0.5,0.2,1.1,0.4,1.6,0.7c0.5,0.3,1,0.6,1.5,0.9C227,87.2,227.3,87.5,227.5,87.8z
		 M223.5,60.8c0-0.2-0.1-0.5-0.3-0.7c-0.2-0.2-0.4-0.3-0.8-0.3c-0.3,0-0.6,0.1-0.8,0.3c-0.2,0.2-0.3,0.4-0.3,0.7
		c0,0.2,0.1,0.4,0.2,0.7c0.1,0.2,0.4,0.4,0.8,0.4c0.2,0,0.4-0.1,0.7-0.2C223.4,61.5,223.5,61.2,223.5,60.8z M227.6,60.8
		c0-0.2-0.1-0.5-0.3-0.7c-0.2-0.2-0.5-0.3-0.8-0.3c-0.3,0-0.5,0.1-0.8,0.4c-0.2,0.2-0.3,0.5-0.3,0.7c0,0.3,0.1,0.5,0.3,0.7
		s0.5,0.3,0.8,0.3c0.3,0,0.6-0.1,0.8-0.3C227.5,61.3,227.6,61.1,227.6,60.8z M227.5,65v-0.8h-0.2V65H227.5z M231.1,87.4
		c-0.1,0.2-0.3,0.3-0.5,0.2c-0.2,0-0.4,0-0.5,0.1c0,0-0.1,0.1-0.2,0.1c-0.1,0-0.2,0-0.3,0h-1.1l1.7-1.7c0,0.2,0,0.3,0.1,0.5
		c0,0.2,0.1,0.3,0.1,0.5c0.1,0,0.3,0.1,0.4,0.1C230.9,87.2,231,87.3,231.1,87.4z M231.5,60.9c0-0.2-0.1-0.5-0.2-0.7
		c-0.1-0.2-0.4-0.3-0.8-0.3c-0.4,0-0.6,0.1-0.8,0.3c-0.2,0.2-0.2,0.5-0.2,0.7c0,0.2,0.1,0.5,0.2,0.7c0.2,0.2,0.4,0.3,0.8,0.3
		c0.2,0,0.5-0.1,0.7-0.3C231.4,61.5,231.5,61.2,231.5,60.9z M235.6,59.5c0-0.2-0.1-0.5-0.3-0.7c-0.2-0.2-0.5-0.3-0.8-0.3
		c-0.2,0-0.5,0.1-0.7,0.4c-0.2,0.2-0.4,0.5-0.4,0.7c0,0.2,0.1,0.4,0.3,0.6c0.2,0.2,0.5,0.3,0.8,0.3c0.2,0,0.4-0.1,0.7-0.2
		C235.5,60.2,235.6,59.9,235.6,59.5z M236.5,64.3l-0.2-0.2c0,0,0,0.1,0.1,0.2C236.4,64.4,236.4,64.4,236.5,64.3z"/>
	<path class="st3" d="M274.9,86.8c0,0.1-0.1,0.2-0.2,0.3c-0.1,0.1-0.2,0.2-0.1,0.3c-0.4,0-0.8-0.1-1.2,0c-0.3,0-0.6,0.1-0.7,0.1
		c-0.3,0-0.7-0.1-1-0.2c-0.3-0.1-0.6-0.3-0.9-0.5c-0.3-0.2-0.5-0.3-0.7-0.5c-0.2-0.1-0.3-0.2-0.4-0.2c-0.2,0-0.5,0.1-0.7,0.3l1.3,1
		h-4.8c-0.1,0-0.3,0-0.4-0.1c-0.2-0.1-0.3-0.2-0.3-0.3c-0.2-0.5-0.4-1-0.6-1.6c-0.2-0.5-0.3-1.1-0.5-1.6c-0.1-0.2-0.1-0.4-0.2-0.7
		c-0.1-0.3-0.2-0.5-0.3-0.7c-0.3,0-0.7-0.1-1.1-0.1c-0.4,0-0.7,0-0.8,0l-2.3,0.1c-0.1,0-0.4,0-0.7,0c-0.4,0-0.7,0-0.9-0.1
		c-0.1,0-0.2-0.1-0.4-0.2c-0.1-0.1-0.2-0.1-0.4-0.1c-0.1,0-0.2,0-0.2,0.1c0,0.1-0.1,0.1-0.2,0.1h-4.1c-0.3,0.4-0.5,0.8-0.6,1.3
		s-0.2,0.9-0.3,1.4c-0.1,0.4-0.2,0.9-0.3,1.3c-0.1,0.4-0.4,0.7-0.7,1c-0.1,0.1-0.2,0.1-0.4,0.1c-0.2,0-0.4,0-0.7,0
		c-0.2,0-0.5,0-0.7,0c-0.2,0-0.3,0-0.4,0c-0.1,0-0.2,0-0.5,0c-0.3,0-0.5,0-0.8-0.1s-0.6,0-0.8-0.1c-0.3,0-0.4,0-0.5,0
		c-0.1,0-0.3,0-0.4,0.1c-0.2,0.1-0.3,0.1-0.4,0.1h-3.3c0-0.1-0.1-0.3-0.1-0.5c0-0.2,0-0.4,0-0.5c0-0.3,0.1-0.8,0.3-1.4
		s0.4-1.2,0.6-1.8c0.2-0.6,0.5-1.2,0.7-1.7c0.2-0.5,0.4-0.9,0.5-1.2c0.2-0.6,0.4-1.2,0.7-1.8c0.3-0.6,0.6-1.2,0.8-1.8l3.9,1
		c0.2,0,0.4,0,0.5,0c0.1-0.1,0.2-0.1,0.3-0.2c0.3-0.7,0.5-1.4,0.8-2.1s0.5-1.4,0.7-2c0.3-0.8,0.6-1.7,0.9-2.7c0.3-1,0.6-1.9,0.9-2.7
		c0.3-0.8,0.6-1.6,0.9-2.4c0.3-0.8,0.5-1.5,0.5-2.1c0-0.4-0.1-0.8-0.3-1c-0.2-0.2-0.5-0.3-0.8-0.4c-0.3-0.1-0.7-0.2-1.1-0.2
		s-0.7-0.2-1.1-0.4v-0.3c0-0.2,0.1-0.4,0.3-0.6c0.2-0.2,0.3-0.5,0.3-1c0.2-0.1,0.5-0.2,0.8-0.3c0.3-0.2,0.5-0.4,0.5-0.7l-0.6-0.4
		c0-0.4,0.2-0.6,0.4-0.9c0.2-0.2,0.5-0.3,0.8-0.3h1.9v0.3c0.1,0,0.3,0.1,0.5,0.1c0.2,0,0.4,0,0.6-0.1c0.2-0.1,0.4-0.1,0.6-0.2
		c0.2,0,0.4-0.1,0.6-0.1c0,0.1,0,0.2-0.1,0.2c-0.1,0-0.2,0.1-0.3,0.1c-0.1,0-0.2,0.1-0.3,0.1c-0.1,0-0.2,0.1-0.2,0.2
		c0.1,0.2,0.2,0.2,0.3,0.3c0.1,0,0.2,0,0.3-0.1c0.1,0,0.2-0.1,0.4-0.1c0.1,0,0.2,0,0.4,0l0.2,0.2l-2.3,0.9l0.2,0.2l2.2-0.6
		c0.1,0.1,0.1,0.2,0.1,0.4c-0.2,0-0.3,0.1-0.5,0.2c-0.2,0.1-0.4,0.2-0.6,0.4c0,0.2,0,0.2,0.2,0.2l1.2-0.3c0,0.2-0.2,0.3-0.4,0.5
		c-0.3,0.1-0.5,0.3-0.7,0.4l-0.2-0.3c-0.1,0.1-0.2,0.2-0.3,0.3c0,0.1-0.2,0.2-0.3,0.3c0.2,0.1,0.4,0.2,0.6,0.1
		c0.2-0.1,0.3-0.2,0.5-0.2c0.2,0,0.4,0,0.6,0c0.2,0,0.4-0.1,0.7-0.2c0,0,0,0.1,0.1,0.2c0,0.1,0.1,0.2,0.1,0.2
		c-0.2,0.1-0.4,0.1-0.6,0.2c-0.2,0-0.4,0.1-0.5,0.2v0c0,0.1,0,0.1,0.1,0.1l1.1-0.3l0.1,0.1c0,0.1,0.1,0.2,0.2,0.2l-2.3,0.9
		c0,0,0.1,0.1,0.1,0.1s0.1,0,0.1,0l2.2-0.6c0,0,0,0.1,0.1,0.2c0.1,0.1,0.1,0.2,0.2,0.3c-0.2,0.1-0.4,0.2-0.6,0.3
		c-0.2,0.1-0.4,0.2-0.6,0.3c0.1,0.1,0.2,0.1,0.3,0.1c0.1,0,0.2,0,0.3-0.1c0.1,0,0.2-0.1,0.3-0.2c0.1-0.1,0.2-0.1,0.3-0.1
		c0,0,0.1,0.1,0.1,0.2s0.1,0.2,0.1,0.3l-2.2,0.8l0.2,0.2l2.1-0.7c0.2,0.2,0.3,0.5,0.3,0.7c-0.4,0.1-0.8,0.3-1.2,0.5
		c0.1,0,0.3,0,0.5,0c0.2,0,0.4-0.1,0.6-0.1l0.1,0.1l0.1,0.4c-0.1,0-0.3,0.1-0.5,0.1c-0.2,0-0.4,0.1-0.6,0.1c-0.2,0-0.4,0.1-0.5,0.2
		c-0.2,0.1-0.3,0.2-0.4,0.3v0.1l1.7-0.6h0.5c0,0,0,0.1,0.1,0.2c0,0.1,0.1,0.1,0.1,0.2l-1.2,0.6c0.1,0.1,0.2,0.2,0.3,0.2l1-0.3
		c0.1,0,0.1,0.1,0.2,0.2c0,0.1,0.1,0.2,0.1,0.3l-2.2,0.8c0,0,0,0,0,0c0,0,0.1,0,0.1,0l2.1-0.6l0.1,0.1v0.3c-0.2,0-0.4,0.1-0.6,0.2
		c-0.2,0.1-0.4,0.2-0.6,0.3l0.2,0.2c0.2,0,0.3-0.1,0.5-0.2c0.2-0.1,0.4-0.1,0.7-0.2c0,0,0,0.1,0.1,0.2c0,0.1,0.1,0.2,0.1,0.4
		l-2.2,0.8c0,0,0.1,0.1,0.1,0.1s0.1,0,0.1,0l2.2-0.6c0,0,0,0.1,0.1,0.2c0,0.1,0.1,0.2,0.1,0.2c-0.4,0.1-0.8,0.3-1.2,0.5
		c0,0,0.1,0.1,0.1,0.1c0,0,0,0,0.2,0c0.1,0,0.3,0,0.4-0.1c0.2-0.1,0.3-0.1,0.5-0.2c0.1,0.1,0.2,0.2,0.2,0.3c0,0.1,0.1,0.2,0.1,0.4
		l-2.2,0.8c0,0,0.1,0.1,0.1,0.1s0.1,0,0.1,0l1.8-0.6c0.2,0,0.3,0,0.4,0.1v0.3c-0.2,0.1-0.3,0.2-0.5,0.3c-0.2,0.1-0.4,0.1-0.5,0.3
		c0,0,0,0.1,0,0.2c0,0.1,0.1,0.1,0.2,0.1c0,0,0.1,0,0.2-0.1c0.1,0,0.3-0.1,0.4-0.2s0.3-0.1,0.4-0.2c0.1-0.1,0.2-0.2,0.3-0.3
		l-4.6-13.1c0.1,0,0.2,0.1,0.4,0.1c0.1,0,0.3,0.1,0.4,0.2c0.2,0.2,0.3,0.4,0.5,0.6c0.1,0.2,0.2,0.5,0.3,0.7c0.1,0.2,0.2,0.5,0.4,0.7
		c0.1,0.2,0.3,0.4,0.5,0.6c0.1,0,0.2-0.1,0.2-0.2s0-0.1,0-0.1l-1.3-2.4c0.1,0,0.3-0.1,0.4-0.2c0.1-0.1,0.3-0.1,0.4-0.1
		c0.1,0,0.3,0,0.4,0c0.2,0,0.6,0,1.2,0.1c0.1,0,0.3,0,0.5,0.1c0.2,0,0.4,0.1,0.6,0.1c0.2,0.1,0.3,0.2,0.3,0.3
		c0.2,0.4,0.4,0.9,0.6,1.5c0.2,0.6,0.4,1.1,0.6,1.7c0,0,0,0.1-0.1,0.2c-0.1,0.1-0.1,0.2-0.2,0.3c0.2,0.1,0.4,0.3,0.6,0.5
		c0.2,0.2,0.3,0.4,0.4,0.7c0.1,0.2,0.2,0.5,0.3,0.7c0.1,0.2,0.2,0.5,0.2,0.7c0.1,0.2,0.2,0.5,0.4,0.9c0.2,0.3,0.3,0.7,0.5,1
		c0.1,0.3,0.3,0.6,0.4,0.9s0.2,0.4,0.2,0.5c0,0-0.1,0.1-0.3,0.4c-0.2,0.2-0.4,0.5-0.6,0.8c-0.2,0.3-0.4,0.6-0.7,1
		c-0.2,0.3-0.4,0.6-0.5,0.8c0,0.1-0.1,0.2-0.1,0.3c0,0.1-0.1,0.1-0.3,0l-0.9,5.5v2.5l0.3,0.2c0.1,0,0.2-0.1,0.3-0.2
		c0.1-0.1,0.2-0.2,0.3-0.3l-0.2-1.1v-2.5c0-0.4,0.1-1,0.3-1.7c0.2-0.7,0.5-1.3,0.8-2c0.3-0.7,0.6-1.3,1-1.8c0.3-0.5,0.6-0.8,0.8-0.9
		l1,2.6c-0.6,1-1,2-1.3,3.2c-0.3,1.1-0.3,2.2-0.1,3.1c-0.2,0-0.4-0.1-0.6-0.2s-0.5-0.2-0.7-0.3c0,0.2-0.1,0.4-0.2,0.6
		c-0.1,0.2-0.1,0.3-0.1,0.5c0,0.1,0,0.2,0.1,0.3c0.1,0.1,0.2,0.2,0.3,0.2c0.2,0.7,0.4,1.4,0.7,2.2c0.3,0.7,0.7,1.4,1.2,2.2
		s1.1,1.4,1.7,2s1.4,1.2,2.3,1.6l2-1.1c-0.1-0.2-0.2-0.5-0.2-0.7c0.1,0.1,0.2,0.3,0.3,0.5c0.1,0.2,0.3,0.4,0.4,0.6s0.3,0.5,0.4,0.7
		C274.9,86.5,274.9,86.7,274.9,86.8z M253.3,63.8l-4.7,13.5h-0.5l-5-1.6c0,0,0,0-0.1,0c0,0-0.1-0.1-0.1-0.2c0-0.1,0-0.2,0-0.4
		c0-0.2,0.1-0.5,0.1-0.7c0-0.3,0.1-0.5,0.1-0.8c0-0.3,0.1-0.5,0.2-0.7c0.6-1.8,1.3-3.7,2.1-5.5c0.7-1.9,1.5-3.7,2.2-5.5l2.4,0.8
		c0,0,0,0,0,0c0,0,0.1-0.1,0.2-0.1c0,0,0.2,0,0.4,0.1c0.2,0.1,0.4,0.1,0.7,0.2s0.5,0.2,0.8,0.3c0.3,0.1,0.5,0.2,0.7,0.2
		c0.1,0,0.1,0.1,0.2,0.2C253.3,63.6,253.3,63.7,253.3,63.8z M247,70.6c0-0.2-0.1-0.5-0.3-0.7c-0.2-0.2-0.4-0.3-0.7-0.3
		c-0.3,0-0.6,0.1-0.8,0.4c-0.2,0.2-0.4,0.5-0.4,0.7c0,0.2,0.1,0.4,0.3,0.7c0.2,0.2,0.5,0.4,0.8,0.4c0.2,0,0.4-0.1,0.7-0.2
		C246.9,71.3,247,71,247,70.6z M247.3,74.8c0-0.2-0.1-0.5-0.3-0.7c-0.2-0.2-0.5-0.3-0.8-0.3c-0.3,0-0.5,0.1-0.7,0.2
		c-0.2,0.1-0.3,0.4-0.3,0.8c0,0.1,0,0.2,0.1,0.3c0,0.1,0.1,0.2,0.2,0.4c0.1,0.1,0.2,0.2,0.3,0.3c0.1,0.1,0.3,0.1,0.5,0.1
		c0,0,0.1,0,0.3-0.1c0.1,0,0.2-0.1,0.4-0.2c0.1-0.1,0.2-0.2,0.3-0.3C247.2,75.1,247.3,75,247.3,74.8z M248.3,67.4c0,0,0-0.1-0.1-0.2
		c0-0.1-0.1-0.2-0.2-0.3c-0.1-0.1-0.2-0.2-0.3-0.3c-0.1-0.1-0.3-0.1-0.4-0.1c-0.3,0-0.6,0.1-0.8,0.3c-0.2,0.2-0.3,0.5-0.3,0.7
		c0,0.2,0.1,0.4,0.2,0.6s0.4,0.4,0.8,0.4c0.2,0,0.5-0.1,0.7-0.3C248.2,67.9,248.3,67.7,248.3,67.4z M248.8,83.1l-0.2-0.1
		c0,0,0,0.1,0.1,0.1C248.7,83.2,248.7,83.2,248.8,83.1z M250.8,64.4c0-0.2-0.1-0.4-0.3-0.7c-0.2-0.2-0.5-0.4-0.8-0.4
		c-0.4,0-0.6,0.1-0.8,0.4c-0.2,0.3-0.3,0.5-0.3,0.6c0,0.2,0.1,0.4,0.2,0.7c0.2,0.2,0.4,0.3,0.8,0.3c0.2,0,0.4-0.1,0.7-0.3
		C250.7,64.9,250.8,64.7,250.8,64.4z M263.1,76.9c-0.4,0-0.7,0-0.8,0c-0.1,0.1-0.3,0.1-0.4,0.2l-0.2-0.2c0.3-0.2,0.5-0.5,0.5-0.8
		c0-0.3,0-0.5,0-0.6c0.1-0.1,0.1-0.2,0.2-0.3c0.1-0.1,0.1-0.3,0.2-0.4c-0.1-0.1-0.2-0.2-0.2-0.3c0,0-0.1,0-0.3-0.1
		c-0.1,0-0.2,0-0.3,0l-0.8,0.3l-3.2-8.9h-0.4l-3.1,9.6c0,0.1,0,0.2,0,0.3c0,0.1,0.1,0.2,0.1,0.2c0.2,0,0.3,0.1,0.5,0.2
		c0.2,0.1,0.3,0.1,0.5,0.1c0.1,0,0.2,0,0.3-0.1c0.1,0,0.3-0.1,0.4-0.1c0.2,0,0.3-0.1,0.4-0.1c0.1,0,0.3-0.1,0.3-0.1
		c0.1,0,0.3,0,0.5,0.1c0.2,0,0.7,0.1,1.4,0.1c0.1,0,0.2,0.1,0.4,0.2c0.2,0.1,0.3,0.2,0.3,0.3c-0.1,0.2-0.3,0.3-0.6,0.3
		c-0.3,0-0.4,0-0.5,0c-0.3,0.3-0.7,0.5-1.1,0.7c-0.4,0.2-0.8,0.4-1.1,0.6v0.4l0.3,0.3c-0.1,0-0.2,0.1-0.3,0.1
		c-0.1,0-0.2,0.1-0.3,0.1c0,0-0.1-0.1-0.1-0.2c0-0.1-0.1-0.2-0.1-0.2c-0.3,0.3-0.7,0.6-1.1,0.7c-0.4,0.2-0.8,0.3-1.2,0.5
		c-0.4,0.1-0.9,0.3-1.3,0.4c-0.4,0.1-0.9,0.3-1.3,0.5h0.7c0.1,0,0.3,0,0.6-0.1c0.2-0.1,0.4-0.2,0.6-0.2c0,0,0.1,0.1,0.2,0.2
		c0.1,0.1,0.1,0.2,0.2,0.2c0-0.1,0-0.2,0-0.3c0-0.1,0-0.2,0-0.2c0.1,0,0.2,0,0.3-0.1c0.1,0,0.2-0.1,0.3-0.1c0.1,0.1,0.2,0.2,0.3,0.4
		c0.1,0.1,0.1,0.2,0.2,0.4c0-0.1,0-0.2,0-0.4s-0.1-0.3-0.1-0.4c0.1,0,0.2-0.1,0.3-0.1c0.1,0,0.1-0.1,0.2-0.1
		c0.1,0.2,0.2,0.3,0.3,0.5c0.1,0.1,0.1,0.3,0.2,0.5h0.4l-0.3-1c0.1,0,0.2-0.1,0.3-0.1c0.1,0,0.2,0,0.3-0.1l0.5,1.1
		c0-0.2,0-0.3-0.1-0.5c-0.1-0.2-0.1-0.4-0.2-0.6c0.1-0.1,0.2-0.2,0.3-0.2c0.1,0,0.2,0,0.3-0.1c0,0.2,0.1,0.3,0.2,0.5
		c0.1,0.2,0.1,0.3,0,0.5h0.5c0-0.1,0-0.2,0.1-0.3c0.1-0.1,0.2-0.2,0.2-0.2c0.1,0.2,0.1,0.3,0.2,0.5s0.1,0.3,0.2,0.4
		c0-0.2-0.1-0.4-0.1-0.6c0-0.2,0-0.4,0-0.5c0.1,0,0.2,0,0.3,0c0.1,0,0.1,0,0.3,0c0.1,0,0.2,0.1,0.3,0.2c0,0.1,0.1,0.2,0.1,0.2
		c0.1-0.2,0.1-0.3,0.1-0.4c-0.1-0.1,0-0.2,0.3-0.3c0.1,0.2,0.2,0.4,0.3,0.6c0.1,0.2,0.2,0.4,0.2,0.6h0.4c-0.1-0.3-0.2-0.5-0.2-0.7
		c0-0.2,0-0.4,0-0.5c0.2-0.1,0.4-0.1,0.5-0.1c0.2-0.2,0.4-0.4,0.6-0.7c0.2-0.3,0.5-0.5,0.8-0.7c0.2-0.1,0.4-0.2,0.6-0.3
		C262.7,77.1,262.9,77.1,263.1,76.9z M258,78.3c0,0-0.1,0-0.3,0.1c-0.1,0-0.3,0.1-0.5,0.1c0,0,0-0.1,0.1-0.2
		c0.1-0.1,0.1-0.2,0.2-0.3c0,0,0.1,0.1,0.3,0.1C257.7,78.1,257.8,78.2,258,78.3z M257.5,81.5h-0.4v0.4c0.1,0,0.2-0.1,0.3-0.2
		C257.5,81.6,257.5,81.5,257.5,81.5z M259.9,77.3c0,0.2-0.1,0.3-0.3,0.4c-0.2,0.1-0.5,0.2-0.8,0.2c0-0.2,0.1-0.3,0.2-0.3
		c0.1-0.1,0.2-0.1,0.3-0.2c0.1,0,0.2-0.1,0.3-0.1c0.1-0.1,0.2-0.1,0.3-0.3c0,0,0,0,0.1,0C259.9,77.2,259.9,77.3,259.9,77.3z
		 M261.6,61.7c-0.2-0.2-0.3-0.4-0.4-0.5c-0.1-0.2-0.3-0.3-0.4-0.3v0.4c0.2,0.2,0.3,0.3,0.4,0.5c0.1,0.2,0.2,0.4,0.3,0.5L261.6,61.7z
		 M261.9,62.8v-0.5h-0.2v0.5H261.9z M262.3,63.3l-0.1-0.1l-0.1,0.3l0.1,0.1L262.3,63.3z M263.4,66.2v-0.6c0-0.1-0.1-0.3-0.2-0.4
		c-0.1-0.2-0.2-0.3-0.3-0.4c0,0-0.1,0.1-0.1,0.3c0,0.1,0,0.2,0,0.3c0,0.1,0.1,0.3,0.2,0.5C263,65.9,263.1,66,263.4,66.2z
		 M264.4,69.3V69c-0.1-0.2-0.2-0.3-0.3-0.5c-0.1-0.2-0.1-0.3-0.2-0.5c0-0.2-0.1-0.3-0.1-0.5c0-0.2-0.1-0.3-0.1-0.3
		c0,0.1,0,0.3,0,0.5c0,0.2,0,0.4,0.1,0.7c0.1,0.2,0.1,0.4,0.3,0.6C264.2,69.1,264.3,69.2,264.4,69.3z M273.5,83.9c0,0-0.1,0-0.2,0.1
		s-0.2,0.1-0.3,0.1c0,0-0.1,0.1-0.1,0.2c0,0.1,0,0.2,0,0.2c-0.9-0.5-1.7-1.1-2.4-1.8c-0.6-0.7-1.2-1.4-1.5-2.1
		c-0.4-0.7-0.7-1.5-0.9-2.2c-0.2-0.8-0.3-1.5-0.3-2.1c0-1.4,0.4-2.8,1.2-4.3L273.5,83.9z"/>
	<path class="st3" d="M302.2,85.3c-0.1,0.1-0.1,0.3-0.2,0.5c0,0.2-0.1,0.4-0.2,0.6c-0.1,0.2-0.2,0.4-0.3,0.5
		c-0.1,0.1-0.3,0.2-0.6,0.2h-16.3c-0.1,0-0.2,0-0.4-0.1c-0.1-0.1-0.3-0.1-0.4-0.1c-0.1,0-0.2,0-0.4,0c-0.2,0-0.4,0-0.6,0.1
		c-0.2,0-0.5,0-0.6,0.1c-0.2,0-0.3,0-0.4,0c-0.1,0-0.2,0-0.5,0c-0.2,0-0.5,0-0.8-0.1c-0.3,0-0.6,0-1-0.1c-0.3,0-0.6,0-0.8,0
		c-0.2-0.1-0.3-0.2-0.4-0.5c-0.1-0.3-0.1-0.4-0.1-0.4c0-0.1,0-0.2,0.1-0.3c0.1-0.1,0.2-0.2,0.3-0.3c0,0,0.1,0,0.2,0
		c0.1,0,0.2,0,0.4,0c0.1,0,0.4,0,0.8-0.1c0.4-0.1,0.8-0.2,1.2-0.3c0.1,0,0.3-0.1,0.5-0.2c0.2-0.1,0.4-0.2,0.5-0.4
		c0.1-0.1,0.2-0.3,0.3-0.5c0.1-0.2,0.1-0.4,0.1-0.5v-1.8c0,0,0-0.2,0-0.4c0-0.3,0-0.6,0-0.9c0-0.3,0.1-0.7,0.1-1
		c0-0.3,0.1-0.6,0.3-0.7c0.4,0.1,0.7,0.3,1.1,0.6c0.3,0.3,0.7,0.6,1,0.9c0.3,0.3,0.6,0.6,0.8,0.9c0.3,0.3,0.5,0.6,0.8,0.8v2.9
		c0,0.1,0.1,0.2,0.2,0.3s0.2,0.2,0.3,0.3h1.9c0.1,0,0.2-0.1,0.2-0.1c0,0,0-0.1,0-0.1l0.3,0.2h0.6c0-0.1,0.1-0.2,0.1-0.3
		c0-0.1,0-0.3-0.2-0.4c0.1,0.1,0.3,0.1,0.4,0.1c0.2,0,0.4,0,0.6,0c0.2,0,0.4,0,0.6,0.1c0.2,0.1,0.4,0.2,0.6,0.4H302.2z M293.6,59
		c0,0.3-0.1,0.6-0.3,0.7c-0.2,0.1-0.5,0.2-0.8,0.3s-0.7,0.1-1,0.1s-0.7,0.1-1,0.3c-0.3,0.1-0.6,0.4-0.8,0.7
		c-0.2,0.3-0.3,0.7-0.3,1.3v8.9c0,0.1,0,0.2-0.1,0.3c-0.1,0.1-0.2,0.2-0.2,0.3c-0.2-0.1-0.5-0.3-0.8-0.4c-0.3-0.2-0.6-0.3-0.8-0.5
		v-6.2l1.1-1.9c-0.4-0.6-0.7-1.1-0.9-1.6c-0.2-0.5-0.3-0.9-0.1-1.5l-0.3-0.3c-0.1,0.3-0.2,0.6-0.1,0.9c0,0,0-0.1-0.1-0.1
		c-0.1,0-0.1-0.1-0.2-0.1h-2.1l1.4,2.6l-1.4,2.7h2.1c0.1,0,0.2-0.1,0.2-0.1c0,0,0-0.1,0.1-0.1v13.3c-0.1,0.2-0.2,0.3-0.3,0.3
		c-0.1,0-0.3,0-0.4,0.1c0.1,0.2,0.2,0.4,0.2,0.7c0,0.3,0,0.5,0,0.8c-0.2-0.2-0.4-0.4-0.7-0.5c0-0.1,0-0.2,0-0.3c0-0.1,0-0.2-0.1-0.3
		c-0.1-0.1-0.2-0.2-0.3-0.4c-0.1-0.1-0.1-0.2-0.2-0.3c0,0-0.1,0-0.2-0.1c-0.1,0-0.2-0.1-0.3-0.1c0-0.1-0.1-0.2-0.2-0.3
		c-0.1-0.1-0.1-0.2-0.3-0.3c0,0-0.1,0-0.2-0.1c-0.1,0-0.2,0-0.3-0.1c-0.1,0-0.2-0.1-0.3-0.3c-0.1-0.2-0.3-0.4-0.4-0.6
		c-0.1-0.2-0.3-0.4-0.4-0.6s-0.2-0.3-0.2-0.4v-9.6c0-0.1,0.1-0.2,0.2-0.4s0.2-0.3,0.3-0.4h0.4l0.2,0.2l0.5-0.1v-0.2
		c-0.1,0-0.2-0.1-0.4-0.1c-0.2,0-0.3-0.1-0.5-0.1c-0.2,0-0.3-0.1-0.5-0.2c-0.1-0.1-0.2-0.3-0.2-0.5v-2.8c0-0.5-0.1-0.8-0.4-1.1
		c-0.3-0.3-0.6-0.5-1-0.6c-0.4-0.1-0.8-0.2-1.2-0.2s-0.7-0.1-1-0.1c0,0-0.1-0.1-0.2-0.2c-0.1-0.1-0.1-0.1-0.2-0.2
		c0-0.1,0.1-0.3,0.1-0.5c0-0.2,0-0.4,0-0.6c0.1-0.1,0.2-0.1,0.4-0.2s0.4-0.1,0.6-0.1c0.2,0,0.4,0,0.6-0.1c0.2,0,0.4,0,0.5,0
		s0.3,0.1,0.6,0.2c0.2,0.1,0.4,0.2,0.5,0.2c0.1,0,0.3-0.1,0.5-0.2s0.3-0.2,0.4-0.2h4.1c0.2,0,0.4,0,0.8,0c0.3,0,0.6,0,0.9,0
		c0.3,0,0.6,0.1,0.8,0.1c0.3,0,0.4,0.1,0.6,0.2c0,0.2,0,0.4-0.1,0.7c0,0.2,0,0.5,0.1,0.7c0.2,0,0.3-0.1,0.3-0.2s0.1-0.2,0.1-0.4
		c0-0.1,0-0.3,0.1-0.5c0-0.2,0.2-0.3,0.4-0.5c0.1-0.1,0.3-0.1,0.5-0.1c0.2,0,0.4,0,0.6,0c0.4,0,0.7,0.1,1,0.2
		C293.5,58.4,293.6,58.7,293.6,59z M285.4,63l-1-1.9h-1.2l1.1,1.9l-1.1,1.8h1.3L285.4,63z M284.6,69.3c0-0.2,0-0.3,0-0.4
		c-0.1-0.1-0.1-0.1-0.2-0.1C284.4,69,284.5,69.2,284.6,69.3z M289.4,83.2h-0.6l-1-3v-6.6c0-0.1,0-0.2-0.1-0.3
		c-0.1-0.1-0.2-0.1-0.2-0.3l0.1-1.4h0.1c0,0,0,0,0.1,0c0,0,0.1,0,0.1,0c0.1,0,0.1,0.1,0.2,0.2c0,0.1,0.1,0.2,0.1,0.3
		c0,0.1-0.1,0.2-0.2,0.3c-0.1,0.1-0.1,0.2-0.1,0.4v0.5c0,0,0.1,0.1,0.1,0.1c0,0,0.1,0,0.2,0c0.1,0,0.2,0,0.4-0.1s0.2-0.1,0.4-0.2
		c0.1,0.3,0.2,0.7,0.3,1.1c0.1,0.4,0.1,0.7,0.1,0.8V83.2z M303.7,79.4c0,0.2-0.1,0.4-0.2,0.7c-0.1,0.3-0.2,0.5-0.3,0.8
		c0,0,0,0.1-0.1,0.2c0,0.1,0,0.2-0.1,0.3c0,0.1-0.1,0.2-0.1,0.3s-0.1,0.1-0.2,0.1c-0.1,0-0.3-0.1-0.7-0.2c-0.3-0.1-0.6-0.2-0.7-0.2
		h-0.5l-0.2,0.2c0,0.2,0.1,0.3,0.4,0.3c0.1,0,0.2,0,0.1-0.1c0,0,0,0,0.2,0c0.3,0,0.6,0.1,1,0.3c0.4,0.2,0.6,0.4,0.6,0.6
		c0,0.1,0,0.2-0.1,0.4c-0.1,0.2-0.1,0.3-0.1,0.4c-0.1,0.1-0.3,0.1-0.4,0.1c-0.2,0-0.4,0-0.6,0c-0.2,0-0.4,0-0.6,0.1
		s-0.3,0.2-0.5,0.4h-2.3c0.4-0.3,0.8-0.8,1.2-1.2s0.8-0.9,1.2-1.3c0.2-0.4,0.4-0.9,0.7-1.4c0.3-0.5,0.5-0.9,0.8-1.4
		c0.2,0,0.5,0.1,0.8,0.2C303.1,79.1,303.4,79.2,303.7,79.4z"/>
	<path class="st3" d="M313.8,68.8l-3.3,2.6l-0.2-0.1l-1.5,1.1l-9.1-11.7l4.7-3.3L313.8,68.8z M304.2,60.6c0-0.2-0.1-0.4-0.3-0.7
		c-0.2-0.3-0.4-0.4-0.8-0.4c-0.3,0-0.5,0.1-0.7,0.3c-0.2,0.2-0.3,0.4-0.3,0.7c0,0.3,0.1,0.5,0.3,0.7s0.4,0.3,0.8,0.3
		c0.3,0,0.5-0.1,0.7-0.2C304.1,61.2,304.2,61,304.2,60.6z M305.4,64.2c0-0.2-0.1-0.5-0.3-0.7c-0.2-0.2-0.5-0.3-0.8-0.3
		c-0.3,0-0.5,0.1-0.7,0.4c-0.2,0.2-0.3,0.5-0.3,0.7c0,0.2,0.1,0.4,0.3,0.6c0.2,0.2,0.5,0.3,0.8,0.3c0.3,0,0.5-0.1,0.7-0.2
		S305.4,64.6,305.4,64.2z M307.6,67c0-0.2-0.1-0.5-0.3-0.7c-0.2-0.2-0.5-0.3-0.8-0.3c-0.3,0-0.5,0.1-0.7,0.4
		c-0.2,0.2-0.3,0.5-0.3,0.7c0,0,0,0.1,0.1,0.2c0,0.1,0.1,0.2,0.2,0.3c0.1,0.1,0.2,0.2,0.3,0.3c0.1,0.1,0.3,0.1,0.5,0.1
		c0.3,0,0.5-0.1,0.7-0.3S307.6,67.4,307.6,67z M311.2,69.3c0,0,0-0.1-0.1-0.2c0-0.1-0.1-0.2-0.2-0.3c-0.1-0.1-0.2-0.2-0.3-0.3
		s-0.3-0.1-0.5-0.1c-0.3,0-0.5,0.1-0.7,0.3c-0.2,0.2-0.3,0.4-0.3,0.7c0,0.2,0.1,0.5,0.3,0.7c0.2,0.2,0.5,0.3,0.8,0.3
		c0.3,0,0.5-0.1,0.7-0.3C311.1,69.8,311.2,69.6,311.2,69.3z M328.9,59l-2.7,3.8c0,0-0.1-0.1-0.1-0.3c0-0.1-0.1-0.2-0.1-0.3h-0.3
		c-0.1,0.1-0.2,0.2-0.2,0.3c0,0.1,0,0.3,0.1,0.4c0,0.1,0.1,0.3,0.1,0.4s0,0.2,0,0.3c-0.1,0.3-0.4,0.7-0.7,1.1
		c-0.3,0.5-0.7,1-1.1,1.5c-0.4,0.5-0.8,1.1-1.2,1.7s-0.8,1.1-1.2,1.7c-0.4,0.6-0.8,1.2-1.2,1.9c-0.4,0.7-0.8,1.3-1.2,2l-4.2-0.1
		c-0.1,0-0.3,0-0.6,0c-0.3,0-0.5,0-0.8,0c-0.3,0-0.5,0.1-0.7,0.2c-0.2,0.1-0.3,0.3-0.3,0.5v8.3l5.1,0.3v3.9c0,0.2-0.1,0.4-0.3,0.5
		c-0.2,0.1-0.5,0.2-0.8,0.2c-0.3,0-0.6,0-0.8,0c-0.3,0-0.4,0-0.4,0l-4.1-0.1c-0.1,0-0.3-0.1-0.4-0.2s-0.3-0.3-0.3-0.4V75.8l-1.3-2.2
		c0-0.1,0.1-0.2,0.2-0.4s0.1-0.3,0.2-0.3c0.5-0.3,0.9-0.7,1.4-1c0.5-0.3,1-0.6,1.4-0.9s0.9-0.7,1.3-1s0.8-0.8,1.1-1.2
		c0.2-0.2,0.5-0.7,1-1.5c0.5-0.8,1.1-1.7,1.7-2.7c0.7-1,1.4-2.1,2.1-3.3c0.7-1.2,1.5-2.2,2.1-3.2c0-0.1,0.2-0.1,0.4-0.2
		c0.2,0,0.4-0.1,0.7-0.1s0.5,0,0.7,0s0.4,0,0.5,0c0.1,0,0.2,0,0.5,0c0.2,0,0.5,0,0.8,0.1c0.3,0,0.5,0,0.8,0.1c0.2,0,0.4,0,0.5,0
		c0.1,0,0.3,0,0.5-0.1s0.4-0.1,0.6-0.1c0.3,0,0.6,0.1,0.8,0.4S328.8,58.8,328.9,59z M312.4,83.7c0.3-0.1,0.3-0.2,0-0.4L312.4,83.7z
		 M319.9,81.6l-6.4,0.3v-7.4h6.4V81.6z M316,76.2c0-0.2-0.1-0.4-0.3-0.6c-0.2-0.2-0.5-0.4-0.7-0.4c-0.3,0-0.6,0.1-0.8,0.4
		s-0.3,0.4-0.3,0.6c0,0.2,0.1,0.4,0.3,0.6c0.2,0.2,0.4,0.3,0.7,0.3c0.2,0,0.4-0.1,0.7-0.2C315.9,76.8,316,76.5,316,76.2z M317.7,80
		c0-0.2-0.1-0.3-0.2-0.6c-0.2-0.2-0.4-0.3-0.8-0.3c-0.2,0-0.4,0.1-0.7,0.2c-0.2,0.1-0.3,0.4-0.3,0.7c0,0.2,0.1,0.4,0.2,0.6
		c0.2,0.2,0.4,0.3,0.8,0.3c0.2,0,0.4-0.1,0.7-0.2S317.7,80.3,317.7,80z M319.2,76.1c0-0.2-0.1-0.4-0.2-0.6c-0.1-0.2-0.4-0.3-0.8-0.3
		c-0.3,0-0.6,0.1-0.7,0.3s-0.2,0.4-0.2,0.6s0.1,0.4,0.2,0.6c0.2,0.2,0.4,0.3,0.7,0.3c0.2,0,0.4-0.1,0.6-0.2
		C319.1,76.7,319.2,76.4,319.2,76.1z M322.5,65.8c-0.1,0-0.2-0.1-0.4-0.2c-0.1-0.1-0.2-0.1-0.3-0.1c0,0.1,0,0.3,0.1,0.5
		c0.1,0.2,0.2,0.3,0.4,0.4L322.5,65.8z M326.2,61.2v-0.5H326v0.5H326.2z"/>
	<path class="st3" d="M356.8,67.4c0,0.1-0.1,0.2-0.3,0.4c-0.2,0.2-0.3,0.3-0.4,0.3H349c-0.1,0-0.3,0-0.4-0.1
		c-0.1-0.1-0.2-0.2-0.3-0.3c-0.2-0.4-0.3-0.8-0.4-1.2c-0.1-0.4-0.3-0.9-0.4-1.3h-6.3c-0.1,0-0.2,0.1-0.4,0.2
		c-0.1,0.1-0.3,0.2-0.4,0.3c-0.3-0.2-0.6-0.5-0.9-0.6c-0.3-0.2-0.6-0.3-0.9-0.3c-0.2,0-0.5,0.2-0.8,0.5c-0.3,0.3-0.6,0.7-0.9,1.2
		c-0.3,0.4-0.6,0.8-0.8,1.2c-0.2,0.3-0.3,0.5-0.3,0.6c-0.1,0.2-0.3,0.4-0.4,0.6s-0.3,0.4-0.5,0.6c-0.2,0.2-0.3,0.4-0.4,0.6
		c-0.1,0.2-0.2,0.4-0.1,0.6l7.2,5c-0.4-0.1-0.9-0.1-1.4-0.2s-1-0.1-1.5-0.1c-0.5,0-0.9-0.1-1.4-0.2s-0.8-0.2-1.1-0.4
		c-0.2-0.1-0.5-0.3-0.9-0.6c-0.4-0.3-0.8-0.7-1.3-1.1s-1-0.8-1.5-1.3c-0.5-0.4-1-0.8-1.4-1.2c0-0.2-0.1-0.4-0.1-0.7
		c0-0.3-0.1-0.5-0.1-0.7v-6c0-0.1,0.1-0.3,0.4-0.6s0.5-0.5,0.7-0.7c0.7-0.6,1.5-1.2,2.3-1.8c0.8-0.6,1.6-1.3,2.4-1.9
		c0.1-0.1,0.3-0.2,0.6-0.3c0.3-0.1,0.5-0.2,0.6-0.2h2.1c0.1,0,0.2,0,0.3,0.1c0.2,0,0.3,0.1,0.5,0.1s0.3,0.1,0.5,0.1s0.3,0.1,0.3,0.1
		c0.1,0,0.3,0,0.5-0.1c0.2,0,0.4-0.1,0.6-0.2l1.3,0.2c0.2,0,0.4-0.1,0.7-0.2s0.4-0.1,0.5-0.1c0.5,0,0.7,0.1,0.9,0.4
		c0.1,0.2,0.2,0.4,0.2,0.5h0.6c0.1,0,0.2-0.1,0.1-0.2s0-0.2,0-0.3c0.1-0.1,0.3-0.2,0.4-0.2c0.2-0.1,0.3-0.1,0.5-0.1
		c0.5,0,0.8,0.1,1,0.1c0.2,0,0.4,0,0.4-0.1c0.1,0,0.2-0.1,0.2-0.1c0,0,0.1-0.1,0.2-0.1s0.2,0,0.4,0.1s0.3,0.2,0.5,0.3
		c0.2,0.1,0.3,0.2,0.5,0.3c0.1,0.1,0.2,0.2,0.3,0.2c0.2,0.1,0.4,0.3,0.8,0.6c0.3,0.2,0.7,0.5,1.1,0.8c0.4,0.3,0.8,0.6,1.2,0.9
		c0.4,0.3,0.8,0.6,1.1,0.9c0.3,0.3,0.6,0.5,0.8,0.7c0.2,0.2,0.3,0.3,0.3,0.4V67.4z M357.3,80c0,0.1,0,0.2-0.1,0.3s-0.1,0.1-0.1,0.1
		c0,0.2,0,0.4,0,0.7c0,0.3,0,0.5,0,0.7c-0.1,0.2-0.3,0.3-0.6,0.5c-0.3,0.2-0.4,0.3-0.6,0.3h-12.2c0.3,0.4,0.6,0.8,0.9,1.3
		c0.3,0.5,0.7,0.9,1,1.4c0.1,0,0.2,0,0.3,0c0.1,0,0.2,0,0.3,0c0.1,0.1,0.2,0.3,0.3,0.4s0.2,0.3,0.3,0.5h4.5
		c-0.2,0.1-0.3,0.3-0.5,0.4s-0.4,0.3-0.5,0.3h-4.1l-2.9-4.4h-7.7l-1.3,2c0,0-0.1,0-0.1,0c-0.1,0-0.2-0.1-0.2-0.1l1.2-1.9h-3.6
		c-0.2-0.2-0.3-0.3-0.5-0.5c-0.2-0.2-0.3-0.3-0.3-0.5v-4.3c0-0.1,0.1-0.3,0.3-0.4c0.2-0.2,0.3-0.3,0.5-0.3h7.2
		c0.2,0,0.4,0.1,0.5,0.4c0.2,0.3,0.3,0.6,0.4,0.9c0.1,0.4,0.2,0.9,0.3,1.4c0,0,0.1,0.1,0.1,0.1s0,0.1,0.1,0.2h5.1
		c0,0.1,0,0.3,0.1,0.5c0.2,0,0.3-0.1,0.5-0.2s0.3-0.2,0.4-0.4v-1.9c-0.1-0.1-0.3-0.2-0.5-0.3c-0.2-0.1-0.3-0.2-0.5-0.3
		c-0.1-0.1-0.1-0.2-0.2-0.4c0-0.2-0.1-0.3-0.3-0.4c-1.2-0.7-2.2-1.3-3-1.8c-0.9-0.5-1.7-1-2.4-1.5c-0.7-0.5-1.4-0.9-2.1-1.3
		c-0.7-0.4-1.4-0.9-2.3-1.4V70l3.5-4.7L355,76v0.4c-0.5,0.4-0.8,0.8-1,1.2c-0.2,0.4-0.5,0.9-0.9,1.5c0,0,0.1,0.1,0.2,0.1
		s0.1,0,0.2,0.1c0.2-0.2,0.5-0.5,0.8-0.8c0.3-0.3,0.6-0.6,0.8-0.9c0.2-0.3,0.4-0.7,0.6-1c0.1-0.3,0.2-0.6,0.1-0.9
		c-1.7-1.1-3.4-2.2-5.1-3.4c-1.7-1.2-3.4-2.3-5.2-3.5c0.5,0,1,0.1,1.5,0.1s1.1,0.1,1.6,0.2c0.5,0.1,1.1,0.2,1.6,0.3
		c0.5,0.1,1,0.2,1.5,0.4c0.1,0.1,0.4,0.2,0.7,0.5c0.3,0.2,0.7,0.5,1.2,0.9c0.5,0.3,1,0.7,1.6,1.2c0.6,0.4,1.2,0.9,1.9,1.4
		c0,0.2,0.1,0.4,0.1,0.7s0.1,0.4,0.1,0.5V80z M334.5,83l-0.7,1.1c0,0-0.1,0-0.1,0c-0.1,0-0.2-0.1-0.2-0.1l0.4-1l-1.7,0L334.5,83z
		 M337.3,86.8l-1.9-1.3c0-0.1,0.1-0.3,0.2-0.5c0.1-0.2,0.2-0.3,0.2-0.5L337.3,86.8z M344.8,87.1h-5.3l-2.2-3.4h5.4L344.8,87.1z
		 M339.5,68.8c0-0.3-0.1-0.5-0.2-0.7s-0.4-0.3-0.8-0.3c-0.3,0-0.6,0.1-0.8,0.4c-0.2,0.2-0.3,0.5-0.3,0.6c0,0.2,0.1,0.5,0.2,0.7
		c0.1,0.2,0.4,0.3,0.9,0.3c0.2,0,0.4-0.1,0.6-0.2C339.3,69.4,339.5,69.1,339.5,68.8z M343.7,69.8c0-0.7-0.3-1-1-1
		c-0.7,0-1,0.3-1,0.9c0,0.2,0.1,0.5,0.2,0.7c0.1,0.2,0.4,0.3,0.8,0.3C343.3,70.7,343.7,70.4,343.7,69.8z M345.4,59.3
		c0-0.1,0-0.2,0-0.2c0,0-0.1-0.1-0.1-0.1h-0.4c-0.2,0.2-0.5,0.4-0.8,0.7c-0.3,0.2-0.6,0.5-0.8,0.7c0.2,0,0.4-0.1,0.5-0.1
		s0.2-0.1,0.4-0.1c0.1,0,0.2,0,0.3,0.1c0.1,0.1,0.2,0.1,0.4,0.1c0-0.2,0.2-0.3,0.3-0.6C345.3,59.6,345.4,59.4,345.4,59.3z M355.6,83
		c-0.2,0.1-0.3,0.1-0.5,0.1c-0.2,0-0.3,0.1-0.5,0.1c0,0,0.1,0.1,0.2,0.2c0.1,0.1,0.1,0.2,0.2,0.2l-0.3,0.3c0-0.1-0.1-0.2-0.2-0.4
		c-0.1-0.1-0.2-0.2-0.3-0.4l-1.3,0l0.9,1.3c0,0,0,0.1-0.1,0.2c-0.1,0.1-0.2,0.2-0.2,0.2h-7.5l-1.2-2L355.6,83z M347,72
		c0-0.2-0.1-0.5-0.4-0.7c-0.2-0.2-0.5-0.3-0.8-0.3c-0.4,0-0.7,0.1-0.9,0.4s-0.3,0.5-0.3,0.7c0,0.1,0.1,0.3,0.2,0.6
		c0.2,0.3,0.4,0.4,0.8,0.4c0.2,0,0.4-0.1,0.7-0.3C346.9,72.6,347,72.3,347,72z M347.6,84.8l-1.1-1.6l-1.4,0c0.2,0.2,0.3,0.4,0.4,0.6
		c0.1,0.2,0.2,0.4,0.4,0.6c0.1,0.2,0.3,0.3,0.6,0.4S347.1,84.9,347.6,84.8z M349.4,84.8l-1-1.6l-1.4,0l1,1.6H349.4z M353.2,62.1
		c0-0.6-0.2-1.1-0.7-1.6c-0.4-0.5-1.1-0.7-1.9-0.7c-0.8,0-1.4,0.2-1.9,0.7c-0.4,0.5-0.7,1-0.7,1.7c0,0.7,0.2,1.2,0.7,1.7
		c0.4,0.5,1,0.7,1.8,0.7c0.7,0,1.3-0.2,1.8-0.6C352.9,63.5,353.2,62.9,353.2,62.1z M350.3,74c0-0.2-0.1-0.5-0.3-0.7
		c-0.2-0.2-0.4-0.3-0.8-0.3c-0.3,0-0.5,0.1-0.8,0.3s-0.4,0.4-0.4,0.7c0,0.2,0.1,0.4,0.3,0.6c0.2,0.3,0.5,0.4,0.8,0.4
		c0.2,0,0.5-0.1,0.7-0.3S350.3,74.3,350.3,74z M352.9,62.2c0,0.6-0.2,1.1-0.7,1.5c-0.4,0.4-1,0.6-1.5,0.6c-0.4,0-0.7-0.1-1-0.2
		s-0.5-0.3-0.7-0.5c-0.2-0.2-0.3-0.4-0.4-0.7c-0.1-0.3-0.1-0.5-0.1-0.7c0-0.5,0.2-1,0.6-1.4c0.4-0.4,0.9-0.7,1.7-0.7
		c0.6,0,1.2,0.2,1.6,0.6C352.6,61.1,352.9,61.6,352.9,62.2z M351.3,84.8l-1-1.6l-1.5,0l1,1.6H351.3z M353.2,84.8l-0.9-1.6l-1.5,0
		l1,1.6H353.2z"/>
	<path class="st3" d="M364,60.5c0-0.1-0.1-0.1-0.3-0.1c0,0.1-0.1,0.2,0,0.3c0,0.1,0,0.2,0,0.4c0,0-0.1,0.1-0.1,0.2
		c0,0.1-0.1,0.2-0.2,0.3c0.1,0.2,0.2,0.5,0.2,0.9c0,0.3,0,0.6-0.1,1c0,0.3-0.1,0.6-0.2,0.9c-0.1,0.3-0.2,0.6-0.3,0.8
		c-0.1,0-0.2,0.1-0.3,0.1c-0.1,0-0.3,0-0.5,0s-0.3,0-0.5,0c-0.1,0-0.3,0-0.3,0c0,0-0.2,0-0.4,0s-0.4,0-0.6-0.1
		c-0.2,0-0.4-0.1-0.6-0.2c-0.2-0.1-0.3-0.2-0.3-0.4v-6.2c0-0.2,0.1-0.4,0.3-0.5c0.2-0.2,0.5-0.2,0.7-0.2h3.4V60.5z M389.8,64.6
		c0,0.2-0.1,0.3-0.2,0.4s-0.3,0.2-0.4,0.2c-0.2,0-0.4,0.1-0.7,0.1c-0.1,0-0.2,0-0.4-0.1c-0.2,0-0.3-0.1-0.5-0.1s-0.4-0.1-0.5-0.1
		s-0.3-0.1-0.4-0.1c-0.1,0-0.2,0-0.3,0.1s-0.3,0.1-0.5,0.1c-0.2,0-0.3,0.1-0.5,0.1c-0.2,0-0.3,0.1-0.3,0.1c-0.1,0-0.2,0-0.4-0.1
		c-0.2,0-0.4-0.1-0.5-0.1s-0.4-0.1-0.6-0.2c-0.1,0-0.2,0.1-0.4,0.2c-0.1,0.1-0.3,0.2-0.4,0.2h-3.1v17.2c0,0.1,0,0.3-0.1,0.6
		c-0.1,0.3-0.1,0.5-0.1,0.7c0,0-0.1,0.1-0.2,0.1s-0.1,0.1-0.1,0.2v0.6c0,0,0.1,0.1,0.2,0.1c0.1,0,0.1,0,0.2,0.1
		c0.2,0.3,0.3,0.6,0.3,0.8c0,0.1,0,0.3-0.1,0.4c-0.1,0.2-0.1,0.3-0.2,0.5c-0.2-0.1-0.3-0.2-0.4-0.4s-0.2-0.3-0.3-0.4V70.1
		c0-0.1-0.1-0.3-0.3-0.6s-0.4-0.5-0.6-0.8l-1.9,2v-5.6h-0.3c-0.2,0.2-0.3,0.5-0.2,0.8c0,0.3,0.1,0.6,0.1,0.8c0,0.3,0,0.6-0.1,0.9
		c-0.1,0.3-0.1,0.6-0.1,0.9c0,0.2,0,0.3,0.1,0.6c0,0.2,0.1,0.4,0.1,0.6s0.1,0.4,0.1,0.5c0,0.2,0.1,0.3,0.1,0.3
		c0,0.4-0.3,0.8-0.8,1.3l0.8,0.6c0,0.1,0,0.2-0.1,0.3c-0.1,0.1-0.1,0.1-0.2,0.2c-0.1,0-0.2,0.1-0.3,0.1c-0.1,0-0.2,0-0.3,0.1
		c0,0.1,0.1,0.3,0.3,0.4c0.2,0.1,0.3,0.3,0.5,0.4c0,0.1,0,0.2,0,0.3c0,0.1,0.1,0.3,0.2,0.4c0-0.2,0.1-0.5,0.1-0.7
		c0-0.2,0.1-0.5,0.2-0.8c0,0-0.1-0.1-0.1-0.2c0-0.1-0.1-0.1-0.2-0.2l1.8,1.1v8l-3.1,3.9c-0.8-0.5-1.6-0.8-2.5-1.1
		c-0.9-0.3-1.8-0.4-2.6-0.4V65.3h-4.7c-0.1,0-0.2,0-0.4-0.1c-0.1-0.1-0.3-0.2-0.4-0.2v-2.3c0.2,0.2,0.3,0.3,0.4,0.3
		c0.1,0,0.3,0.1,0.4,0.1l10.7,0.1c0,0.1-0.1,0.2-0.1,0.3c-0.1,0.1,0,0.2,0.2,0.3c0.1-0.2,0.2-0.3,0.2-0.4c0-0.1,0-0.2,0-0.2h0.1
		l8.4,0.2c0.1,0,0.2,0,0.3-0.1c0.1,0,0.2-0.1,0.4-0.2s0.3-0.1,0.4-0.2c0.1-0.1,0.2-0.2,0.2-0.3c0-0.1,0-0.4,0-0.7c0-0.3,0-0.5,0-0.7
		v-3.6h3.2c0.1,0,0.3,0,0.4,0.1c0.2,0.1,0.3,0.2,0.4,0.3c0,0.2,0.1,0.4,0,0.6c0,0.2-0.1,0.4-0.1,0.6c0,0.2,0,0.3,0.1,0.5
		c0.1,0.2,0.1,0.3,0.1,0.5V64.6z M384.9,62.5h-6c-0.1,0-0.3,0-0.7-0.1c-0.3-0.1-0.5-0.1-0.7-0.1h-12.6c0,0-0.1-0.1-0.2-0.2
		c-0.1-0.1-0.1-0.2-0.1-0.3c0-0.1,0-0.2,0.1-0.2s0.1-0.1,0.1-0.1c0-0.2,0-0.4,0-0.6c0-0.2,0-0.4,0-0.7c0-0.2,0-0.4,0-0.6
		c0-0.2,0-0.3,0-0.4v-1.5c0-0.2,0-0.3,0-0.3c0-0.1,0-0.1,0.1-0.1c0.1,0,0.2,0,0.3,0c0.1,0,0.3,0,0.6,0h19V62.5z M368,59.5
		c0-0.2-0.1-0.4-0.2-0.6s-0.4-0.3-0.8-0.3c-0.2,0-0.5,0.1-0.7,0.2c-0.2,0.2-0.4,0.4-0.4,0.7c0,0.2,0.1,0.4,0.2,0.6
		c0.1,0.2,0.4,0.4,0.9,0.4c0.2,0,0.5-0.1,0.7-0.2C367.9,60.2,368,59.9,368,59.5z M375.8,87.8h-5.4c-0.1,0-0.3-0.1-0.5-0.3
		s-0.3-0.3-0.3-0.5V85h1c0.3,0,0.7,0.1,1.3,0.3c0.5,0.2,1.1,0.4,1.6,0.7c0.5,0.3,1,0.6,1.5,0.9C375.3,87.2,375.6,87.5,375.8,87.8z
		 M371.8,60.8c0-0.2-0.1-0.5-0.3-0.7c-0.2-0.2-0.4-0.3-0.8-0.3c-0.3,0-0.6,0.1-0.8,0.3c-0.2,0.2-0.3,0.4-0.3,0.7
		c0,0.2,0.1,0.4,0.2,0.7s0.4,0.4,0.8,0.4c0.2,0,0.4-0.1,0.7-0.2C371.7,61.5,371.8,61.2,371.8,60.8z M375.9,60.8
		c0-0.2-0.1-0.5-0.3-0.7c-0.2-0.2-0.5-0.3-0.8-0.3c-0.3,0-0.5,0.1-0.8,0.4c-0.2,0.2-0.3,0.5-0.3,0.7c0,0.3,0.1,0.5,0.3,0.7
		c0.2,0.2,0.5,0.3,0.8,0.3c0.3,0,0.6-0.1,0.8-0.3C375.8,61.3,375.9,61.1,375.9,60.8z M375.9,65v-0.8h-0.2V65H375.9z M379.4,87.4
		c-0.1,0.2-0.3,0.3-0.5,0.2c-0.2,0-0.4,0-0.5,0.1c0,0-0.1,0.1-0.2,0.1c-0.1,0-0.2,0-0.3,0h-1.1l1.7-1.7c0,0.2,0,0.3,0.1,0.5
		c0,0.2,0.1,0.3,0.1,0.5c0.1,0,0.3,0.1,0.4,0.1C379.2,87.2,379.3,87.3,379.4,87.4z M379.8,60.9c0-0.2-0.1-0.5-0.2-0.7
		c-0.1-0.2-0.4-0.3-0.8-0.3c-0.4,0-0.6,0.1-0.8,0.3c-0.2,0.2-0.2,0.5-0.2,0.7c0,0.2,0.1,0.5,0.2,0.7c0.2,0.2,0.4,0.3,0.8,0.3
		c0.2,0,0.5-0.1,0.7-0.3C379.7,61.5,379.8,61.2,379.8,60.9z M383.9,59.5c0-0.2-0.1-0.5-0.3-0.7c-0.2-0.2-0.5-0.3-0.8-0.3
		c-0.2,0-0.5,0.1-0.7,0.4c-0.2,0.2-0.4,0.5-0.4,0.7c0,0.2,0.1,0.4,0.3,0.6c0.2,0.2,0.5,0.3,0.8,0.3c0.2,0,0.4-0.1,0.7-0.2
		C383.8,60.2,383.9,59.9,383.9,59.5z M384.8,64.3l-0.2-0.2c0,0,0,0.1,0.1,0.2C384.7,64.4,384.7,64.4,384.8,64.3z"/>
	<path class="st3" d="M401.7,87.4h-7.1c-0.1,0-0.3-0.1-0.5-0.3c-0.2-0.2-0.3-0.4-0.3-0.5v-23c0-0.1,0.1-0.3,0.3-0.5s0.3-0.4,0.3-0.5
		c0-0.1,0-0.2-0.1-0.2c0,0-0.1-0.1-0.1-0.1c0-0.1,0-0.2-0.1-0.4c0-0.1-0.1-0.2-0.1-0.4c-0.1-0.2-0.1-0.6-0.1-0.9c0-0.4,0-0.6,0-0.7
		c0-0.2,0-0.5,0-0.7c0-0.2,0.1-0.5,0.1-0.7c0.1-0.2,0.2-0.4,0.4-0.5c0.2-0.1,0.5-0.2,0.8-0.2h3.1c0.1,0,0.2,0,0.3,0.1
		c0.1,0.1,0.1,0.1,0.2,0.1s0.2,0,0.3,0c0.1,0,0.2-0.1,0.3-0.3v3.6c-0.2,0.2-0.4,0.3-0.6,0.5c-0.2,0.2-0.4,0.4-0.6,0.6v2.2
		c-0.4,0-0.7,0.1-1.1,0.3c-0.4,0.2-0.7,0.4-1,0.6s-0.5,0.6-0.7,0.9c-0.2,0.3-0.3,0.7-0.3,1.1c0,0.4,0.1,0.9,0.4,1.4
		c0.3,0.5,0.8,0.9,1.4,1.2c-0.6,0.3-1.1,0.7-1.4,1.3c-0.3,0.6-0.4,1-0.4,1.4c0,0.4,0.1,0.8,0.4,1.3s0.8,1,1.4,1.3
		c-0.6,0.2-1.1,0.6-1.4,1.2c-0.3,0.5-0.4,1-0.4,1.5c0,0.3,0.1,0.6,0.3,0.9c0.2,0.3,0.4,0.7,0.7,0.9c0.3,0.3,0.6,0.5,1,0.7
		c0.4,0.2,0.7,0.2,1.2,0.2V83c0.2,0.2,0.4,0.4,0.6,0.6c0.2,0.2,0.4,0.4,0.6,0.5v2.4c0.2,0.1,0.4,0.1,0.6,0.1c0.2,0,0.4,0,0.6,0
		c0.2,0,0.4,0,0.6,0.1C401.4,86.9,401.6,87.1,401.7,87.4z M396,70.4c-0.6-0.6-1-1.1-1.1-1.6c-0.1-0.4-0.2-0.8-0.2-1.2
		c0-0.2,0-0.4,0-0.6c0-0.2,0.1-0.4,0.1-0.6s0.2-0.4,0.4-0.7c0.2-0.2,0.4-0.6,0.8-0.9c-0.6,0.5-1,0.9-1.2,1.4
		c-0.2,0.5-0.3,0.9-0.3,1.4c0,0.4,0.1,0.9,0.4,1.4C395.1,69.6,395.5,70,396,70.4z M423.4,72.3c0,0.1,0,0.2,0,0.5
		c0,0.2,0,0.5-0.1,0.8c0,0.3-0.1,0.6-0.1,1c0,0.3-0.1,0.6-0.1,0.8c-0.2,0.2-0.4,0.3-0.6,0.4c-0.2,0.1-0.3,0.2-0.4,0.2
		c-0.1,0.1-0.2,0.2-0.3,0.3c-0.1,0.1-0.1,0.3-0.1,0.6c0,0.1,0,0.2,0,0.2c0,0,0,0,0.1,0c0,0,0.1-0.1,0.2-0.1c0.1,0,0.1,0,0.2,0
		l-1,2.8l0.4,1.2c-0.4,0.7-0.8,1.4-1.4,2.2c-0.6,0.8-1.3,1.5-2.1,2.2l-1.2-0.7c-0.4,0.3-0.8,0.5-1.3,0.8s-0.9,0.5-1.3,0.7
		c-0.1,0.2-0.2,0.5-0.3,0.8c-0.1,0.3-0.2,0.6-0.2,0.8l-2.4,0.3c-0.3,0-0.7,0-1.1,0c-0.4-0.1-0.7-0.1-1.1-0.2c-0.1,0-0.2-0.1-0.3-0.2
		s-0.2-0.2-0.3-0.3c0,0-0.1,0-0.1,0c0,0-0.1,0-0.3,0l-4.3,0.2c-0.6,0-1.1,0-1.5-0.1c-0.5-0.1-0.9-0.3-1.3-0.8
		c-0.2,0-0.5-0.1-0.7-0.1c-0.3,0-0.5,0-0.7,0v-2.4c-0.2-0.2-0.4-0.3-0.6-0.5s-0.4-0.3-0.6-0.5v-2.2c0.4,0,0.8-0.1,1.2-0.3
		s0.9-0.5,1.4-1v1.7c0,0,0,0,0,0c0,0,0.1,0,0.1,0l0.5-1.8c-0.2-0.5-0.3-0.9-0.4-1.4c-0.1-0.5-0.3-1-0.6-1.7c0-0.2-0.2-0.3-0.5-0.4
		c-0.3-0.1-0.6-0.3-0.8-0.4c0-0.1,0-0.2,0-0.3c0-0.1-0.1-0.2-0.2-0.2c-0.1,0-0.3,0-0.4,0.1c-0.1,0-0.3,0.1-0.4,0.1
		c-0.7,0-1.4-0.2-1.9-0.7c-0.5-0.5-0.7-1-0.7-1.7c0-0.7,0.3-1.3,0.8-1.7c0.5-0.4,1.1-0.6,1.8-0.6c0.1,0,0.3,0,0.4,0
		c0.2,0,0.3,0,0.4,0.1c0-0.1,0.1-0.2,0.1-0.3c0-0.1,0-0.2,0.1-0.3c-0.2,0-0.3,0-0.5,0c-0.2,0-0.3,0-0.5,0c-0.8,0-1.5-0.2-1.9-0.7
		s-0.7-1-0.7-1.7c0-0.7,0.3-1.2,0.8-1.7c0.5-0.4,1.1-0.7,1.8-0.7c0.5,0,1,0.2,1.5,0.5c0.5,0.3,0.9,0.9,1.2,1.8l0.6-1.9
		c-0.1-0.5-0.2-1-0.5-1.6v2.1c-0.3-0.4-0.7-0.7-1.2-1c-0.5-0.3-0.9-0.4-1.3-0.3l-0.1-2.2c0.1-0.2,0.3-0.4,0.5-0.6
		c0.3-0.2,0.5-0.4,0.7-0.6l0.2-2.9v1.5h1.1v-2.3h3.2l4.3,0.4c0.1-0.1,0.2-0.2,0.2-0.4c0-0.2,0.1-0.3,0.1-0.5l2.4-0.3
		c0.4,0,0.8,0,1.2,0.1c0.4,0.1,0.8,0.1,1.1,0.3c0.1,0.2,0.2,0.5,0.3,0.8c0.1,0.3,0.2,0.5,0.3,0.8c0.3,0.1,0.7,0.3,1.1,0.5
		c0.4,0.2,0.8,0.5,1.3,0.8c0.4-0.2,0.8-0.4,1.3-0.7c0.4,0.2,0.7,0.5,1,0.9c0.3,0.3,0.7,0.7,1,1.1c0.3,0.4,0.6,0.8,0.8,1.2
		c0.3,0.4,0.5,0.8,0.7,1.1l-0.4,1.3c0.3,0.6,0.6,1.2,0.9,1.9c0.3,0.7,0.5,1.3,0.6,1.9c0.1,0,0.2,0.1,0.4,0.2s0.2,0.2,0.3,0.2
		c0,0.2,0.1,0.5,0.1,0.8c0,0.3,0.1,0.6,0.1,0.9c0,0.3,0.1,0.6,0.1,0.8C423.4,72.1,423.4,72.3,423.4,72.3z M400.9,78.1
		c0,0.4-0.1,0.7-0.3,1c-0.2,0.3-0.4,0.6-0.6,0.8s-0.5,0.4-0.8,0.5c-0.3,0.1-0.6,0.2-0.9,0.2c-0.4,0-0.8-0.1-1.1-0.2
		c-0.3-0.2-0.6-0.4-0.8-0.6c-0.2-0.2-0.4-0.5-0.5-0.8c-0.1-0.3-0.2-0.6-0.2-0.8c0-0.8,0.3-1.4,0.9-1.8s1.3-0.6,2-0.6
		c0.4,0,0.7,0.1,1,0.3s0.5,0.4,0.7,0.6s0.3,0.5,0.5,0.8C400.8,77.6,400.9,77.9,400.9,78.1z M397.3,63.6v-1l-1.3,0.7v1.4
		c0.3-0.2,0.5-0.4,0.7-0.6C396.9,63.8,397.1,63.7,397.3,63.6z M399.4,62.6v-0.7l-0.6,0.6c0.1,0,0.2,0,0.3,0
		C399.3,62.5,399.4,62.5,399.4,62.6z M399.5,83.2l-0.6-1.5v1.1c0.1,0.1,0.2,0.2,0.4,0.3S399.4,83.2,399.5,83.2z M400.3,86.1v-1.3
		h-0.2v1.3H400.3z M415.6,72.5c0-1.3-0.2-2.5-0.6-3.6c-0.4-1.1-1-2-1.8-2.8c-0.8-0.8-1.8-1.4-3-1.8c-1.2-0.4-2.5-0.6-4-0.6H403
		l-0.9,1.9c0,0,0,0.1,0.1,0.2c0.1,0.1,0.1,0.2,0.1,0.3v1.8c0,0.1,0,0.2,0.1,0.2c0,0,0.1,0,0.1,0v2.5c0,0.1-0.1,0.2-0.2,0.4
		s-0.1,0.2-0.1,0.3c-0.1,0.1-0.2,0.2-0.4,0.3c-0.1,0.2-0.3,0.2-0.5,0.1l0.4-1.2V69c0-0.1,0-0.2,0.1-0.2c0,0,0.1,0,0.1,0
		c0,0-0.1-0.1-0.1,0c0,0-0.1,0-0.1-0.2v-2.1l-1.1,3.7c0,0.1,0.1,0.2,0.1,0.3c0,0.1,0.1,0.2,0.1,0.3c0,0.1,0.1,0.2,0.1,0.3
		c0,0.1,0,0.2-0.1,0.3c-0.1-0.1-0.2-0.2-0.2-0.3c0,0.4,0,0.7,0.1,1c0.1,0.3,0.1,0.7,0,1c0,0.2-0.1,0.4-0.1,0.7s-0.1,0.5-0.1,0.7
		c0,0,0.1,0,0.1,0c0,0,0,0,0,0c0,1.1,0.3,2.3,0.6,3.5s0.9,2.3,1.7,3.3h4.1l2-0.3c0.1,0,0.3,0.1,0.4,0.2c0.1,0.1,0.3,0.2,0.4,0.2
		c0,0,0-0.1,0-0.2c0-0.1,0-0.2,0-0.3c0,0,0.1-0.1,0.2-0.2s0.1-0.1,0.2-0.2c0.5-0.1,0.9-0.4,1.4-0.7c0.5-0.3,0.9-0.7,1.4-1.1
		s0.8-0.9,1.1-1.3s0.5-0.9,0.6-1.2c0.2-0.7,0.4-1.4,0.5-2C415.5,73.7,415.6,73.1,415.6,72.5z M402,71.2l-0.1-0.1l-0.3,0.1v0.1
		L402,71.2z M402.4,73.2c0,0.2-0.1,0.3-0.3,0.5s-0.2,0.4-0.1,0.6c0-0.1,0-0.2-0.1-0.3c-0.1-0.1-0.1-0.2-0.1-0.3
		c0-0.1,0.1-0.2,0.2-0.3c0.1-0.1,0.2-0.2,0.2-0.2l0.1,0.1C402.3,73.2,402.3,73.2,402.4,73.2z M402.1,72.2h-0.2v-0.3h0.2V72.2z
		 M402.1,72.9h-0.2v-0.4h0.2V72.9z M402.2,75.7c-0.1-0.2-0.2-0.3-0.2-0.5c0-0.2,0-0.3,0-0.4c0,0.1,0,0.2,0.1,0.4
		C402.2,75.4,402.2,75.5,402.2,75.7z M402.3,77h-0.2v-0.5h0.2V77z M409.1,60.6c0-0.1,0-0.3-0.1-0.5c-0.1-0.2-0.2-0.3-0.3-0.5
		l-0.5,0.4c0,0.2,0,0.3-0.1,0.5c0,0.2-0.1,0.4-0.1,0.5c0,0.1,0,0.4,0.1,0.8s0.1,0.7,0.1,0.9l0.3,0.1L409.1,60.6z M408.6,61.1h-0.2
		v-0.7h0.2V61.1z M410.4,60.4l-0.4-0.7c-0.1,0.1-0.2,0.2-0.3,0.3c-0.1,0.1-0.2,0.3-0.3,0.4s-0.1,0.3-0.2,0.5c0,0.1-0.1,0.2-0.1,0.3
		V63h0.4c0-0.4,0.2-0.9,0.3-1.3C410.1,61.2,410.3,60.8,410.4,60.4z M409.9,61.1h-0.2v-0.9h0.2V61.1z M411.7,60.6
		c0-0.1-0.1-0.2-0.2-0.3s-0.1-0.2-0.2-0.3c-0.2,0.1-0.4,0.2-0.5,0.4c-0.1,0.1-0.2,0.3-0.2,0.5c0,0.2-0.1,0.3-0.1,0.5
		c0,0.1-0.1,0.3-0.1,0.4c0,0.1,0.1,0.2,0.1,0.4c0,0.1,0,0.3-0.1,0.4c0,0.1-0.1,0.3-0.1,0.4s-0.1,0.2-0.1,0.2c0,0.1,0.1,0.2,0.2,0.2
		c0.1,0,0.2,0,0.3,0L411.7,60.6z M411.3,60.5l-0.3,0.9l-0.2-0.1l0.4-0.8H411.3z M412.9,61c0-0.1,0-0.2-0.1-0.3
		c-0.1-0.1-0.1-0.3-0.2-0.4c-0.1,0.1-0.2,0.2-0.3,0.3c-0.1,0.1-0.2,0.1-0.3,0.2c-0.2,0.4-0.3,0.9-0.4,1.4c-0.1,0.5-0.2,0.9-0.4,1.2
		c0.1,0,0.1,0,0.2,0.1l0.1,0.1L412.9,61z M412.5,60.9l-0.5,0.9c0-0.2,0-0.4,0.1-0.5C412.3,61.1,412.4,60.9,412.5,60.9z M414.1,61.4
		c0-0.1,0-0.2-0.1-0.3c0-0.1-0.1-0.2-0.1-0.3c-0.5,0.2-0.9,0.5-1,0.9c-0.2,0.4-0.3,0.7-0.3,1c0,0.2-0.1,0.4-0.2,0.5
		c-0.1,0.2-0.2,0.3-0.3,0.5c0,0,0.1,0.1,0.1,0.1s0.1,0,0.1,0c0,0,0,0,0.1,0c0.1-0.2,0.2-0.3,0.4-0.5s0.2-0.4,0.4-0.5
		c0-0.1,0.1-0.1,0.3-0.2s0.2-0.1,0.2-0.1c0.1-0.2,0.2-0.3,0.3-0.6C414,61.7,414.1,61.5,414.1,61.4z M415.1,62.2l-0.1-0.8
		c-0.3,0-0.6,0.2-0.9,0.5c-0.3,0.4-0.4,0.7-0.4,1c-0.1,0.2-0.2,0.3-0.3,0.5c-0.1,0.2-0.3,0.4-0.4,0.5l0.3,0.3L415.1,62.2z
		 M413.7,61.4l-0.6,0.8c0.1-0.1,0.1-0.3,0.2-0.4s0.1-0.3,0.3-0.4L413.7,61.4z M414.1,85.4c-0.2-0.1-0.3-0.2-0.5-0.4
		s-0.3-0.2-0.4-0.2c0,0.1,0.1,0.2,0.2,0.4c0.1,0.1,0.2,0.3,0.3,0.4c0,0,0.1,0,0.2-0.1C413.9,85.5,414,85.5,414.1,85.4z M421.8,73.2
		c-0.1,0.2-0.3,0.3-0.4,0.5c-0.1,0.2-0.3,0.4-0.4,0.5c-0.1,0.2-0.3,0.3-0.4,0.4c-0.1,0.1-0.2,0.2-0.3,0.2c-0.1,0-0.2,0-0.1,0
		c0,0,0-0.1-0.1-0.1c-0.1,0-0.2,0-0.3,0.1s-0.1,0.2-0.2,0.3c0,0-0.1-0.1-0.1-0.1v0l0.4-1.9v-1.9c0-0.4-0.1-0.9-0.3-1.6
		c-0.2-0.6-0.5-1.3-0.8-2c-0.3-0.7-0.7-1.3-1.1-1.9c-0.4-0.6-0.8-1.1-1.1-1.4c0.2-0.1,0.3-0.2,0.4-0.3c0.1-0.1,0.1-0.2,0.1-0.3
		c0-0.1,0-0.2,0.1-0.3c0-0.1,0-0.2,0.1-0.3h-0.8l-1.9,2.2c0,0,0.1,0.1,0.2,0.2s0.2,0.1,0.2,0.1l1-0.9c0,0,0.1,0,0,0.1
		c0,0,0,0.1,0.1,0.1c0.1,0,0.2,0,0.2-0.1c0,0,0-0.1,0.1-0.1c0.6,0.6,1.1,1.2,1.5,1.9c0.4,0.7,0.8,1.4,1,2.1c0.3,0.7,0.5,1.4,0.6,2
		c0.1,0.7,0.2,1.2,0.2,1.7c0,0.1,0,0.2,0,0.5c0,0.2-0.1,0.5-0.1,0.8c0,0.3-0.1,0.6-0.2,0.9c-0.1,0.3-0.1,0.5-0.2,0.7
		c0,0-0.1,0.1-0.2,0.2s-0.1,0.1-0.2,0.1c-0.3-0.2-0.5-0.3-0.8-0.3c-0.3-0.1-0.5-0.1-0.7-0.2c0.2,0.1,0.5,0.2,0.7,0.3
		c0.3,0.1,0.5,0.1,0.7,0.3c-0.4,0.1-0.7,0.1-1,0c-0.2-0.1-0.4-0.2-0.6-0.2l1.1,0.4l-0.2,0.1c-0.2,0-0.3-0.1-0.5-0.1
		s-0.3-0.1-0.5-0.1c0.1,0,0.2,0.1,0.4,0.2c0.1,0.1,0.3,0.1,0.4,0.2c-0.2,0-0.3,0.1-0.5,0c-0.1,0-0.3-0.1-0.4-0.1
		c0.1,0.1,0.2,0.1,0.3,0.2s0.2,0.1,0.3,0.2c-0.1,0-0.3,0-0.4,0c-0.1,0-0.3-0.1-0.4-0.1c0.1,0.1,0.3,0.2,0.6,0.3
		c0.3,0.1,0.4,0.2,0.5,0.5l-1.2-0.5c0,0,0,0.1,0.1,0.2c0.1,0.1,0.1,0.1,0,0.2h-0.3c0,0.1,0,0.2,0,0.3c-0.1,0.1-0.1,0.1-0.1,0.2
		c0.2,0.1,0.4,0.2,0.6,0.3c0.2,0.1,0.5,0.2,0.7,0.3c0,0-0.1-0.1-0.3-0.2c-0.1-0.1-0.3-0.2-0.4-0.3c0,0,0.1-0.1,0.1-0.1h0
		c0.1,0,0.2,0.1,0.3,0.1s0.2,0.1,0.3,0.2v0.6c-0.2,0.4-0.5,0.8-0.9,1.2c-0.4,0.4-0.8,0.8-1.3,1.2c-0.4,0.4-0.9,0.7-1.3,0.9
		c-0.4,0.2-0.8,0.4-1,0.3c0,0-0.1,0.1-0.1,0.2s0,0.2,0.1,0.2c0.3-0.2,0.7-0.4,1.2-0.7c0.5-0.3,0.9-0.6,1.3-1
		c0.4-0.4,0.9-0.8,1.3-1.2c0.4-0.4,0.7-0.9,0.9-1.3c0.1-0.1,0.2-0.3,0.4-0.5c0.2-0.2,0.4-0.3,0.5-0.3c0.1,0,0.2,0,0.2,0.1
		c0,0,0,0.1,0.1,0.1c0.1,0,0.3-0.1,0.6-0.3c0.2-0.2,0.4-0.3,0.6-0.3c0.1,0,0.2,0,0.3,0.1s0.2,0.1,0.3,0.1L421.8,73.2z M416.2,63
		v-0.8c-0.2,0-0.4,0.1-0.6,0.2c-0.2,0.1-0.4,0.2-0.5,0.4c-0.2,0.1-0.3,0.3-0.4,0.5c-0.1,0.2-0.1,0.3-0.1,0.4
		c-0.1,0.2-0.3,0.3-0.4,0.5c-0.2,0.2-0.3,0.4-0.4,0.5l0.3,0.2c0.2-0.2,0.4-0.4,0.6-0.6c0.2-0.2,0.5-0.4,0.7-0.6
		c0.2-0.2,0.4-0.3,0.6-0.5C416.1,63.1,416.2,63,416.2,63z M414.9,61.9l-0.5,0.8l-0.1-0.1l0.5-0.7L414.9,61.9z M416.2,65l-0.1-0.1
		l-1,0.9l0.1,0.1L416.2,65z M416,62.7l-0.6,0.8l-0.1-0.1l0.6-0.8L416,62.7z M416.5,65.3l-0.1-0.1l-1,0.9l0.1,0.1L416.5,65.3z
		 M416.8,65.5l-0.1-0.1l-1.2,0.9l0.1,0.1L416.8,65.5z M417,65.8l-0.1-0.1l-1.2,0.9l0.1,0.1L417,65.8z M417,61l-1-0.7
		c0.2,0.2,0.3,0.3,0.5,0.4C416.7,60.9,416.8,61,417,61z M417.2,66.1l-0.1-0.1l-1.1,0.8l0.1,0.1L417.2,66.1z M416.9,63.4
		c0,0.1-0.2,0.2-0.3,0.4s-0.3,0.3-0.4,0.4c0-0.1,0.1-0.2,0.2-0.4S416.7,63.5,416.9,63.4z M417.4,66.4l-0.1-0.1l-1.1,0.8l0.1,0.1
		L417.4,66.4z M417.6,66.6l-1.3,0.8c0.3-0.1,0.5-0.2,0.8-0.4C417.4,66.9,417.5,66.7,417.6,66.6z M417.9,67l-0.1-0.1l-1.2,0.8
		l0.1,0.1L417.9,67z M418,67.4l-0.1-0.1l-1.2,0.6l0.1,0.1L418,67.4z M418.2,67.7l-0.1-0.1l-1.2,0.6v0.1L418.2,67.7z M418.4,68
		l-0.1-0.1l-1.3,0.6v0.1L418.4,68z M418.4,68.4l-0.1-0.1l-1.1,0.5V69L418.4,68.4z M418.6,68.8l-0.1-0.1l-1.2,0.5v0.1L418.6,68.8z
		 M418.7,69.2l-0.1-0.1l-1.2,0.4v0.2L418.7,69.2z M418.8,69.5l-0.1-0.1l-1.3,0.4v0.2L418.8,69.5z M418,77.2c-0.1,0-0.2,0-0.4-0.1
		c-0.1-0.1-0.2-0.2-0.3-0.3L418,77.2z M418.9,69.9v-0.2l-1.4,0.3v0.2L418.9,69.9z M418.9,75l-0.1-0.3h-1.2c0.2,0,0.4,0,0.7,0.1
		C418.5,74.9,418.7,75,418.9,75z M419,70.1l-1.4,0.3c0.2,0,0.5,0,0.7-0.1C418.6,70.3,418.9,70.2,419,70.1z M419.2,70.6h-1.5v0.3
		L419.2,70.6z M419.1,74.3v-0.2l-1.5-0.3V74L419.1,74.3z M419,74.8v-0.2l-1.4-0.3v0.2L419,74.8z M419.1,71.1v-0.2h-1.4v0.2H419.1z
		 M419.2,71.4l-0.4-0.3c-0.2,0-0.4,0.1-0.6,0.1c-0.2,0-0.4,0.1-0.6,0.1c0.4,0,0.8-0.1,1-0.1C418.9,71.4,419.1,71.4,419.2,71.4z
		 M419.2,71.8v-0.2h-1.5v0.2H419.2z M419.1,73.2v-0.2l-1.4-0.1v0.2L419.1,73.2z M419.2,73.3c-0.3,0.1-0.8,0.1-1.5,0
		c0.2,0,0.4,0.1,0.6,0.1c0.2,0,0.4,0.1,0.6,0.1L419.2,73.3z M419.1,73.8v-0.2h-1.4v0.2H419.1z M418.3,72.1V72h-0.4v0.2H418.3z
		 M419.2,72.5v-0.2l-1.4-0.1v0.2L419.2,72.5z M419.2,72.9v-0.2l-1.4-0.2v0.2L419.2,72.9z M418.7,79.7c0,0-0.1,0.1-0.2,0.2
		c-0.1,0.1-0.1,0.2-0.1,0.2c0.1-0.1,0.2-0.1,0.2-0.2S418.7,79.7,418.7,79.7z M418.8,76c0,0.1,0.1,0.2,0,0.4c0,0.2-0.1,0.3-0.1,0.5
		c0,0-0.1,0-0.2,0c-0.1,0-0.1-0.1-0.1-0.2C418.4,76.5,418.5,76.3,418.8,76z M419.3,76.4l-0.4,0.6l-0.2-0.1l0.4-0.5L419.3,76.4z
		 M421.3,75.5c0,0,0,0.1-0.1,0.2c-0.1,0.1-0.2,0.2-0.3,0.3c-0.1,0.1-0.2,0.2-0.3,0.3c-0.1,0.1-0.2,0.1-0.3,0.2
		c-0.1,0-0.1-0.1-0.2-0.2c-0.1-0.1-0.1-0.2-0.1-0.3c0.2-0.2,0.4-0.3,0.6-0.4s0.4-0.2,0.6-0.3c0,0,0.1,0.1,0.1,0.1
		C421.3,75.3,421.3,75.4,421.3,75.5z M420.7,68.8c0,0-0.1-0.1-0.1-0.2c0-0.1,0-0.2,0-0.2h-0.4c0,0.1,0.1,0.2,0.2,0.3
		C420.6,68.7,420.7,68.7,420.7,68.8z"/>
	<path class="st3" d="M451.3,86.3c0,0.1,0,0.2-0.1,0.4c-0.1,0.2-0.2,0.3-0.3,0.4l-1-0.1c-0.1,0-0.4,0-0.6,0.1
		c-0.3,0.1-0.6,0.1-0.8,0.2l-7.5-0.1c-0.1,0-0.3,0-0.5-0.2c-0.2-0.2-0.4-0.3-0.5-0.5c0.1-0.2,0.2-0.4,0.3-0.7
		c0.1-0.3,0.1-0.5,0.1-0.6c0-0.1,0-0.3-0.1-0.5c-0.1-0.2-0.1-0.4-0.1-0.6v0c0,0,0-0.1-0.1-0.1c-0.1,0.4-0.3,0.9-0.5,1.3
		c-0.2,0.4-0.3,0.9-0.3,1.4c-0.1,0.1-0.2,0.2-0.4,0.3c-0.2,0.1-0.3,0.2-0.4,0.2h-5.4l-3.2-0.5c-0.2,0-0.4,0-0.5,0.1
		c-0.2,0.1-0.3,0.1-0.4,0.2c-0.1,0.1-0.3,0.2-0.4,0.2c-0.1,0.1-0.3,0.1-0.5,0.1c-0.1,0-0.2,0-0.4-0.1c-0.1-0.1-0.3-0.2-0.4-0.3
		c0-0.1,0-0.2,0.1-0.4s0.1-0.2,0.1-0.3c0-0.1-0.1-0.2-0.1-0.3c-0.1-0.1-0.1-0.2-0.1-0.3c0-0.2-0.1-0.4-0.1-0.7c0-0.3,0-0.5,0-0.6
		s0-0.3,0-0.5c0-0.2,0-0.4,0-0.6c0-0.2,0.1-0.4,0.1-0.6c0.1-0.2,0.2-0.3,0.3-0.4c0.3,0.1,0.7,0.1,1,0c0.3-0.1,0.7-0.2,1-0.2
		c0,0,0.1,0,0.3,0.1c0.2,0.1,0.3,0.1,0.5,0.2c0.2,0.1,0.4,0.1,0.5,0.2c0.2,0.1,0.3,0.1,0.4,0.1c0.1,0,0.3,0,0.5-0.1
		c0.2-0.1,0.5-0.2,0.7-0.3c-0.1-0.1-0.2-0.2-0.3-0.2s-0.3,0-0.4,0c-0.1,0-0.3,0-0.4,0c-0.1,0-0.3,0-0.4-0.1c0,0-0.1-0.1-0.2-0.2
		c-0.1-0.1-0.1-0.1-0.2-0.1l-1.3,0.2c-0.2-0.1-0.5-0.2-0.8-0.3c-0.3-0.1-0.6-0.1-0.9-0.2c-0.1-0.1-0.2-0.2-0.3-0.3
		c-0.1-0.2-0.1-0.3-0.1-0.4V68.2l0.4-8.1h12l0.9,1h5.4l1.3,1.8v0.7h-12.7l-0.4,1.2c0.1,0.1,0.1,0.2,0.2,0.4c0.1,0.1,0.1,0.3,0.1,0.5
		c0,0.6,0,1.2,0,1.8s0,1.2,0,1.8c0.3,0.2,0.6,0.2,1.1,0.2c0.5,0,0.9,0,1.3,0c0.1,0,0.2,0,0.4,0s0.2,0,0.3-0.1c0.2,0,0.4,0.1,0.5,0.1
		c0.2,0,0.3,0.1,0.5,0c0.2,0,0.5-0.1,0.8-0.1c0.3,0,0.5-0.1,0.6-0.1l2.2,0.2c0.1,0,0.2,0,0.4,0c0.2,0,0.5,0,0.8-0.1
		c0.3,0,0.5,0,0.8-0.1c0.2,0,0.4,0,0.4,0l3.2,0.2c0.1,0,0.2,0.1,0.3,0.2c0.1,0.1,0.2,0.2,0.3,0.3c0.1,0,0.1-0.1,0.1-0.2
		s0.1-0.2,0.1-0.3l0.5,1.7v3.4c0,0.1,0,0.2-0.1,0.3c-0.1,0.1-0.2,0.2-0.3,0.3h-4.9l-0.9-0.2c-0.1,0-0.2,0.1-0.3,0.2
		c-0.1,0.1-0.3,0.1-0.4,0.1h-7.7v6.5c-0.1,0.1-0.3,0.2-0.4,0.2c-0.1,0-0.3,0-0.4-0.1c-0.1,0-0.3,0-0.4,0c-0.1,0-0.3,0.1-0.5,0.3
		c0.1,0.1,0.2,0.2,0.3,0.2c0.1,0.1,0.2,0.1,0.4,0.1c0.1,0,0.2,0,0.3-0.1s0.2-0.1,0.3-0.1s0.3,0,0.6,0s0.5,0.1,0.7,0.1
		c0.1,0,0.2,0.1,0.3,0.2s0.2,0.2,0.3,0.3c0.2,0,0.5-0.1,0.8-0.1c0.3,0,0.5-0.1,0.6-0.1c0.2,0,0.4,0.1,0.5,0.2
		c0.1,0.1,0.2,0.3,0.3,0.5c0.1,0.2,0.1,0.4,0.1,0.6c0,0.2,0,0.4-0.1,0.5l0.1,0.6c0.2,0,0.3-0.1,0.3-0.3c0-0.2,0.1-0.4,0.1-0.5
		c0.1-0.4,0.3-0.8,0.6-1.1c0.1,0,0.2,0,0.4,0.1c0.2,0.1,0.3,0.2,0.3,0.3h0.4l0.2-0.2V83c0,0-0.1-0.1-0.2-0.2
		c-0.1-0.1-0.2-0.1-0.3-0.1c-0.1,0-0.2,0-0.2,0.1c0,0,0,0.1-0.1,0.1l-0.8-0.4v-0.4c0.2,0,0.4-0.1,0.6-0.2c0.2-0.1,0.4-0.2,0.6-0.2
		s0.4-0.1,0.5-0.2c0.2-0.1,0.3-0.1,0.3-0.1c0.1,0,0.3,0,0.6,0.1s0.4,0.1,0.6,0.1l4.9-0.1l1.2,0.2c-0.1,0.3-0.1,0.7,0,1.1h0.3
		c0.1-0.2,0.3-0.4,0.5-0.5c0.3,0.2,0.5,0.4,0.8,0.6c0.2,0.3,0.5,0.5,0.7,0.6c0,0-0.1,0.1-0.2,0.2c-0.1,0.1-0.1,0.2-0.2,0.2
		c-0.1,0-0.3,0-0.4,0.1c-0.2,0-0.3,0.1-0.4,0.1c-0.1,0-0.2,0-0.3-0.1c-0.1-0.1-0.3-0.2-0.5-0.2c-0.2-0.1-0.3-0.2-0.4-0.2
		c-0.1-0.1-0.2-0.1-0.3-0.1c-0.1,0-0.3,0.1-0.4,0.2c-0.1,0.1-0.3,0.2-0.4,0.2c-0.1,0-0.3,0-0.5-0.1s-0.4-0.2-0.6-0.4
		c-0.1,0-0.2,0.1-0.4,0.2c-0.1,0.1-0.2,0.2-0.4,0.2c-0.1,0-0.3,0-0.5-0.1c-0.2-0.1-0.4-0.2-0.5-0.3c-0.2,0-0.4-0.1-0.6-0.1
		c-0.2,0-0.4-0.1-0.5-0.1l-1.8,0.1c0.1,0.1,0.3,0.2,0.6,0.4c0.2,0.2,0.4,0.3,0.6,0.5h0.3l0.3-0.3V84c0.2,0,0.5,0.1,0.8,0.1
		c0.4,0,0.7,0,0.9-0.1c0.2,0.1,0.5,0.2,0.8,0.3c0.3,0.1,0.6,0.2,0.7,0.2c0.1,0,0.2,0,0.3,0c0.1,0,0.2-0.1,0.3-0.1
		c0.2,0,0.4,0,0.5,0.1c0.1,0.1,0.3,0.2,0.4,0.2c0.1,0.1,0.2,0.2,0.3,0.2s0.2,0.1,0.3,0.1c0.1,0,0.2,0,0.3-0.1
		c0.1-0.1,0.1-0.1,0.2-0.2c0.1-0.1,0.2-0.1,0.3-0.1c0.1,0,0.3,0,0.4,0c0.2,0,0.5,0.1,0.6,0.2c0.2,0.1,0.4,0.3,0.5,0.5
		c0.1,0.2,0.3,0.4,0.3,0.5C451.2,86.1,451.3,86.2,451.3,86.3z M451.1,61.9c0,0.1,0,0.2,0,0.4s0,0.4-0.1,0.6c0,0.2-0.1,0.4-0.2,0.5
		c-0.1,0.1-0.3,0.2-0.5,0.2H448v-3.7h-1.7c-0.1-0.2-0.3-0.3-0.4-0.5s-0.3-0.3-0.5-0.5h-11.8c-0.1,0.1-0.3,0.3-0.4,0.4
		c-0.1,0.2-0.3,0.3-0.5,0.5h-5.4c0-0.2,0.1-0.4,0-0.6c0-0.2,0-0.4,0-0.6c0-0.3,0.1-0.4,0.3-0.6c0.2-0.1,0.4-0.2,0.6-0.3
		c0.2-0.1,0.5-0.1,0.7-0.1c0.3,0,0.4,0,0.6,0c0.1,0,0.2,0,0.3,0.1c0.2,0,0.3,0,0.5,0.1c0.2,0,0.3,0,0.5,0.1c0.2,0,0.3,0,0.3,0
		c0.1,0,0.2,0,0.4,0c0.2,0,0.3,0,0.5-0.1c0.2,0,0.4,0,0.5-0.1c0.2,0,0.3,0,0.4,0l11.8,0.2c0.1,0,0.3,0,0.6-0.1s0.5-0.1,0.6-0.1
		c0.1,0,0.3,0,0.6,0.1c0.3,0.1,0.6,0.1,0.9,0.2l1.7-0.3c0.2,0.1,0.3,0.1,0.5,0.1s0.3,0,0.5,0s0.3,0,0.4,0.1c0.1,0.1,0.2,0.2,0.3,0.4
		v0.4l-0.3,0.2c0,0-0.1,0-0.2-0.1c-0.1,0-0.1-0.1-0.2-0.1h-0.4c0,0-0.1,0.1-0.1,0.1c0,0,0,0.1,0,0.1c0.2,0,0.3,0.1,0.5,0.2
		c0.2,0.1,0.4,0.2,0.5,0.3c0,0.2,0,0.4,0,0.7c0,0.3,0,0.5,0,0.8c0,0.2,0,0.5,0.1,0.7C451,61.7,451.1,61.9,451.1,61.9z M428.6,80
		v-0.5h-0.4l-0.1,0.5H428.6z M428.9,58.4c0,0-0.1,0-0.2,0.1c-0.1,0-0.2,0.1-0.2,0.1c0,0,0.1,0.1,0.2,0.1c0,0,0.1,0,0.1,0
		c0,0,0-0.1,0.1-0.1c0,0,0-0.1,0.1-0.1C428.9,58.5,428.9,58.4,428.9,58.4z M429.6,75.1c0,0.1-0.1,0.2-0.1,0.4c0,0.2,0,0.4,0,0.5
		c0.1,0,0.2-0.1,0.2-0.2c0-0.1,0-0.2,0-0.3s0-0.2,0-0.3C429.7,75.2,429.7,75.1,429.6,75.1z M430.4,84.7c0-0.1,0-0.2-0.1-0.3
		s-0.1-0.2-0.2-0.3c0,0-0.1,0.1-0.1,0.3c0,0.1-0.1,0.3-0.1,0.4H430.4z M431,64.5v-0.4h-0.8v0.6c0,0,0.1,0,0.2,0.1s0.1,0.1,0.2,0.1
		c0,0,0.1-0.1,0.2-0.2C430.8,64.6,430.9,64.6,431,64.5z M432.3,72v-0.6H431l-0.1,0.6H432.3z M432.3,66.6v-0.7h-1.4v0.7H432.3z
		 M432.3,67.5v-0.7h-1.4v0.7H432.3z M432.3,68.4v-0.7h-1.4v0.7H432.3z M432.3,69.2v-0.6h-1.4v0.6H432.3z M432.3,70.1v-0.6h-1.4v0.6
		H432.3z M432.3,71v-0.6h-1.4V71H432.3z M432.3,72.8v-0.7h-1.4v0.7H432.3z M432.3,73.7v-0.7h-1.4v0.7H432.3z M432.3,74.6V74h-1.4
		v0.7H432.3z M432.3,75.6v-0.7h-1.4v0.7H432.3z M432.3,76.5v-0.7h-1.4v0.7H432.3z M432.3,77.4v-0.7h-1.4v0.7H432.3z M432.3,78.3
		v-0.7h-1.4v0.7H432.3z M432.3,79.2v-0.7h-1.4v0.7H432.3z M432.3,80v-0.6h-1.4V80H432.3z M432.6,64.9h-0.4c0,0,0,0.1-0.1,0.2
		s-0.2,0.2-0.2,0.2v0.3c0.1,0,0.3-0.2,0.5-0.4S432.6,64.9,432.6,64.9z M433.5,63.2h-0.9c0.1,0.1,0.2,0.2,0.3,0.4
		c0.1,0.1,0.2,0.2,0.3,0.2c0-0.1,0-0.2,0.1-0.3C433.4,63.3,433.5,63.2,433.5,63.2z M433,80.1V65.9h-0.2v14.2H433z M434,70.5
		l-0.6-0.1v0.4c0,0,0.1,0,0.2,0.1s0.2,0.1,0.2,0.1c0,0,0.1-0.1,0.1-0.2C434,70.6,434,70.6,434,70.5z M434.1,71.5v-0.4l-0.2,0v0.4
		H434.1z M438.7,82.1c-0.2,0.1-0.3,0.2-0.5,0.3s-0.3,0.1-0.5,0.1c-0.4,0-0.9-0.1-1.3-0.2c-0.4-0.1-0.7-0.3-0.9-0.5
		c0,0,0.1-0.1,0.2-0.2c0.1-0.1,0.2-0.2,0.3-0.2h0.1l0.2,0c0.2,0,0.4,0,0.7,0c0.3-0.1,0.4-0.1,0.6-0.1s0.3,0,0.5,0.1
		c0.2,0.1,0.4,0.2,0.6,0.3V82.1z M436.5,71.7v-0.3h-0.4l-0.1,0.3H436.5z M439.1,70.3l-0.1-0.1l-0.1,0.3l0.1,0.1L439.1,70.3z
		 M439.9,71.8v-0.4h-0.5c0,0.1,0.1,0.2,0.3,0.3S439.9,71.8,439.9,71.8z M451.3,82.3c0,0.2-0.1,0.5-0.4,0.9c-0.2-0.2-0.4-0.4-0.7-0.7
		c-0.3-0.2-0.5-0.5-0.6-0.7c0,0,0.1-0.1,0.3-0.3c0.2-0.1,0.3-0.2,0.4-0.2c0.2,0,0.3,0,0.4,0.1c0.1,0.1,0.2,0.2,0.3,0.3
		c0.1,0.1,0.1,0.2,0.1,0.3C451.3,82.2,451.3,82.3,451.3,82.3z"/>
	<path class="st3" d="M466.9,76.3c0,0-0.1,0.1-0.2,0.2c-0.1,0.1-0.1,0.1-0.1,0.2c0,0-0.1-0.1-0.2-0.1c-0.1,0-0.2-0.1-0.3-0.1l-5,0.1
		c-0.1,0.1-0.2,0.2-0.2,0.4s0,0.3,0,0.4s0,0.3,0,0.4c0,0.1-0.1,0.2-0.3,0.2v1.5h0.9l0.2-0.1c0-0.1,0.1-0.2,0.1-0.3s0.1-0.3,0.1-0.4
		s0-0.3-0.1-0.4s-0.1-0.3-0.3-0.4v-0.7h4.5l-1.7,2.7c0,0.1,0.1,0.2,0.2,0.3c0.1,0.1,0.2,0.2,0.4,0.2c-0.2,0-0.4,0-0.5,0
		s-0.3-0.1-0.5-0.3h-1.5V81h1.7c0,0,0.1-0.1,0.1-0.1s0-0.1,0-0.1h2.2V86h-0.7c0,0,0-0.1,0-0.2c0-0.1,0-0.2,0-0.3s0-0.2-0.1-0.3
		c0-0.1-0.1-0.2-0.3-0.2h-2v-0.6h2c0.2-0.1,0.3-0.3,0.3-0.7c0-0.3,0-0.5,0-0.6c0-0.2,0-0.5,0-0.7c0-0.2-0.1-0.4-0.2-0.5
		c-0.2-0.1-0.4-0.1-0.6-0.1c-0.2,0-0.3,0-0.4,0c-0.1,0-0.2,0-0.2,0c-0.1,0-0.1-0.1-0.1-0.3h-1.7v1.1h1.7c0,0,0.1-0.1,0.1-0.1
		s0-0.1,0-0.1h0.9v1.6h-2c-0.2,0.2-0.3,0.3-0.3,0.4s0,0.3,0,0.4c0,0.1,0,0.2,0,0.4s0.1,0.3,0.2,0.4h2.1c-0.1,0.1-0.1,0.2-0.1,0.4
		s0,0.3,0.1,0.4s0.2,0.2,0.4,0.3c0.2,0.1,0.4,0.1,0.7,0c0,0.1-0.1,0.2-0.3,0.4c-0.1,0.1-0.3,0.2-0.4,0.2h-3.9v-2.4
		c0.1,0,0.3,0,0.3-0.1v-1.5h-1.2v1.5c0.1,0.1,0.2,0.1,0.3,0.1v2.4h-1.2v-2.4c0.1,0,0.3,0,0.3-0.1v-1.5h-1.2v1.5
		c0.1,0.1,0.2,0.1,0.3,0.1v2.4c-0.3,0-0.6-0.1-0.8-0.1c-0.2,0-0.3-0.1-0.4-0.1v-2.2c0.1,0,0.3,0,0.3-0.1v-1.5
		c-0.1,0-0.2-0.1-0.3-0.1c-0.1,0-0.2,0-0.3,0c-0.1,0-0.3,0-0.4,0c-0.1,0-0.2,0.1-0.3,0.2v1.3c0,0,0.1,0.1,0.2,0.2
		c0.1,0.1,0.2,0.1,0.2,0.2v1.9c-0.2,0-0.3,0.1-0.5,0.2c-0.2,0.1-0.4,0.1-0.7,0.2v-2.3c0.1,0,0.3,0,0.3-0.1v-1.5h-1.1v1.5
		c0.1,0.1,0.2,0.1,0.3,0.1v2.1c-0.3-0.2-0.5-0.4-0.8-0.5s-0.4-0.3-0.4-0.6v-3c0.2,0,0.3-0.1,0.4-0.2c0-0.2,0-0.4-0.1-0.6
		c-0.1-0.2-0.1-0.4-0.1-0.5c0-0.1,0-0.2,0.1-0.3c0.1-0.1,0.1-0.2,0.1-0.3c0.4-0.2,0.8-0.3,1.2-0.5c0.4-0.2,0.9-0.4,1.3-0.7
		c0.1,0,0.2,0,0.4,0c0.1,0,0.3,0,0.4,0c0.1-0.1,0.1-0.2,0.1-0.3c0-0.1,0-0.2,0-0.4c0-0.1,0-0.2,0.1-0.4s0.2-0.3,0.4-0.4v1.4h1.2
		v-1.6c0,0-0.1-0.1-0.1-0.1c0,0-0.1,0-0.1,0v-0.9l0.9-0.9h5.8L466.9,76.3z M486.4,83.2h-1.3l-0.8-1.2h-9c-0.1-0.5-0.3-0.9-0.4-1.4
		s-0.3-0.8-0.4-1.2c-0.2-0.4-0.4-0.8-0.6-1.1c-0.2-0.4-0.6-0.8-0.9-1.2l-0.1,0.2c0.8,0.9,1.4,1.9,1.8,2.9s0.5,2,0.5,3
		c0,0.6-0.1,1.2-0.2,1.9c-0.1,0.7-0.4,1.3-0.7,2H470c-0.3,0-0.5-0.1-0.6-0.4s-0.2-0.5-0.2-0.8c0-0.3,0-0.6,0-0.8c0-0.2,0-0.4,0-0.4
		c0-0.2,0-0.3,0-0.6c0-0.2,0-0.4,0-0.7c0-0.2,0.1-0.4,0.2-0.6c0.1-0.2,0.2-0.3,0.4-0.4l-0.5-1.2c0-0.2,0.2-0.4,0.4-0.5
		c0.2-0.1,0.4-0.3,0.7-0.4c0.3-0.1,0.5-0.2,0.8-0.3s0.5-0.2,0.7-0.3v-0.4l-0.8-0.9c0.2-0.1,0.6-0.4,1.1-0.7c0.5-0.3,1-0.7,1.5-1.1
		c0.5-0.4,1-0.8,1.4-1.1s0.6-0.6,0.6-0.7c0,0-0.1-0.2-0.3-0.4c-0.2-0.3-0.4-0.6-0.7-0.9c-0.3-0.4-0.6-0.7-0.9-1.1
		c-0.3-0.4-0.6-0.7-0.8-1c-0.6-0.7-1.2-1.5-2-2.5c-0.8-0.9-1.5-1.9-2.3-2.8c-0.3-0.3-0.5-0.7-0.8-1c-0.3-0.4-0.5-0.7-0.8-1
		c-0.3-0.3-0.5-0.6-0.8-0.9c-0.3-0.2-0.6-0.4-1-0.5l-5.4,3.3c-0.2-0.1-0.4-0.3-0.6-0.5s-0.4-0.4-0.7-0.5c-0.2-0.1-0.5-0.1-0.8-0.2
		c-0.4-0.1-0.8-0.2-1.2-0.3c-0.4-0.1-0.8-0.2-1.1-0.4c-0.3-0.1-0.5-0.3-0.5-0.5v-5.2c0-0.2,0.1-0.4,0.4-0.5s0.5-0.3,0.7-0.3h14
		c0.1,0,0.2,0,0.4,0.1c0.2,0,0.4,0.1,0.5,0.2s0.3,0.1,0.5,0.2c0.1,0.1,0.2,0.2,0.2,0.3v5.4c0,0.1-0.1,0.2-0.2,0.4
		c-0.1,0.1-0.3,0.2-0.4,0.3c-0.3,0.1-0.5,0.2-0.8,0.3c-0.3,0.1-0.6,0.2-0.8,0.4v0.3l3.7,3.9l3.3-3.9v-0.4c-0.1,0-0.2-0.1-0.4-0.2
		c-0.2-0.1-0.4-0.2-0.6-0.3s-0.4-0.3-0.6-0.4c-0.2-0.1-0.3-0.3-0.3-0.4v-5.2c0-0.2,0.1-0.4,0.4-0.5c0.2-0.2,0.4-0.3,0.6-0.3
		c0.1,0,0.3,0,0.6,0.1s0.5,0.1,0.6,0.1c0.1,0,0.3,0,0.5-0.1s0.4-0.1,0.5-0.1h7.7c0.1,0,0.3,0.1,0.5,0.3c0.2,0.2,0.3,0.3,0.3,0.5v5.3
		c0,0.1,0,0.2-0.1,0.4c-0.1,0.1-0.2,0.2-0.3,0.3c-0.4,0.2-0.7,0.3-1.2,0.4c-0.4,0.1-0.8,0.3-1.1,0.5c-0.7,0.5-1.3,1.1-1.9,1.8
		c-0.6,0.7-1.2,1.3-1.8,1.9c0,0-0.1,0.1-0.1,0.2c0,0.1-0.1,0.2-0.1,0.2c0,0.1-0.2,0.3-0.6,0.6s-0.7,0.7-1.1,1.1
		c-0.4,0.4-0.7,0.8-1,1.2c-0.3,0.4-0.5,0.6-0.5,0.7c0,0.1,0.1,0.3,0.4,0.7c0.3,0.3,0.6,0.8,1,1.2s0.9,1,1.3,1.5
		c0.5,0.6,1,1.1,1.4,1.6c0.5,0.5,0.9,0.9,1.2,1.3c0.4,0.4,0.6,0.6,0.8,0.7c0.2,0.1,0.5,0.2,0.8,0.3c0.4,0.1,0.8,0.2,1.2,0.3
		s0.8,0.2,1.1,0.3c0.3,0.1,0.5,0.3,0.5,0.5V83.2z M459.3,60.9L458,59h-1.5l1.1,1.9l-1.1,1.8h1.6L459.3,60.9z M461.9,60.9l-1.7-2.6
		h-2.1l1.4,2.6l-1.4,2.6h2.1L461.9,60.9z M474.7,74.8l-5,3.6l-9.3-11.8l4.9-3.2L474.7,74.8z M466.3,75.4h-5l2.7-2.8L466.3,75.4z
		 M465.1,66.6c0-0.2-0.1-0.4-0.3-0.7c-0.2-0.3-0.5-0.4-0.8-0.4c-0.3,0-0.5,0.1-0.7,0.3c-0.2,0.2-0.3,0.4-0.3,0.7
		c0,0.2,0.1,0.5,0.2,0.7c0.2,0.2,0.4,0.3,0.8,0.3c0.3,0,0.5-0.1,0.7-0.2S465.1,66.9,465.1,66.6z M466.3,70.1c0-0.2-0.1-0.5-0.3-0.7
		c-0.2-0.2-0.5-0.3-0.7-0.3s-0.5,0.1-0.8,0.3c-0.2,0.2-0.3,0.5-0.3,0.8c0,0.2,0.1,0.4,0.3,0.6c0.2,0.2,0.5,0.3,0.8,0.3
		c0.3,0,0.5-0.1,0.7-0.2C466.2,70.8,466.3,70.5,466.3,70.1z M468.4,73c0-0.2-0.1-0.5-0.3-0.7c-0.2-0.2-0.5-0.3-0.8-0.3
		c-0.3,0-0.5,0.1-0.7,0.3s-0.3,0.4-0.3,0.7c0,0,0,0.1,0.1,0.2s0.1,0.2,0.2,0.3s0.2,0.2,0.3,0.3c0.1,0.1,0.3,0.1,0.5,0.1
		c0.3,0,0.5-0.1,0.7-0.3C468.3,73.6,468.4,73.3,468.4,73z M472.1,75.2c0,0,0-0.1-0.1-0.2c0-0.1-0.1-0.2-0.2-0.3
		c-0.1-0.1-0.2-0.2-0.3-0.3c-0.1-0.1-0.3-0.1-0.5-0.1c-0.3,0-0.5,0.1-0.7,0.3c-0.2,0.2-0.3,0.4-0.3,0.7c0,0.2,0.1,0.5,0.3,0.7
		c0.2,0.2,0.5,0.3,0.8,0.3c0.3,0,0.5-0.1,0.7-0.3C472,75.8,472.1,75.5,472.1,75.2z M473.7,84.8c0-0.1-0.1-0.2-0.2-0.3
		c-0.1-0.1-0.3-0.2-0.4-0.3c-0.2-0.1-0.3-0.2-0.4-0.3s-0.2-0.1-0.2-0.1H472c0,0.1,0.1,0.2,0.2,0.3s0.3,0.2,0.4,0.3s0.3,0.2,0.4,0.3
		c0.1,0.1,0.2,0.1,0.3,0.1H473.7z M486.4,86.4c0,0.1-0.1,0.3-0.3,0.5c-0.2,0.2-0.4,0.3-0.5,0.3h-7.8l-1.5-0.4l-1,0.4h-0.6l0.8-3.4
		h11V86.4z"/>
</g>
</svg>
