<?xml version="1.0" encoding="utf-8"?>
<!-- Generator: Adobe Illustrator 18.0.0, SVG Export Plug-In . SVG Version: 6.00 Build 0)  -->
<!DOCTYPE svg PUBLIC "-//W3C//DTD SVG 1.1//EN" "http://www.w3.org/Graphics/SVG/1.1/DTD/svg11.dtd">
<svg version="1.1" id="Laag_1" xmlns="http://www.w3.org/2000/svg" xmlns:xlink="http://www.w3.org/1999/xlink" x="0px" y="0px"
	 viewBox="0 0 595.3 141.7" style="enable-background:new 0 0 595.3 141.7;" xml:space="preserve">
<style type="text/css">
	.st0{fill:url(#XMLID_3_);stroke:#000000;stroke-miterlimit:10;}
	.st1{fill:url(#XMLID_8_);}
	.st2{fill:#046CB4;}
	.st3{fill:#1D71B8;}
</style>
<linearGradient id="XMLID_3_" gradientUnits="userSpaceOnUse" x1="43.7246" y1="217.4632" x2="551.5554" y2="-75.7332">
	<stop  offset="9.852217e-003" style="stop-color:#FFFFFF"/>
	<stop  offset="0.335" style="stop-color:#3678BD;stop-opacity:0.6"/>
	<stop  offset="0.399" style="stop-color:#0281C4;stop-opacity:0.5631"/>
	<stop  offset="0.5468" style="stop-color:#5A63AB;stop-opacity:0.5"/>
	<stop  offset="0.7734" style="stop-color:#1D71B8;stop-opacity:0.5"/>
	<stop  offset="0.9803" style="stop-color:#5F8BC7;stop-opacity:0.6749"/>
</linearGradient>
<rect id="XMLID_1_" class="st0" width="595.3" height="141.7"/>
<radialGradient id="XMLID_8_" cx="65.0226" cy="65.4916" r="36.637" gradientTransform="matrix(0.9453 0 0 -0.9553 12.9438 135.8252)" gradientUnits="userSpaceOnUse">
	<stop  offset="0" style="stop-color:#1FA0DB"/>
	<stop  offset="1" style="stop-color:#0B77BD"/>
</radialGradient>
<path id="XMLID_7_" class="st1" d="M109.5,75.1c0,19.9-16,36.1-35.7,36.1c-19.7,0-35.7-16.1-35.7-36.1c0-14,7.9-26.1,19.4-32.1v57.5
	h8.2v-5l6.6-8.1l7.2,13.1h10.8L77.5,81l12.7-16.5H79.5L65.6,81V40c2.6-0.6,5.4-1,8.2-1C93.5,39,109.5,55.2,109.5,75.1z"/>
<path id="XMLID_4_" class="st2" d="M73.8,32.2c23.7,0,42.8,19.4,42.8,43.2s-19.2,43.2-42.8,43.2S31,99.3,31,75.4
	S50.1,32.2,73.8,32.2 M73.8,30c-24.8,0-45,20.4-45,45.4s20.2,45.4,45,45.4s45-20.4,45-45.4S98.6,30,73.8,30L73.8,30z"/>
<g>
	<path class="st3" d="M154.3,78.7l-0.1,0.1h-6.3V64.1h5.3c0.2,0,0.5,0.1,0.8,0.3L154.3,78.7z M150.5,69.8c0-0.2-0.1-0.4-0.3-0.7
		c-0.2-0.2-0.5-0.3-0.8-0.3c-0.3,0-0.5,0.1-0.7,0.4c-0.2,0.2-0.3,0.5-0.3,0.6c0,0.2,0.1,0.4,0.3,0.7c0.2,0.2,0.5,0.3,0.8,0.3
		c0.3,0,0.5-0.1,0.7-0.2C150.4,70.5,150.5,70.2,150.5,69.8z M150.5,73.3c0-0.1-0.1-0.3-0.2-0.6c-0.2-0.3-0.4-0.4-0.8-0.4
		c-0.3,0-0.6,0.1-0.8,0.4c-0.2,0.2-0.4,0.5-0.4,0.7c0,0.2,0.1,0.4,0.3,0.6c0.2,0.2,0.5,0.3,0.8,0.3c0.2,0,0.4-0.1,0.7-0.2
		S150.5,73.7,150.5,73.3z M156.8,73l-1.9,1.8v-9.2c0-0.1,0-0.2-0.1-0.5c0-0.2-0.1-0.5-0.2-0.7c-0.1-0.3-0.2-0.5-0.3-0.7
		s-0.3-0.3-0.5-0.3h-4.2v-2.6c0-0.2,0.1-0.3,0.3-0.4c0.2-0.1,0.4-0.1,0.6-0.2c0.2,0,0.5,0,0.7,0c0.2,0,0.4,0,0.5,0h3.4
		c0,0,0.2,0,0.3,0s0.4,0,0.6,0.1c0.2,0,0.4,0.1,0.5,0.2c0.2,0.1,0.2,0.2,0.2,0.4V73z M151.9,66.2c0-0.2-0.1-0.4-0.2-0.6
		c-0.2-0.2-0.4-0.3-0.8-0.3c-0.3,0-0.5,0.1-0.7,0.2c-0.2,0.2-0.3,0.4-0.3,0.7c0,0.2,0.1,0.4,0.3,0.6c0.2,0.2,0.4,0.4,0.8,0.4
		c0.2,0,0.4-0.1,0.7-0.2S151.9,66.6,151.9,66.2z M156.8,88.8c0,0.2,0,0.4-0.1,0.7c-0.1,0.3-0.3,0.4-0.6,0.4h-6l-0.4-2.6v-7.6
		c0.4-0.1,0.8-0.1,1.3,0c0,0.5,0.1,1,0.2,1.6c0.1,0.5,0.1,1.1,0.2,1.7c0.8,0.8,1.7,1.6,2.6,2.4c0.9,0.8,1.8,1.6,2.7,2.4
		c0,0.1,0.1,0.3,0.1,0.5C156.8,88.5,156.8,88.7,156.8,88.8z M152.2,77.1c0-0.1-0.1-0.3-0.3-0.6c-0.2-0.3-0.4-0.4-0.8-0.4
		c-0.2,0-0.5,0.1-0.7,0.2c-0.2,0.2-0.4,0.4-0.4,0.8c0,0.2,0.1,0.5,0.2,0.7c0.2,0.2,0.4,0.3,0.8,0.3c0,0,0.1,0,0.2-0.1
		s0.2-0.1,0.4-0.2c0.1-0.1,0.2-0.2,0.3-0.3C152.1,77.4,152.2,77.3,152.2,77.1z M178.1,89.9h-7.2c-0.2,0-0.5-0.1-0.7-0.3
		c-0.3-0.2-0.5-0.4-0.8-0.7c-0.3-0.3-0.6-0.6-0.9-1c-0.3-0.3-0.5-0.7-0.8-1c-0.2-0.3-0.4-0.6-0.5-0.8c-0.1-0.2-0.2-0.3-0.2-0.4
		c-0.7-0.9-1.5-1.8-2.1-2.8c-0.7-0.9-1.3-1.8-2-2.7c-0.4-0.5-0.8-1-1.2-1.5s-0.8-0.9-1.1-1.4h-0.3l-3.4,3.5l0,5.6
		c-0.2-0.1-0.3-0.3-0.3-0.6c0-0.3,0-0.6-0.1-0.8c-0.2-0.2-0.4-0.4-0.7-0.6c-0.3-0.2-0.5-0.4-0.8-0.6c-0.3-0.2-0.6-0.5-0.8-0.7
		c-0.3-0.3-0.5-0.5-0.7-0.8c-0.2-0.3-0.3-0.7-0.3-1.2s0-0.9-0.1-1.3v-0.3c0.3,0,0.6,0,1,0c0.4,0,0.8-0.2,1.2-0.5l-0.1-3
		c0-0.2,0.1-0.3,0.2-0.5c0.1-0.2,0.3-0.4,0.5-0.6c0.2-0.2,0.4-0.4,0.6-0.5c0.2-0.2,0.3-0.3,0.5-0.4c0.5-0.6,1.2-1.2,1.9-2
		c0.7-0.7,1.5-1.5,2.3-2.4c0.8-0.8,1.7-1.7,2.5-2.5c0.9-0.8,1.7-1.7,2.5-2.4c0.1-0.1,0.3-0.1,0.6,0h1.8l4.5-4.3h3.9
		c0.2,0,0.4,0.1,0.6,0.3l-10.5,10.3c-0.2,0-0.4-0.1-0.6-0.3c-0.2-0.1-0.4-0.2-0.6-0.2c-0.1,0-0.3,0.1-0.5,0.2
		c-0.3,0.1-0.6,0.3-0.9,0.5c-0.4,0.2-0.7,0.4-1.1,0.7c-0.4,0.3-0.8,0.5-1.1,0.7c-0.3,0.2-0.6,0.4-0.9,0.6c-0.3,0.2-0.4,0.3-0.5,0.3
		c-0.1,0.1-0.2,0.3-0.4,0.4c-0.1,0.2-0.2,0.3-0.2,0.5c0,0,0.1,0.2,0.4,0.6s0.6,0.7,0.9,1.2c0.4,0.5,0.8,1,1.2,1.5
		c0.4,0.5,0.8,1,1.1,1.4c0.4,0.5,0.8,1,1.2,1.7c0.4,0.6,0.9,1.2,1.4,1.9c0.5,0.7,1,1.3,1.5,2c0.5,0.7,1,1.3,1.5,1.9
		c0.1,0.1,0.2,0.2,0.4,0.3c0.2,0.1,0.3,0.1,0.5,0.1l4-2.6l3.9,4.8V89.9z M175.2,82.9l-4.9,3.6l-9.5-11.9l4.9-3.2L175.2,82.9z
		 M165.6,74.6c0-0.2-0.1-0.4-0.3-0.6c-0.2-0.3-0.4-0.4-0.8-0.4c-0.2,0-0.5,0.1-0.7,0.3c-0.2,0.2-0.4,0.4-0.4,0.7
		c0,0.2,0.1,0.4,0.3,0.7s0.4,0.3,0.8,0.3c0.3,0,0.5-0.1,0.8-0.2C165.5,75.2,165.6,74.9,165.6,74.6z M166.7,78.2
		c0-0.2-0.1-0.5-0.3-0.7c-0.2-0.2-0.4-0.3-0.7-0.3s-0.6,0.1-0.8,0.3c-0.2,0.2-0.4,0.5-0.4,0.7c0,0.2,0.1,0.4,0.3,0.6
		c0.2,0.2,0.5,0.4,0.8,0.4c0.3,0,0.5-0.1,0.7-0.2C166.6,78.9,166.7,78.6,166.7,78.2z M171.1,60.6l-2.7,2.7h-1.7l3.2-3h1.1
		c0,0,0.1,0.1,0.1,0.2C171,60.6,171.1,60.6,171.1,60.6z M168.9,81c0-0.3-0.1-0.5-0.3-0.7c-0.2-0.2-0.5-0.3-0.8-0.3
		c-0.3,0-0.5,0.1-0.7,0.3c-0.2,0.2-0.3,0.4-0.3,0.7c0,0,0,0.1,0.1,0.2c0,0.1,0.1,0.2,0.2,0.3c0.1,0.1,0.2,0.2,0.3,0.3
		c0.1,0.1,0.3,0.1,0.5,0.1c0.3,0,0.5-0.1,0.7-0.3S168.9,81.4,168.9,81z M172.6,83.3c0,0,0-0.1-0.1-0.2c0-0.1-0.1-0.2-0.2-0.3
		c-0.1-0.1-0.2-0.2-0.3-0.3s-0.3-0.1-0.5-0.1c-0.3,0-0.5,0.1-0.7,0.3c-0.2,0.2-0.3,0.4-0.3,0.7c0,0.2,0.1,0.5,0.3,0.7
		c0.2,0.2,0.5,0.3,0.8,0.3c0.3,0,0.5-0.1,0.7-0.3C172.4,83.8,172.6,83.6,172.6,83.3z"/>
	<path class="st3" d="M214.3,89.6c0,0.1-0.1,0.2-0.2,0.3c-0.1,0.1-0.2,0.2-0.1,0.3c-0.4,0-0.8-0.1-1.2,0c-0.3,0-0.6,0.1-0.7,0.1
		c-0.3,0-0.7-0.1-1-0.2c-0.3-0.1-0.6-0.3-0.9-0.5c-0.3-0.2-0.5-0.3-0.7-0.5c-0.2-0.1-0.3-0.2-0.4-0.2c-0.2,0-0.5,0.1-0.7,0.3l1.3,1
		H205c-0.1,0-0.3,0-0.4-0.1c-0.2-0.1-0.3-0.2-0.3-0.3c-0.2-0.5-0.4-1-0.6-1.6c-0.2-0.5-0.3-1.1-0.5-1.6c-0.1-0.2-0.1-0.4-0.2-0.7
		c-0.1-0.3-0.2-0.5-0.3-0.7c-0.3,0-0.7-0.1-1.1-0.1c-0.4,0-0.7,0-0.8,0l-2.3,0.1c-0.1,0-0.4,0-0.7,0c-0.4,0-0.7,0-0.9-0.1
		c-0.1,0-0.2-0.1-0.4-0.2c-0.1-0.1-0.2-0.1-0.4-0.1c-0.1,0-0.2,0-0.2,0.1c0,0.1-0.1,0.1-0.2,0.1h-4.1c-0.3,0.4-0.5,0.8-0.6,1.3
		s-0.2,0.9-0.3,1.4c-0.1,0.4-0.2,0.9-0.3,1.3c-0.1,0.4-0.4,0.7-0.7,1c-0.1,0.1-0.2,0.1-0.4,0.1c-0.2,0-0.4,0-0.7,0
		c-0.2,0-0.5,0-0.7,0c-0.2,0-0.3,0-0.4,0c-0.1,0-0.2,0-0.5,0c-0.3,0-0.5,0-0.8-0.1s-0.6,0-0.8-0.1c-0.3,0-0.4,0-0.5,0
		c-0.1,0-0.3,0-0.4,0.1c-0.2,0.1-0.3,0.1-0.4,0.1h-3.3c0-0.1-0.1-0.3-0.1-0.5c0-0.2,0-0.4,0-0.5c0-0.3,0.1-0.8,0.3-1.4
		s0.4-1.2,0.6-1.8c0.2-0.6,0.5-1.2,0.7-1.7c0.2-0.5,0.4-0.9,0.5-1.2c0.2-0.6,0.4-1.2,0.7-1.8c0.3-0.6,0.6-1.2,0.8-1.8l3.9,1
		c0.2,0,0.4,0,0.5,0c0.1-0.1,0.2-0.1,0.3-0.2c0.3-0.7,0.5-1.4,0.8-2.1s0.5-1.4,0.7-2c0.3-0.8,0.6-1.7,0.9-2.7c0.3-1,0.6-1.9,0.9-2.7
		c0.3-0.8,0.6-1.6,0.9-2.4c0.3-0.8,0.5-1.5,0.5-2.1c0-0.4-0.1-0.8-0.3-1c-0.2-0.2-0.5-0.3-0.8-0.4c-0.3-0.1-0.7-0.2-1.1-0.2
		s-0.7-0.2-1.1-0.4v-0.3c0-0.2,0.1-0.4,0.3-0.6c0.2-0.2,0.3-0.5,0.3-1c0.2-0.1,0.5-0.2,0.8-0.3c0.3-0.2,0.5-0.4,0.5-0.7l-0.6-0.4
		c0-0.4,0.2-0.6,0.4-0.9c0.2-0.2,0.5-0.3,0.8-0.3h1.9v0.3c0.1,0,0.3,0.1,0.5,0.1c0.2,0,0.4,0,0.6-0.1c0.2-0.1,0.4-0.1,0.6-0.2
		c0.2,0,0.4-0.1,0.6-0.1c0,0.1,0,0.2-0.1,0.2c-0.1,0-0.2,0.1-0.3,0.1c-0.1,0-0.2,0.1-0.3,0.1c-0.1,0-0.2,0.1-0.2,0.2
		c0.1,0.2,0.2,0.2,0.3,0.3c0.1,0,0.2,0,0.3-0.1c0.1,0,0.2-0.1,0.4-0.1c0.1,0,0.2,0,0.4,0l0.2,0.2l-2.3,0.9l0.2,0.2l2.2-0.6
		c0.1,0.1,0.1,0.2,0.1,0.4c-0.2,0-0.3,0.1-0.5,0.2c-0.2,0.1-0.4,0.2-0.6,0.4c0,0.2,0,0.2,0.2,0.2l1.2-0.3c0,0.2-0.2,0.3-0.4,0.5
		c-0.3,0.1-0.5,0.3-0.7,0.4l-0.2-0.3c-0.1,0.1-0.2,0.2-0.3,0.3c0,0.1-0.2,0.2-0.3,0.3c0.2,0.1,0.4,0.2,0.6,0.1
		c0.2-0.1,0.3-0.2,0.5-0.2c0.2,0,0.4,0,0.6,0c0.2,0,0.4-0.1,0.7-0.2c0,0,0,0.1,0.1,0.2c0,0.1,0.1,0.2,0.1,0.2
		c-0.2,0.1-0.4,0.1-0.6,0.2c-0.2,0-0.4,0.1-0.5,0.2v0c0,0.1,0,0.1,0.1,0.1l1.1-0.3l0.1,0.1c0,0.1,0.1,0.2,0.2,0.2l-2.3,0.9
		c0,0,0.1,0.1,0.1,0.1s0.1,0,0.1,0l2.2-0.6c0,0,0,0.1,0.1,0.2c0.1,0.1,0.1,0.2,0.2,0.3c-0.2,0.1-0.4,0.2-0.6,0.3
		c-0.2,0.1-0.4,0.2-0.6,0.3c0.1,0.1,0.2,0.1,0.3,0.1c0.1,0,0.2,0,0.3-0.1c0.1,0,0.2-0.1,0.3-0.2c0.1-0.1,0.2-0.1,0.3-0.1
		c0,0,0.1,0.1,0.1,0.2s0.1,0.2,0.1,0.3l-2.2,0.8l0.2,0.2l2.1-0.7c0.2,0.2,0.3,0.5,0.3,0.7c-0.4,0.1-0.8,0.3-1.2,0.5
		c0.1,0,0.3,0,0.5,0c0.2,0,0.4-0.1,0.6-0.1l0.1,0.1l0.1,0.4c-0.1,0-0.3,0.1-0.5,0.1c-0.2,0-0.4,0.1-0.6,0.1c-0.2,0-0.4,0.1-0.5,0.2
		c-0.2,0.1-0.3,0.2-0.4,0.3v0.1l1.7-0.6h0.5c0,0,0,0.1,0.1,0.2c0,0.1,0.1,0.1,0.1,0.2l-1.2,0.6c0.1,0.1,0.2,0.2,0.3,0.2l1-0.3
		c0.1,0,0.1,0.1,0.2,0.2c0,0.1,0.1,0.2,0.1,0.3l-2.2,0.8c0,0,0,0,0,0c0,0,0.1,0,0.1,0l2.1-0.6l0.1,0.1V70c-0.2,0-0.4,0.1-0.6,0.2
		c-0.2,0.1-0.4,0.2-0.6,0.3l0.2,0.2c0.2,0,0.3-0.1,0.5-0.2c0.2-0.1,0.4-0.1,0.7-0.2c0,0,0,0.1,0.1,0.2c0,0.1,0.1,0.2,0.1,0.4
		l-2.2,0.8c0,0,0.1,0.1,0.1,0.1s0.1,0,0.1,0l2.2-0.6c0,0,0,0.1,0.1,0.2c0,0.1,0.1,0.2,0.1,0.2c-0.4,0.1-0.8,0.3-1.2,0.5
		c0,0,0.1,0.1,0.1,0.1c0,0,0,0,0.2,0c0.1,0,0.3,0,0.4-0.1c0.2-0.1,0.3-0.1,0.5-0.2c0.1,0.1,0.2,0.2,0.2,0.3c0,0.1,0.1,0.2,0.1,0.4
		l-2.2,0.8c0,0,0.1,0.1,0.1,0.1s0.1,0,0.1,0l1.8-0.6c0.2,0,0.3,0,0.4,0.1v0.3c-0.2,0.1-0.3,0.2-0.5,0.3c-0.2,0.1-0.4,0.1-0.5,0.3
		c0,0,0,0.1,0,0.2c0,0.1,0.1,0.1,0.2,0.1c0,0,0.1,0,0.2-0.1c0.1,0,0.3-0.1,0.4-0.2s0.3-0.1,0.4-0.2c0.1-0.1,0.2-0.2,0.3-0.3
		l-4.6-13.1c0.1,0,0.2,0.1,0.4,0.1c0.1,0,0.3,0.1,0.4,0.2c0.2,0.2,0.3,0.4,0.5,0.6c0.1,0.2,0.2,0.5,0.3,0.7c0.1,0.2,0.2,0.5,0.4,0.7
		c0.1,0.2,0.3,0.4,0.5,0.6c0.1,0,0.2-0.1,0.2-0.2s0-0.1,0-0.1l-1.3-2.4c0.1,0,0.3-0.1,0.4-0.2c0.1-0.1,0.3-0.1,0.4-0.1
		c0.1,0,0.3,0,0.4,0c0.2,0,0.6,0,1.2,0.1c0.1,0,0.3,0,0.5,0.1c0.2,0,0.4,0.1,0.6,0.1c0.2,0.1,0.3,0.2,0.3,0.3
		c0.2,0.4,0.4,0.9,0.6,1.5c0.2,0.6,0.4,1.1,0.6,1.7c0,0,0,0.1-0.1,0.2c-0.1,0.1-0.1,0.2-0.2,0.3c0.2,0.1,0.4,0.3,0.6,0.5
		c0.2,0.2,0.3,0.4,0.4,0.7c0.1,0.2,0.2,0.5,0.3,0.7c0.1,0.2,0.2,0.5,0.2,0.7c0.1,0.2,0.2,0.5,0.4,0.9c0.2,0.3,0.3,0.7,0.5,1
		c0.1,0.3,0.3,0.6,0.4,0.9s0.2,0.4,0.2,0.5c0,0-0.1,0.1-0.3,0.4c-0.2,0.2-0.4,0.5-0.6,0.8c-0.2,0.3-0.4,0.6-0.7,1
		c-0.2,0.3-0.4,0.6-0.5,0.8c0,0.1-0.1,0.2-0.1,0.3c0,0.1-0.1,0.1-0.3,0l-0.9,5.5v2.5l0.3,0.2c0.1,0,0.2-0.1,0.3-0.2
		c0.1-0.1,0.2-0.2,0.3-0.3l-0.2-1.1v-2.5c0-0.4,0.1-1,0.3-1.7c0.2-0.7,0.5-1.3,0.8-2c0.3-0.7,0.6-1.3,1-1.8c0.3-0.5,0.6-0.8,0.8-0.9
		l1,2.6c-0.6,1-1,2-1.3,3.2c-0.3,1.1-0.3,2.2-0.1,3.1c-0.2,0-0.4-0.1-0.6-0.2s-0.5-0.2-0.7-0.3c0,0.2-0.1,0.4-0.2,0.6
		c-0.1,0.2-0.1,0.3-0.1,0.5c0,0.1,0,0.2,0.1,0.3c0.1,0.1,0.2,0.2,0.3,0.2c0.2,0.7,0.4,1.4,0.7,2.2c0.3,0.7,0.7,1.4,1.2,2.2
		s1.1,1.4,1.7,2s1.4,1.2,2.3,1.6l2-1.1c-0.1-0.2-0.2-0.5-0.2-0.7c0.1,0.1,0.2,0.3,0.3,0.5c0.1,0.2,0.3,0.4,0.4,0.6s0.3,0.5,0.4,0.7
		C214.2,89.2,214.3,89.4,214.3,89.6z M192.7,66.6L188,80h-0.5l-5-1.6c0,0,0,0-0.1,0c0,0-0.1-0.1-0.1-0.2c0-0.1,0-0.2,0-0.4
		c0-0.2,0.1-0.5,0.1-0.7c0-0.3,0.1-0.5,0.1-0.8c0-0.3,0.1-0.5,0.2-0.7c0.6-1.8,1.3-3.7,2.1-5.5c0.7-1.9,1.5-3.7,2.2-5.5l2.4,0.8
		c0,0,0,0,0,0c0,0,0.1-0.1,0.2-0.1c0,0,0.2,0,0.4,0.1c0.2,0.1,0.4,0.1,0.7,0.2s0.5,0.2,0.8,0.3c0.3,0.1,0.5,0.2,0.7,0.2
		c0.1,0,0.1,0.1,0.2,0.2C192.6,66.4,192.7,66.5,192.7,66.6z M186.4,73.4c0-0.2-0.1-0.5-0.3-0.7c-0.2-0.2-0.4-0.3-0.7-0.3
		c-0.3,0-0.6,0.1-0.8,0.4c-0.2,0.2-0.4,0.5-0.4,0.7c0,0.2,0.1,0.4,0.3,0.7c0.2,0.2,0.5,0.4,0.8,0.4c0.2,0,0.4-0.1,0.7-0.2
		C186.3,74,186.4,73.8,186.4,73.4z M186.6,77.5c0-0.2-0.1-0.5-0.3-0.7c-0.2-0.2-0.5-0.3-0.8-0.3c-0.3,0-0.5,0.1-0.7,0.2
		c-0.2,0.1-0.3,0.4-0.3,0.8c0,0.1,0,0.2,0.1,0.3c0,0.1,0.1,0.2,0.2,0.4c0.1,0.1,0.2,0.2,0.3,0.3c0.1,0.1,0.3,0.1,0.5,0.1
		c0,0,0.1,0,0.3-0.1c0.1,0,0.2-0.1,0.4-0.2c0.1-0.1,0.2-0.2,0.3-0.3C186.6,77.9,186.6,77.7,186.6,77.5z M187.7,70.2
		c0,0,0-0.1-0.1-0.2c0-0.1-0.1-0.2-0.2-0.3c-0.1-0.1-0.2-0.2-0.3-0.3c-0.1-0.1-0.3-0.1-0.4-0.1c-0.3,0-0.6,0.1-0.8,0.3
		c-0.2,0.2-0.3,0.5-0.3,0.7c0,0.2,0.1,0.4,0.2,0.6s0.4,0.4,0.8,0.4c0.2,0,0.5-0.1,0.7-0.3C187.6,70.7,187.7,70.4,187.7,70.2z
		 M188.2,85.9l-0.2-0.1c0,0,0,0.1,0.1,0.1C188.1,85.9,188.1,85.9,188.2,85.9z M190.2,67.2c0-0.2-0.1-0.4-0.3-0.7
		c-0.2-0.2-0.5-0.4-0.8-0.4c-0.4,0-0.6,0.1-0.8,0.4c-0.2,0.3-0.3,0.5-0.3,0.6c0,0.2,0.1,0.4,0.2,0.7c0.2,0.2,0.4,0.3,0.8,0.3
		c0.2,0,0.4-0.1,0.7-0.3C190.1,67.7,190.2,67.5,190.2,67.2z M202.5,79.7c-0.4,0-0.7,0-0.8,0c-0.1,0.1-0.3,0.1-0.4,0.2l-0.2-0.2
		c0.3-0.2,0.5-0.5,0.5-0.8c0-0.3,0-0.5,0-0.6c0.1-0.1,0.1-0.2,0.2-0.3c0.1-0.1,0.1-0.3,0.2-0.4c-0.1-0.1-0.2-0.2-0.2-0.3
		c0,0-0.1,0-0.3-0.1c-0.1,0-0.2,0-0.3,0l-0.8,0.3l-3.2-8.9h-0.4l-3.1,9.6c0,0.1,0,0.2,0,0.3c0,0.1,0.1,0.2,0.1,0.2
		c0.2,0,0.3,0.1,0.5,0.2c0.2,0.1,0.3,0.1,0.5,0.1c0.1,0,0.2,0,0.3-0.1c0.1,0,0.3-0.1,0.4-0.1c0.2,0,0.3-0.1,0.4-0.1
		c0.1,0,0.3-0.1,0.3-0.1c0.1,0,0.3,0,0.5,0.1c0.2,0,0.7,0.1,1.4,0.1c0.1,0,0.2,0.1,0.4,0.2c0.2,0.1,0.3,0.2,0.3,0.3
		c-0.1,0.2-0.3,0.3-0.6,0.3c-0.3,0-0.4,0-0.5,0c-0.3,0.3-0.7,0.5-1.1,0.7c-0.4,0.2-0.8,0.4-1.1,0.6v0.4l0.3,0.3
		c-0.1,0-0.2,0.1-0.3,0.1c-0.1,0-0.2,0.1-0.3,0.1c0,0-0.1-0.1-0.1-0.2c0-0.1-0.1-0.2-0.1-0.2c-0.3,0.3-0.7,0.6-1.1,0.7
		c-0.4,0.2-0.8,0.3-1.2,0.5c-0.4,0.1-0.9,0.3-1.3,0.4c-0.4,0.1-0.9,0.3-1.3,0.5h0.7c0.1,0,0.3,0,0.6-0.1c0.2-0.1,0.4-0.2,0.6-0.2
		c0,0,0.1,0.1,0.2,0.2c0.1,0.1,0.1,0.2,0.2,0.2c0-0.1,0-0.2,0-0.3c0-0.1,0-0.2,0-0.2c0.1,0,0.2,0,0.3-0.1c0.1,0,0.2-0.1,0.3-0.1
		c0.1,0.1,0.2,0.2,0.3,0.4c0.1,0.1,0.1,0.2,0.2,0.4c0-0.1,0-0.2,0-0.4s-0.1-0.3-0.1-0.4c0.1,0,0.2-0.1,0.3-0.1
		c0.1,0,0.1-0.1,0.2-0.1c0.1,0.2,0.2,0.3,0.3,0.5c0.1,0.1,0.1,0.3,0.2,0.5h0.4l-0.3-1c0.1,0,0.2-0.1,0.3-0.1c0.1,0,0.2,0,0.3-0.1
		l0.5,1.1c0-0.2,0-0.3-0.1-0.5c-0.1-0.2-0.1-0.4-0.2-0.6c0.1-0.1,0.2-0.2,0.3-0.2c0.1,0,0.2,0,0.3-0.1c0,0.2,0.1,0.3,0.2,0.5
		c0.1,0.2,0.1,0.3,0,0.5h0.5c0-0.1,0-0.2,0.1-0.3c0.1-0.1,0.2-0.2,0.2-0.2c0.1,0.2,0.1,0.3,0.2,0.5s0.1,0.3,0.2,0.4
		c0-0.2-0.1-0.4-0.1-0.6c0-0.2,0-0.4,0-0.5c0.1,0,0.2,0,0.3,0c0.1,0,0.1,0,0.3,0c0.1,0,0.2,0.1,0.3,0.2c0,0.1,0.1,0.2,0.1,0.2
		c0.1-0.2,0.1-0.3,0.1-0.4c-0.1-0.1,0-0.2,0.3-0.3c0.1,0.2,0.2,0.4,0.3,0.6c0.1,0.2,0.2,0.4,0.2,0.6h0.4c-0.1-0.3-0.2-0.5-0.2-0.7
		c0-0.2,0-0.4,0-0.5c0.2-0.1,0.4-0.1,0.5-0.1c0.2-0.2,0.4-0.4,0.6-0.7c0.2-0.3,0.5-0.5,0.8-0.7c0.2-0.1,0.4-0.2,0.6-0.3
		C202.1,79.9,202.3,79.8,202.5,79.7z M197.3,81c0,0-0.1,0-0.3,0.1c-0.1,0-0.3,0.1-0.5,0.1c0,0,0-0.1,0.1-0.2
		c0.1-0.1,0.1-0.2,0.2-0.3c0,0,0.1,0.1,0.3,0.1C197.1,80.9,197.2,80.9,197.3,81z M196.9,84.2h-0.4v0.4c0.1,0,0.2-0.1,0.3-0.2
		C196.9,84.3,196.9,84.3,196.9,84.2z M199.3,80.1c0,0.2-0.1,0.3-0.3,0.4c-0.2,0.1-0.5,0.2-0.8,0.2c0-0.2,0.1-0.3,0.2-0.3
		c0.1-0.1,0.2-0.1,0.3-0.2c0.1,0,0.2-0.1,0.3-0.1c0.1-0.1,0.2-0.1,0.3-0.3c0,0,0,0,0.1,0C199.3,79.9,199.3,80,199.3,80.1z M201,64.4
		c-0.2-0.2-0.3-0.4-0.4-0.5c-0.1-0.2-0.3-0.3-0.4-0.3V64c0.2,0.2,0.3,0.3,0.4,0.5c0.1,0.2,0.2,0.4,0.3,0.5L201,64.4z M201.3,65.6
		v-0.5h-0.2v0.5H201.3z M201.7,66.1l-0.1-0.1l-0.1,0.3l0.1,0.1L201.7,66.1z M202.7,68.9v-0.6c0-0.1-0.1-0.3-0.2-0.4
		c-0.1-0.2-0.2-0.3-0.3-0.4c0,0-0.1,0.1-0.1,0.3c0,0.1,0,0.2,0,0.3c0,0.1,0.1,0.3,0.2,0.5C202.4,68.6,202.5,68.8,202.7,68.9z
		 M203.8,72.1v-0.4c-0.1-0.2-0.2-0.3-0.3-0.5c-0.1-0.2-0.1-0.3-0.2-0.5c0-0.2-0.1-0.3-0.1-0.5c0-0.2-0.1-0.3-0.1-0.3
		c0,0.1,0,0.3,0,0.5c0,0.2,0,0.4,0.1,0.7c0.1,0.2,0.1,0.4,0.3,0.6C203.5,71.8,203.7,72,203.8,72.1z M212.9,86.6c0,0-0.1,0-0.2,0.1
		s-0.2,0.1-0.3,0.1c0,0-0.1,0.1-0.1,0.2c0,0.1,0,0.2,0,0.2c-0.9-0.5-1.7-1.1-2.4-1.8c-0.6-0.7-1.2-1.4-1.5-2.1
		c-0.4-0.7-0.7-1.5-0.9-2.2c-0.2-0.8-0.3-1.5-0.3-2.1c0-1.4,0.4-2.8,1.2-4.3L212.9,86.6z"/>
	<path class="st3" d="M215.7,63.3c0-0.1-0.1-0.1-0.3-0.1c0,0.1-0.1,0.2,0,0.3c0,0.1,0,0.2,0,0.4c0,0-0.1,0.1-0.1,0.2
		c0,0.1-0.1,0.2-0.2,0.3c0.1,0.2,0.2,0.5,0.2,0.9c0,0.3,0,0.6-0.1,1c0,0.3-0.1,0.6-0.2,0.9c-0.1,0.3-0.2,0.6-0.3,0.8
		c-0.1,0-0.2,0.1-0.3,0.1c-0.1,0-0.3,0-0.5,0c-0.2,0-0.3,0-0.5,0s-0.3,0-0.3,0c0,0-0.2,0-0.4,0c-0.2,0-0.4,0-0.6-0.1
		c-0.2,0-0.4-0.1-0.6-0.2c-0.2-0.1-0.3-0.2-0.3-0.4v-6.2c0-0.2,0.1-0.4,0.3-0.5c0.2-0.2,0.5-0.2,0.7-0.2h3.4V63.3z M241.4,67.4
		c0,0.2-0.1,0.3-0.2,0.4s-0.3,0.2-0.4,0.2c-0.2,0-0.4,0.1-0.7,0.1c-0.1,0-0.2,0-0.4-0.1c-0.2,0-0.3-0.1-0.5-0.1
		c-0.2,0-0.4-0.1-0.5-0.1s-0.3-0.1-0.4-0.1c-0.1,0-0.2,0-0.3,0.1c-0.2,0-0.3,0.1-0.5,0.1S237.2,68,237,68c-0.2,0-0.3,0.1-0.3,0.1
		c-0.1,0-0.2,0-0.4-0.1c-0.2,0-0.4-0.1-0.5-0.1c-0.2,0-0.4-0.1-0.6-0.2c-0.1,0-0.2,0.1-0.4,0.2s-0.3,0.2-0.4,0.2h-3.1v17.2
		c0,0.1,0,0.3-0.1,0.6c-0.1,0.3-0.1,0.5-0.1,0.7c0,0-0.1,0.1-0.2,0.1c-0.1,0-0.1,0.1-0.1,0.2v0.6c0,0,0.1,0.1,0.2,0.1
		c0.1,0,0.1,0,0.2,0.1c0.2,0.3,0.3,0.6,0.3,0.8c0,0.1,0,0.3-0.1,0.4c-0.1,0.2-0.1,0.3-0.2,0.5c-0.2-0.1-0.3-0.2-0.4-0.4
		c-0.1-0.1-0.2-0.3-0.3-0.4V72.9c0-0.1-0.1-0.3-0.3-0.6c-0.2-0.3-0.4-0.5-0.6-0.8l-1.9,2v-5.6h-0.3c-0.2,0.2-0.3,0.5-0.2,0.8
		c0,0.3,0.1,0.6,0.1,0.8c0,0.3,0,0.6-0.1,0.9c-0.1,0.3-0.1,0.6-0.1,0.9c0,0.2,0,0.3,0.1,0.6s0.1,0.4,0.1,0.6s0.1,0.4,0.1,0.5
		c0,0.2,0.1,0.3,0.1,0.3c0,0.4-0.3,0.8-0.8,1.3l0.8,0.6c0,0.1,0,0.2-0.1,0.3c-0.1,0.1-0.2,0.1-0.2,0.2c-0.1,0-0.2,0.1-0.3,0.1
		c-0.1,0-0.2,0-0.3,0.1c0,0.1,0.1,0.3,0.3,0.4s0.3,0.3,0.5,0.4c0,0.1,0,0.2,0,0.3c0,0.1,0.1,0.3,0.2,0.4c0-0.2,0.1-0.5,0.1-0.7
		c0-0.2,0.1-0.5,0.2-0.8c0,0-0.1-0.1-0.1-0.2c0-0.1-0.1-0.1-0.2-0.2l1.8,1.1v8l-3.1,3.9c-0.8-0.5-1.6-0.8-2.5-1.1
		c-0.9-0.3-1.8-0.4-2.6-0.4V68h-4.7c-0.1,0-0.2,0-0.4-0.1c-0.1-0.1-0.3-0.2-0.4-0.2v-2.3c0.2,0.2,0.3,0.3,0.4,0.3
		c0.1,0,0.3,0.1,0.4,0.1l10.7,0.1c0,0.1-0.1,0.2-0.1,0.3c-0.1,0.1,0,0.2,0.2,0.3c0.1-0.2,0.2-0.3,0.2-0.4c0-0.1,0-0.2,0-0.2h0.1
		l8.4,0.2c0.1,0,0.2,0,0.3-0.1c0.1,0,0.2-0.1,0.4-0.2s0.3-0.1,0.4-0.2c0.1-0.1,0.2-0.2,0.2-0.3c0-0.1,0-0.4,0-0.7c0-0.3,0-0.5,0-0.7
		v-3.6h3.2c0.1,0,0.3,0,0.4,0.1c0.2,0.1,0.3,0.2,0.4,0.3c0,0.2,0.1,0.4,0,0.6c0,0.2-0.1,0.4-0.1,0.6c0,0.2,0,0.3,0.1,0.5
		c0.1,0.2,0.1,0.3,0.1,0.5V67.4z M236.5,65.3h-6c-0.1,0-0.3,0-0.7-0.1c-0.3-0.1-0.5-0.1-0.7-0.1h-12.6c0,0-0.1-0.1-0.2-0.2
		c-0.1-0.1-0.1-0.2-0.1-0.3c0-0.1,0-0.2,0.1-0.2c0,0,0.1-0.1,0.1-0.1c0-0.2,0-0.4,0-0.6c0-0.2,0-0.4,0-0.7c0-0.2,0-0.4,0-0.6
		c0-0.2,0-0.3,0-0.4v-1.5c0-0.2,0-0.3,0-0.3c0-0.1,0-0.1,0.1-0.1c0.1,0,0.2,0,0.3,0c0.1,0,0.3,0,0.6,0h19V65.3z M219.7,62.3
		c0-0.2-0.1-0.4-0.2-0.6c-0.2-0.2-0.4-0.3-0.8-0.3c-0.2,0-0.5,0.1-0.7,0.2c-0.2,0.2-0.4,0.4-0.4,0.7c0,0.2,0.1,0.4,0.2,0.6
		c0.1,0.2,0.4,0.4,0.9,0.4c0.2,0,0.5-0.1,0.7-0.2C219.6,62.9,219.7,62.7,219.7,62.3z M227.5,90.6h-5.4c-0.1,0-0.3-0.1-0.5-0.3
		s-0.3-0.3-0.3-0.5v-2.1h1c0.3,0,0.7,0.1,1.3,0.3c0.5,0.2,1.1,0.4,1.6,0.7c0.5,0.3,1,0.6,1.5,0.9C227,89.9,227.3,90.3,227.5,90.6z
		 M223.5,63.6c0-0.2-0.1-0.5-0.3-0.7c-0.2-0.2-0.4-0.3-0.8-0.3c-0.3,0-0.6,0.1-0.8,0.3c-0.2,0.2-0.3,0.4-0.3,0.7
		c0,0.2,0.1,0.4,0.2,0.7c0.1,0.2,0.4,0.4,0.8,0.4c0.2,0,0.4-0.1,0.7-0.2C223.4,64.3,223.5,64,223.5,63.6z M227.6,63.5
		c0-0.2-0.1-0.5-0.3-0.7c-0.2-0.2-0.5-0.3-0.8-0.3c-0.3,0-0.5,0.1-0.8,0.4c-0.2,0.2-0.3,0.5-0.3,0.7c0,0.3,0.1,0.5,0.3,0.7
		s0.5,0.3,0.8,0.3c0.3,0,0.6-0.1,0.8-0.3C227.5,64.1,227.6,63.8,227.6,63.5z M227.5,67.7v-0.8h-0.2v0.8H227.5z M231.1,90.2
		c-0.1,0.2-0.3,0.3-0.5,0.2c-0.2,0-0.4,0-0.5,0.1c0,0-0.1,0.1-0.2,0.1c-0.1,0-0.2,0-0.3,0h-1.1l1.7-1.7c0,0.2,0,0.3,0.1,0.5
		c0,0.2,0.1,0.3,0.1,0.5c0.1,0,0.3,0.1,0.4,0.1C230.9,90,231,90,231.1,90.2z M231.5,63.7c0-0.2-0.1-0.5-0.2-0.7
		c-0.1-0.2-0.4-0.3-0.8-0.3c-0.4,0-0.6,0.1-0.8,0.3c-0.2,0.2-0.2,0.5-0.2,0.7c0,0.2,0.1,0.5,0.2,0.7c0.2,0.2,0.4,0.3,0.8,0.3
		c0.2,0,0.5-0.1,0.7-0.3C231.4,64.3,231.5,64,231.5,63.7z M235.6,62.3c0-0.2-0.1-0.5-0.3-0.7c-0.2-0.2-0.5-0.3-0.8-0.3
		c-0.2,0-0.5,0.1-0.7,0.4c-0.2,0.2-0.4,0.5-0.4,0.7c0,0.2,0.1,0.4,0.3,0.6c0.2,0.2,0.5,0.3,0.8,0.3c0.2,0,0.4-0.1,0.7-0.2
		C235.5,62.9,235.6,62.7,235.6,62.3z M236.5,67.1l-0.2-0.2c0,0,0,0.1,0.1,0.2C236.4,67.1,236.4,67.1,236.5,67.1z"/>
	<path class="st3" d="M274.9,89.6c0,0.1-0.1,0.2-0.2,0.3c-0.1,0.1-0.2,0.2-0.1,0.3c-0.4,0-0.8-0.1-1.2,0c-0.3,0-0.6,0.1-0.7,0.1
		c-0.3,0-0.7-0.1-1-0.2c-0.3-0.1-0.6-0.3-0.9-0.5c-0.3-0.2-0.5-0.3-0.7-0.5c-0.2-0.1-0.3-0.2-0.4-0.2c-0.2,0-0.5,0.1-0.7,0.3l1.3,1
		h-4.8c-0.1,0-0.3,0-0.4-0.1c-0.2-0.1-0.3-0.2-0.3-0.3c-0.2-0.5-0.4-1-0.6-1.6c-0.2-0.5-0.3-1.1-0.5-1.6c-0.1-0.2-0.1-0.4-0.2-0.7
		c-0.1-0.3-0.2-0.5-0.3-0.7c-0.3,0-0.7-0.1-1.1-0.1c-0.4,0-0.7,0-0.8,0l-2.3,0.1c-0.1,0-0.4,0-0.7,0c-0.4,0-0.7,0-0.9-0.1
		c-0.1,0-0.2-0.1-0.4-0.2c-0.1-0.1-0.2-0.1-0.4-0.1c-0.1,0-0.2,0-0.2,0.1c0,0.1-0.1,0.1-0.2,0.1h-4.1c-0.3,0.4-0.5,0.8-0.6,1.3
		s-0.2,0.9-0.3,1.4c-0.1,0.4-0.2,0.9-0.3,1.3c-0.1,0.4-0.4,0.7-0.7,1c-0.1,0.1-0.2,0.1-0.4,0.1c-0.2,0-0.4,0-0.7,0
		c-0.2,0-0.5,0-0.7,0c-0.2,0-0.3,0-0.4,0c-0.1,0-0.2,0-0.5,0c-0.3,0-0.5,0-0.8-0.1s-0.6,0-0.8-0.1c-0.3,0-0.4,0-0.5,0
		c-0.1,0-0.3,0-0.4,0.1c-0.2,0.1-0.3,0.1-0.4,0.1h-3.3c0-0.1-0.1-0.3-0.1-0.5c0-0.2,0-0.4,0-0.5c0-0.3,0.1-0.8,0.3-1.4
		s0.4-1.2,0.6-1.8c0.2-0.6,0.5-1.2,0.7-1.7c0.2-0.5,0.4-0.9,0.5-1.2c0.2-0.6,0.4-1.2,0.7-1.8c0.3-0.6,0.6-1.2,0.8-1.8l3.9,1
		c0.2,0,0.4,0,0.5,0c0.1-0.1,0.2-0.1,0.3-0.2c0.3-0.7,0.5-1.4,0.8-2.1s0.5-1.4,0.7-2c0.3-0.8,0.6-1.7,0.9-2.7c0.3-1,0.6-1.9,0.9-2.7
		c0.3-0.8,0.6-1.6,0.9-2.4c0.3-0.8,0.5-1.5,0.5-2.1c0-0.4-0.1-0.8-0.3-1c-0.2-0.2-0.5-0.3-0.8-0.4c-0.3-0.1-0.7-0.2-1.1-0.2
		s-0.7-0.2-1.1-0.4v-0.3c0-0.2,0.1-0.4,0.3-0.6c0.2-0.2,0.3-0.5,0.3-1c0.2-0.1,0.5-0.2,0.8-0.3c0.3-0.2,0.5-0.4,0.5-0.7l-0.6-0.4
		c0-0.4,0.2-0.6,0.4-0.9c0.2-0.2,0.5-0.3,0.8-0.3h1.9v0.3c0.1,0,0.3,0.1,0.5,0.1c0.2,0,0.4,0,0.6-0.1c0.2-0.1,0.4-0.1,0.6-0.2
		c0.2,0,0.4-0.1,0.6-0.1c0,0.1,0,0.2-0.1,0.2c-0.1,0-0.2,0.1-0.3,0.1c-0.1,0-0.2,0.1-0.3,0.1c-0.1,0-0.2,0.1-0.2,0.2
		c0.1,0.2,0.2,0.2,0.3,0.3c0.1,0,0.2,0,0.3-0.1c0.1,0,0.2-0.1,0.4-0.1c0.1,0,0.2,0,0.4,0L258,61l-2.3,0.9l0.2,0.2l2.2-0.6
		c0.1,0.1,0.1,0.2,0.1,0.4c-0.2,0-0.3,0.1-0.5,0.2c-0.2,0.1-0.4,0.2-0.6,0.4c0,0.2,0,0.2,0.2,0.2l1.2-0.3c0,0.2-0.2,0.3-0.4,0.5
		c-0.3,0.1-0.5,0.3-0.7,0.4l-0.2-0.3c-0.1,0.1-0.2,0.2-0.3,0.3c0,0.1-0.2,0.2-0.3,0.3c0.2,0.1,0.4,0.2,0.6,0.1
		c0.2-0.1,0.3-0.2,0.5-0.2c0.2,0,0.4,0,0.6,0c0.2,0,0.4-0.1,0.7-0.2c0,0,0,0.1,0.1,0.2c0,0.1,0.1,0.2,0.1,0.2
		c-0.2,0.1-0.4,0.1-0.6,0.2c-0.2,0-0.4,0.1-0.5,0.2v0c0,0.1,0,0.1,0.1,0.1l1.1-0.3L259,64c0,0.1,0.1,0.2,0.2,0.2l-2.3,0.9
		c0,0,0.1,0.1,0.1,0.1s0.1,0,0.1,0l2.2-0.6c0,0,0,0.1,0.1,0.2c0.1,0.1,0.1,0.2,0.2,0.3c-0.2,0.1-0.4,0.2-0.6,0.3
		c-0.2,0.1-0.4,0.2-0.6,0.3c0.1,0.1,0.2,0.1,0.3,0.1c0.1,0,0.2,0,0.3-0.1c0.1,0,0.2-0.1,0.3-0.2c0.1-0.1,0.2-0.1,0.3-0.1
		c0,0,0.1,0.1,0.1,0.2s0.1,0.2,0.1,0.3l-2.2,0.8l0.2,0.2l2.1-0.7c0.2,0.2,0.3,0.5,0.3,0.7c-0.4,0.1-0.8,0.3-1.2,0.5
		c0.1,0,0.3,0,0.5,0c0.2,0,0.4-0.1,0.6-0.1l0.1,0.1l0.1,0.4c-0.1,0-0.3,0.1-0.5,0.1c-0.2,0-0.4,0.1-0.6,0.1c-0.2,0-0.4,0.1-0.5,0.2
		c-0.2,0.1-0.3,0.2-0.4,0.3v0.1l1.7-0.6h0.5c0,0,0,0.1,0.1,0.2c0,0.1,0.1,0.1,0.1,0.2l-1.2,0.6c0.1,0.1,0.2,0.2,0.3,0.2l1-0.3
		c0.1,0,0.1,0.1,0.2,0.2c0,0.1,0.1,0.2,0.1,0.3l-2.2,0.8c0,0,0,0,0,0c0,0,0.1,0,0.1,0l2.1-0.6l0.1,0.1V70c-0.2,0-0.4,0.1-0.6,0.2
		c-0.2,0.1-0.4,0.2-0.6,0.3l0.2,0.2c0.2,0,0.3-0.1,0.5-0.2c0.2-0.1,0.4-0.1,0.7-0.2c0,0,0,0.1,0.1,0.2c0,0.1,0.1,0.2,0.1,0.4
		l-2.2,0.8c0,0,0.1,0.1,0.1,0.1s0.1,0,0.1,0l2.2-0.6c0,0,0,0.1,0.1,0.2c0,0.1,0.1,0.2,0.1,0.2c-0.4,0.1-0.8,0.3-1.2,0.5
		c0,0,0.1,0.1,0.1,0.1c0,0,0,0,0.2,0c0.1,0,0.3,0,0.4-0.1c0.2-0.1,0.3-0.1,0.5-0.2c0.1,0.1,0.2,0.2,0.2,0.3c0,0.1,0.1,0.2,0.1,0.4
		l-2.2,0.8c0,0,0.1,0.1,0.1,0.1s0.1,0,0.1,0l1.8-0.6c0.2,0,0.3,0,0.4,0.1v0.3c-0.2,0.1-0.3,0.2-0.5,0.3c-0.2,0.1-0.4,0.1-0.5,0.3
		c0,0,0,0.1,0,0.2c0,0.1,0.1,0.1,0.2,0.1c0,0,0.1,0,0.2-0.1c0.1,0,0.3-0.1,0.4-0.2s0.3-0.1,0.4-0.2c0.1-0.1,0.2-0.2,0.3-0.3
		l-4.6-13.1c0.1,0,0.2,0.1,0.4,0.1c0.1,0,0.3,0.1,0.4,0.2c0.2,0.2,0.3,0.4,0.5,0.6c0.1,0.2,0.2,0.5,0.3,0.7c0.1,0.2,0.2,0.5,0.4,0.7
		c0.1,0.2,0.3,0.4,0.5,0.6c0.1,0,0.2-0.1,0.2-0.2s0-0.1,0-0.1l-1.3-2.4c0.1,0,0.3-0.1,0.4-0.2c0.1-0.1,0.3-0.1,0.4-0.1
		c0.1,0,0.3,0,0.4,0c0.2,0,0.6,0,1.2,0.1c0.1,0,0.3,0,0.5,0.1c0.2,0,0.4,0.1,0.6,0.1c0.2,0.1,0.3,0.2,0.3,0.3
		c0.2,0.4,0.4,0.9,0.6,1.5c0.2,0.6,0.4,1.1,0.6,1.7c0,0,0,0.1-0.1,0.2c-0.1,0.1-0.1,0.2-0.2,0.3c0.2,0.1,0.4,0.3,0.6,0.5
		c0.2,0.2,0.3,0.4,0.4,0.7c0.1,0.2,0.2,0.5,0.3,0.7c0.1,0.2,0.2,0.5,0.2,0.7c0.1,0.2,0.2,0.5,0.4,0.9c0.2,0.3,0.3,0.7,0.5,1
		c0.1,0.3,0.3,0.6,0.4,0.9s0.2,0.4,0.2,0.5c0,0-0.1,0.1-0.3,0.4c-0.2,0.2-0.4,0.5-0.6,0.8c-0.2,0.3-0.4,0.6-0.7,1
		c-0.2,0.3-0.4,0.6-0.5,0.8c0,0.1-0.1,0.2-0.1,0.3c0,0.1-0.1,0.1-0.3,0l-0.9,5.5v2.5l0.3,0.2c0.1,0,0.2-0.1,0.3-0.2
		c0.1-0.1,0.2-0.2,0.3-0.3l-0.2-1.1v-2.5c0-0.4,0.1-1,0.3-1.7c0.2-0.7,0.5-1.3,0.8-2c0.3-0.7,0.6-1.3,1-1.8c0.3-0.5,0.6-0.8,0.8-0.9
		l1,2.6c-0.6,1-1,2-1.3,3.2c-0.3,1.1-0.3,2.2-0.1,3.1c-0.2,0-0.4-0.1-0.6-0.2s-0.5-0.2-0.7-0.3c0,0.2-0.1,0.4-0.2,0.6
		c-0.1,0.2-0.1,0.3-0.1,0.5c0,0.1,0,0.2,0.1,0.3c0.1,0.1,0.2,0.2,0.3,0.2c0.2,0.7,0.4,1.4,0.7,2.2c0.3,0.7,0.7,1.4,1.2,2.2
		s1.1,1.4,1.7,2s1.4,1.2,2.3,1.6l2-1.1c-0.1-0.2-0.2-0.5-0.2-0.7c0.1,0.1,0.2,0.3,0.3,0.5c0.1,0.2,0.3,0.4,0.4,0.6s0.3,0.5,0.4,0.7
		C274.9,89.2,274.9,89.4,274.9,89.6z M253.3,66.6L248.6,80h-0.5l-5-1.6c0,0,0,0-0.1,0c0,0-0.1-0.1-0.1-0.2c0-0.1,0-0.2,0-0.4
		c0-0.2,0.1-0.5,0.1-0.7c0-0.3,0.1-0.5,0.1-0.8c0-0.3,0.1-0.5,0.2-0.7c0.6-1.8,1.3-3.7,2.1-5.5c0.7-1.9,1.5-3.7,2.2-5.5l2.4,0.8
		c0,0,0,0,0,0c0,0,0.1-0.1,0.2-0.1c0,0,0.2,0,0.4,0.1c0.2,0.1,0.4,0.1,0.7,0.2s0.5,0.2,0.8,0.3c0.3,0.1,0.5,0.2,0.7,0.2
		c0.1,0,0.1,0.1,0.2,0.2C253.3,66.4,253.3,66.5,253.3,66.6z M247,73.4c0-0.2-0.1-0.5-0.3-0.7c-0.2-0.2-0.4-0.3-0.7-0.3
		c-0.3,0-0.6,0.1-0.8,0.4c-0.2,0.2-0.4,0.5-0.4,0.7c0,0.2,0.1,0.4,0.3,0.7c0.2,0.2,0.5,0.4,0.8,0.4c0.2,0,0.4-0.1,0.7-0.2
		C246.9,74,247,73.8,247,73.4z M247.3,77.5c0-0.2-0.1-0.5-0.3-0.7c-0.2-0.2-0.5-0.3-0.8-0.3c-0.3,0-0.5,0.1-0.7,0.2
		c-0.2,0.1-0.3,0.4-0.3,0.8c0,0.1,0,0.2,0.1,0.3c0,0.1,0.1,0.2,0.2,0.4c0.1,0.1,0.2,0.2,0.3,0.3c0.1,0.1,0.3,0.1,0.5,0.1
		c0,0,0.1,0,0.3-0.1c0.1,0,0.2-0.1,0.4-0.2c0.1-0.1,0.2-0.2,0.3-0.3C247.2,77.9,247.3,77.7,247.3,77.5z M248.3,70.2
		c0,0,0-0.1-0.1-0.2c0-0.1-0.1-0.2-0.2-0.3c-0.1-0.1-0.2-0.2-0.3-0.3c-0.1-0.1-0.3-0.1-0.4-0.1c-0.3,0-0.6,0.1-0.8,0.3
		c-0.2,0.2-0.3,0.5-0.3,0.7c0,0.2,0.1,0.4,0.2,0.6s0.4,0.4,0.8,0.4c0.2,0,0.5-0.1,0.7-0.3C248.2,70.7,248.3,70.4,248.3,70.2z
		 M248.8,85.9l-0.2-0.1c0,0,0,0.1,0.1,0.1C248.7,85.9,248.7,85.9,248.8,85.9z M250.8,67.2c0-0.2-0.1-0.4-0.3-0.7
		c-0.2-0.2-0.5-0.4-0.8-0.4c-0.4,0-0.6,0.1-0.8,0.4c-0.2,0.3-0.3,0.5-0.3,0.6c0,0.2,0.1,0.4,0.2,0.7c0.2,0.2,0.4,0.3,0.8,0.3
		c0.2,0,0.4-0.1,0.7-0.3C250.7,67.7,250.8,67.5,250.8,67.2z M263.1,79.7c-0.4,0-0.7,0-0.8,0c-0.1,0.1-0.3,0.1-0.4,0.2l-0.2-0.2
		c0.3-0.2,0.5-0.5,0.5-0.8c0-0.3,0-0.5,0-0.6c0.1-0.1,0.1-0.2,0.2-0.3c0.1-0.1,0.1-0.3,0.2-0.4c-0.1-0.1-0.2-0.2-0.2-0.3
		c0,0-0.1,0-0.3-0.1c-0.1,0-0.2,0-0.3,0l-0.8,0.3l-3.2-8.9h-0.4l-3.1,9.6c0,0.1,0,0.2,0,0.3c0,0.1,0.1,0.2,0.1,0.2
		c0.2,0,0.3,0.1,0.5,0.2c0.2,0.1,0.3,0.1,0.5,0.1c0.1,0,0.2,0,0.3-0.1c0.1,0,0.3-0.1,0.4-0.1c0.2,0,0.3-0.1,0.4-0.1
		c0.1,0,0.3-0.1,0.3-0.1c0.1,0,0.3,0,0.5,0.1c0.2,0,0.7,0.1,1.4,0.1c0.1,0,0.2,0.1,0.4,0.2c0.2,0.1,0.3,0.2,0.3,0.3
		c-0.1,0.2-0.3,0.3-0.6,0.3c-0.3,0-0.4,0-0.5,0c-0.3,0.3-0.7,0.5-1.1,0.7c-0.4,0.2-0.8,0.4-1.1,0.6v0.4l0.3,0.3
		c-0.1,0-0.2,0.1-0.3,0.1c-0.1,0-0.2,0.1-0.3,0.1c0,0-0.1-0.1-0.1-0.2c0-0.1-0.1-0.2-0.1-0.2c-0.3,0.3-0.7,0.6-1.1,0.7
		c-0.4,0.2-0.8,0.3-1.2,0.5c-0.4,0.1-0.9,0.3-1.3,0.4c-0.4,0.1-0.9,0.3-1.3,0.5h0.7c0.1,0,0.3,0,0.6-0.1c0.2-0.1,0.4-0.2,0.6-0.2
		c0,0,0.1,0.1,0.2,0.2c0.1,0.1,0.1,0.2,0.2,0.2c0-0.1,0-0.2,0-0.3c0-0.1,0-0.2,0-0.2c0.1,0,0.2,0,0.3-0.1c0.1,0,0.2-0.1,0.3-0.1
		c0.1,0.1,0.2,0.2,0.3,0.4c0.1,0.1,0.1,0.2,0.2,0.4c0-0.1,0-0.2,0-0.4s-0.1-0.3-0.1-0.4c0.1,0,0.2-0.1,0.3-0.1
		c0.1,0,0.1-0.1,0.2-0.1c0.1,0.2,0.2,0.3,0.3,0.5c0.1,0.1,0.1,0.3,0.2,0.5h0.4l-0.3-1c0.1,0,0.2-0.1,0.3-0.1c0.1,0,0.2,0,0.3-0.1
		l0.5,1.1c0-0.2,0-0.3-0.1-0.5c-0.1-0.2-0.1-0.4-0.2-0.6c0.1-0.1,0.2-0.2,0.3-0.2c0.1,0,0.2,0,0.3-0.1c0,0.2,0.1,0.3,0.2,0.5
		c0.1,0.2,0.1,0.3,0,0.5h0.5c0-0.1,0-0.2,0.1-0.3c0.1-0.1,0.2-0.2,0.2-0.2c0.1,0.2,0.1,0.3,0.2,0.5s0.1,0.3,0.2,0.4
		c0-0.2-0.1-0.4-0.1-0.6c0-0.2,0-0.4,0-0.5c0.1,0,0.2,0,0.3,0c0.1,0,0.1,0,0.3,0c0.1,0,0.2,0.1,0.3,0.2c0,0.1,0.1,0.2,0.1,0.2
		c0.1-0.2,0.1-0.3,0.1-0.4c-0.1-0.1,0-0.2,0.3-0.3c0.1,0.2,0.2,0.4,0.3,0.6c0.1,0.2,0.2,0.4,0.2,0.6h0.4c-0.1-0.3-0.2-0.5-0.2-0.7
		c0-0.2,0-0.4,0-0.5c0.2-0.1,0.4-0.1,0.5-0.1c0.2-0.2,0.4-0.4,0.6-0.7c0.2-0.3,0.5-0.5,0.8-0.7c0.2-0.1,0.4-0.2,0.6-0.3
		C262.7,79.9,262.9,79.8,263.1,79.7z M258,81c0,0-0.1,0-0.3,0.1c-0.1,0-0.3,0.1-0.5,0.1c0,0,0-0.1,0.1-0.2c0.1-0.1,0.1-0.2,0.2-0.3
		c0,0,0.1,0.1,0.3,0.1C257.7,80.9,257.8,80.9,258,81z M257.5,84.2h-0.4v0.4c0.1,0,0.2-0.1,0.3-0.2C257.5,84.3,257.5,84.3,257.5,84.2
		z M259.9,80.1c0,0.2-0.1,0.3-0.3,0.4c-0.2,0.1-0.5,0.2-0.8,0.2c0-0.2,0.1-0.3,0.2-0.3c0.1-0.1,0.2-0.1,0.3-0.2
		c0.1,0,0.2-0.1,0.3-0.1c0.1-0.1,0.2-0.1,0.3-0.3c0,0,0,0,0.1,0C259.9,79.9,259.9,80,259.9,80.1z M261.6,64.4
		c-0.2-0.2-0.3-0.4-0.4-0.5c-0.1-0.2-0.3-0.3-0.4-0.3V64c0.2,0.2,0.3,0.3,0.4,0.5c0.1,0.2,0.2,0.4,0.3,0.5L261.6,64.4z M261.9,65.6
		v-0.5h-0.2v0.5H261.9z M262.3,66.1l-0.1-0.1l-0.1,0.3l0.1,0.1L262.3,66.1z M263.4,68.9v-0.6c0-0.1-0.1-0.3-0.2-0.4
		c-0.1-0.2-0.2-0.3-0.3-0.4c0,0-0.1,0.1-0.1,0.3c0,0.1,0,0.2,0,0.3c0,0.1,0.1,0.3,0.2,0.5C263,68.6,263.1,68.8,263.4,68.9z
		 M264.4,72.1v-0.4c-0.1-0.2-0.2-0.3-0.3-0.5c-0.1-0.2-0.1-0.3-0.2-0.5c0-0.2-0.1-0.3-0.1-0.5c0-0.2-0.1-0.3-0.1-0.3
		c0,0.1,0,0.3,0,0.5c0,0.2,0,0.4,0.1,0.7c0.1,0.2,0.1,0.4,0.3,0.6C264.2,71.8,264.3,72,264.4,72.1z M273.5,86.6c0,0-0.1,0-0.2,0.1
		s-0.2,0.1-0.3,0.1c0,0-0.1,0.1-0.1,0.2c0,0.1,0,0.2,0,0.2c-0.9-0.5-1.7-1.1-2.4-1.8c-0.6-0.7-1.2-1.4-1.5-2.1
		c-0.4-0.7-0.7-1.5-0.9-2.2c-0.2-0.8-0.3-1.5-0.3-2.1c0-1.4,0.4-2.8,1.2-4.3L273.5,86.6z"/>
	<path class="st3" d="M302.2,88.1c-0.1,0.1-0.1,0.3-0.2,0.5c0,0.2-0.1,0.4-0.2,0.6c-0.1,0.2-0.2,0.4-0.3,0.5
		c-0.1,0.1-0.3,0.2-0.6,0.2h-16.3c-0.1,0-0.2,0-0.4-0.1c-0.1-0.1-0.3-0.1-0.4-0.1c-0.1,0-0.2,0-0.4,0c-0.2,0-0.4,0-0.6,0.1
		c-0.2,0-0.5,0-0.6,0.1c-0.2,0-0.3,0-0.4,0c-0.1,0-0.2,0-0.5,0c-0.2,0-0.5,0-0.8-0.1c-0.3,0-0.6,0-1-0.1c-0.3,0-0.6,0-0.8,0
		c-0.2-0.1-0.3-0.2-0.4-0.5c-0.1-0.3-0.1-0.4-0.1-0.4c0-0.1,0-0.2,0.1-0.3c0.1-0.1,0.2-0.2,0.3-0.3c0,0,0.1,0,0.2,0
		c0.1,0,0.2,0,0.4,0c0.1,0,0.4,0,0.8-0.1c0.4-0.1,0.8-0.2,1.2-0.3c0.1,0,0.3-0.1,0.5-0.2c0.2-0.1,0.4-0.2,0.5-0.4
		c0.1-0.1,0.2-0.3,0.3-0.5c0.1-0.2,0.1-0.4,0.1-0.5v-1.8c0,0,0-0.2,0-0.4c0-0.3,0-0.6,0-0.9c0-0.3,0.1-0.7,0.1-1
		c0-0.3,0.1-0.6,0.3-0.7c0.4,0.1,0.7,0.3,1.1,0.6c0.3,0.3,0.7,0.6,1,0.9c0.3,0.3,0.6,0.6,0.8,0.9c0.3,0.3,0.5,0.6,0.8,0.8v2.9
		c0,0.1,0.1,0.2,0.2,0.3s0.2,0.2,0.3,0.3h1.9c0.1,0,0.2-0.1,0.2-0.1c0,0,0-0.1,0-0.1l0.3,0.2h0.6c0-0.1,0.1-0.2,0.1-0.3
		c0-0.1,0-0.3-0.2-0.4c0.1,0.1,0.3,0.1,0.4,0.1c0.2,0,0.4,0,0.6,0c0.2,0,0.4,0,0.6,0.1c0.2,0.1,0.4,0.2,0.6,0.4H302.2z M293.6,61.8
		c0,0.3-0.1,0.6-0.3,0.7c-0.2,0.1-0.5,0.2-0.8,0.3s-0.7,0.1-1,0.1s-0.7,0.1-1,0.3c-0.3,0.1-0.6,0.4-0.8,0.7
		c-0.2,0.3-0.3,0.7-0.3,1.3v8.9c0,0.1,0,0.2-0.1,0.3c-0.1,0.1-0.2,0.2-0.2,0.3c-0.2-0.1-0.5-0.3-0.8-0.4c-0.3-0.2-0.6-0.3-0.8-0.5
		v-6.2l1.1-1.9c-0.4-0.6-0.7-1.1-0.9-1.6c-0.2-0.5-0.3-0.9-0.1-1.5l-0.3-0.3c-0.1,0.3-0.2,0.6-0.1,0.9c0,0,0-0.1-0.1-0.1
		c-0.1,0-0.1-0.1-0.2-0.1h-2.1l1.4,2.6l-1.4,2.7h2.1c0.1,0,0.2-0.1,0.2-0.1c0,0,0-0.1,0.1-0.1v13.3c-0.1,0.2-0.2,0.3-0.3,0.3
		c-0.1,0-0.3,0-0.4,0.1c0.1,0.2,0.2,0.4,0.2,0.7c0,0.3,0,0.5,0,0.8c-0.2-0.2-0.4-0.4-0.7-0.5c0-0.1,0-0.2,0-0.3c0-0.1,0-0.2-0.1-0.3
		c-0.1-0.1-0.2-0.2-0.3-0.4c-0.1-0.1-0.1-0.2-0.2-0.3c0,0-0.1,0-0.2-0.1c-0.1,0-0.2-0.1-0.3-0.1c0-0.1-0.1-0.2-0.2-0.3
		c-0.1-0.1-0.1-0.2-0.3-0.3c0,0-0.1,0-0.2-0.1c-0.1,0-0.2,0-0.3-0.1c-0.1,0-0.2-0.1-0.3-0.3c-0.1-0.2-0.3-0.4-0.4-0.6
		c-0.1-0.2-0.3-0.4-0.4-0.6s-0.2-0.3-0.2-0.4v-9.6c0-0.1,0.1-0.2,0.2-0.4s0.2-0.3,0.3-0.4h0.4l0.2,0.2l0.5-0.1v-0.2
		c-0.1,0-0.2-0.1-0.4-0.1c-0.2,0-0.3-0.1-0.5-0.1c-0.2,0-0.3-0.1-0.5-0.2c-0.1-0.1-0.2-0.3-0.2-0.5v-2.8c0-0.5-0.1-0.8-0.4-1.1
		c-0.3-0.3-0.6-0.5-1-0.6c-0.4-0.1-0.8-0.2-1.2-0.2s-0.7-0.1-1-0.1c0,0-0.1-0.1-0.2-0.2c-0.1-0.1-0.1-0.1-0.2-0.2
		c0-0.1,0.1-0.3,0.1-0.5c0-0.2,0-0.4,0-0.6c0.1-0.1,0.2-0.1,0.4-0.2s0.4-0.1,0.6-0.1c0.2,0,0.4,0,0.6-0.1c0.2,0,0.4,0,0.5,0
		s0.3,0.1,0.6,0.2c0.2,0.1,0.4,0.2,0.5,0.2c0.1,0,0.3-0.1,0.5-0.2s0.3-0.2,0.4-0.2h4.1c0.2,0,0.4,0,0.8,0c0.3,0,0.6,0,0.9,0
		c0.3,0,0.6,0.1,0.8,0.1c0.3,0,0.4,0.1,0.6,0.2c0,0.2,0,0.4-0.1,0.7c0,0.2,0,0.5,0.1,0.7c0.2,0,0.3-0.1,0.3-0.2s0.1-0.2,0.1-0.4
		c0-0.1,0-0.3,0.1-0.5c0-0.2,0.2-0.3,0.4-0.5c0.1-0.1,0.3-0.1,0.5-0.1c0.2,0,0.4,0,0.6,0c0.4,0,0.7,0.1,1,0.2
		C293.5,61.2,293.6,61.4,293.6,61.8z M285.4,65.7l-1-1.9h-1.2l1.1,1.9l-1.1,1.8h1.3L285.4,65.7z M284.6,72c0-0.2,0-0.3,0-0.4
		c-0.1-0.1-0.1-0.1-0.2-0.1C284.4,71.8,284.5,71.9,284.6,72z M289.4,86h-0.6l-1-3v-6.6c0-0.1,0-0.2-0.1-0.3
		c-0.1-0.1-0.2-0.1-0.2-0.3l0.1-1.4h0.1c0,0,0,0,0.1,0c0,0,0.1,0,0.1,0c0.1,0,0.1,0.1,0.2,0.2c0,0.1,0.1,0.2,0.1,0.3
		c0,0.1-0.1,0.2-0.2,0.3c-0.1,0.1-0.1,0.2-0.1,0.4v0.5c0,0,0.1,0.1,0.1,0.1c0,0,0.1,0,0.2,0c0.1,0,0.2,0,0.4-0.1s0.2-0.1,0.4-0.2
		c0.1,0.3,0.2,0.7,0.3,1.1c0.1,0.4,0.1,0.7,0.1,0.8V86z M303.7,82.2c0,0.2-0.1,0.4-0.2,0.7c-0.1,0.3-0.2,0.5-0.3,0.8
		c0,0,0,0.1-0.1,0.2c0,0.1,0,0.2-0.1,0.3c0,0.1-0.1,0.2-0.1,0.3s-0.1,0.1-0.2,0.1c-0.1,0-0.3-0.1-0.7-0.2c-0.3-0.1-0.6-0.2-0.7-0.2
		h-0.5l-0.2,0.2c0,0.2,0.1,0.3,0.4,0.3c0.1,0,0.2,0,0.1-0.1c0,0,0,0,0.2,0c0.3,0,0.6,0.1,1,0.3c0.4,0.2,0.6,0.4,0.6,0.6
		c0,0.1,0,0.2-0.1,0.4c-0.1,0.2-0.1,0.3-0.1,0.4c-0.1,0.1-0.3,0.1-0.4,0.1c-0.2,0-0.4,0-0.6,0c-0.2,0-0.4,0-0.6,0.1
		s-0.3,0.2-0.5,0.4h-2.3c0.4-0.3,0.8-0.8,1.2-1.2s0.8-0.9,1.2-1.3c0.2-0.4,0.4-0.9,0.7-1.4c0.3-0.5,0.5-0.9,0.8-1.4
		c0.2,0,0.5,0.1,0.8,0.2C303.1,81.9,303.4,82,303.7,82.2z"/>
	<path class="st3" d="M313.8,71.6l-3.3,2.6l-0.2-0.1l-1.5,1.1l-9.1-11.7l4.7-3.3L313.8,71.6z M304.2,63.4c0-0.2-0.1-0.4-0.3-0.7
		c-0.2-0.3-0.4-0.4-0.8-0.4c-0.3,0-0.5,0.1-0.7,0.3c-0.2,0.2-0.3,0.4-0.3,0.7c0,0.3,0.1,0.5,0.3,0.7s0.4,0.3,0.8,0.3
		c0.3,0,0.5-0.1,0.7-0.2C304.1,64,304.2,63.7,304.2,63.4z M305.4,67c0-0.2-0.1-0.5-0.3-0.7c-0.2-0.2-0.5-0.3-0.8-0.3
		c-0.3,0-0.5,0.1-0.7,0.4c-0.2,0.2-0.3,0.5-0.3,0.7c0,0.2,0.1,0.4,0.3,0.6c0.2,0.2,0.5,0.3,0.8,0.3c0.3,0,0.5-0.1,0.7-0.2
		S305.4,67.4,305.4,67z M307.6,69.8c0-0.2-0.1-0.5-0.3-0.7c-0.2-0.2-0.5-0.3-0.8-0.3c-0.3,0-0.5,0.1-0.7,0.4
		c-0.2,0.2-0.3,0.5-0.3,0.7c0,0,0,0.1,0.1,0.2c0,0.1,0.1,0.2,0.2,0.3c0.1,0.1,0.2,0.2,0.3,0.3c0.1,0.1,0.3,0.1,0.5,0.1
		c0.3,0,0.5-0.1,0.7-0.3S307.6,70.1,307.6,69.8z M311.2,72c0,0,0-0.1-0.1-0.2c0-0.1-0.1-0.2-0.2-0.3c-0.1-0.1-0.2-0.2-0.3-0.3
		s-0.3-0.1-0.5-0.1c-0.3,0-0.5,0.1-0.7,0.3c-0.2,0.2-0.3,0.4-0.3,0.7c0,0.2,0.1,0.5,0.3,0.7c0.2,0.2,0.5,0.3,0.8,0.3
		c0.3,0,0.5-0.1,0.7-0.3C311.1,72.6,311.2,72.3,311.2,72z M328.9,61.8l-2.7,3.8c0,0-0.1-0.1-0.1-0.3c0-0.1-0.1-0.2-0.1-0.3h-0.3
		c-0.1,0.1-0.2,0.2-0.2,0.3c0,0.1,0,0.3,0.1,0.4c0,0.1,0.1,0.3,0.1,0.4s0,0.2,0,0.3c-0.1,0.3-0.4,0.7-0.7,1.1
		c-0.3,0.5-0.7,1-1.1,1.5c-0.4,0.5-0.8,1.1-1.2,1.7s-0.8,1.1-1.2,1.7c-0.4,0.6-0.8,1.2-1.2,1.9c-0.4,0.7-0.8,1.3-1.2,2l-4.2-0.1
		c-0.1,0-0.3,0-0.6,0c-0.3,0-0.5,0-0.8,0c-0.3,0-0.5,0.1-0.7,0.2c-0.2,0.1-0.3,0.3-0.3,0.5v8.3l5.1,0.3v3.9c0,0.2-0.1,0.4-0.3,0.5
		c-0.2,0.1-0.5,0.2-0.8,0.2c-0.3,0-0.6,0-0.8,0c-0.3,0-0.4,0-0.4,0l-4.1-0.1c-0.1,0-0.3-0.1-0.4-0.2s-0.3-0.3-0.3-0.4V78.6l-1.3-2.2
		c0-0.1,0.1-0.2,0.2-0.4s0.1-0.3,0.2-0.3c0.5-0.3,0.9-0.7,1.4-1c0.5-0.3,1-0.6,1.4-0.9s0.9-0.7,1.3-1s0.8-0.8,1.1-1.2
		c0.2-0.2,0.5-0.7,1-1.5c0.5-0.8,1.1-1.7,1.7-2.7s1.4-2.1,2.1-3.3c0.7-1.2,1.5-2.2,2.1-3.2c0-0.1,0.2-0.1,0.4-0.2
		c0.2,0,0.4-0.1,0.7-0.1s0.5,0,0.7,0s0.4,0,0.5,0c0.1,0,0.2,0,0.5,0c0.2,0,0.5,0,0.8,0.1c0.3,0,0.5,0,0.8,0.1c0.2,0,0.4,0,0.5,0
		c0.1,0,0.3,0,0.5-0.1s0.4-0.1,0.6-0.1c0.3,0,0.6,0.1,0.8,0.4S328.8,61.6,328.9,61.8z M312.4,86.5c0.3-0.1,0.3-0.2,0-0.4L312.4,86.5
		z M319.9,84.4l-6.4,0.3v-7.4h6.4V84.4z M316,79c0-0.2-0.1-0.4-0.3-0.6c-0.2-0.2-0.5-0.4-0.7-0.4c-0.3,0-0.6,0.1-0.8,0.4
		s-0.3,0.4-0.3,0.6c0,0.2,0.1,0.4,0.3,0.6c0.2,0.2,0.4,0.3,0.7,0.3c0.2,0,0.4-0.1,0.7-0.2C315.9,79.5,316,79.3,316,79z M317.7,82.7
		c0-0.2-0.1-0.3-0.2-0.6c-0.2-0.2-0.4-0.3-0.8-0.3c-0.2,0-0.4,0.1-0.7,0.2c-0.2,0.1-0.3,0.4-0.3,0.7c0,0.2,0.1,0.4,0.2,0.6
		c0.2,0.2,0.4,0.3,0.8,0.3c0.2,0,0.4-0.1,0.7-0.2S317.7,83.1,317.7,82.7z M319.2,78.9c0-0.2-0.1-0.4-0.2-0.6
		c-0.1-0.2-0.4-0.3-0.8-0.3c-0.3,0-0.6,0.1-0.7,0.3s-0.2,0.4-0.2,0.6s0.1,0.4,0.2,0.6c0.2,0.2,0.4,0.3,0.7,0.3
		c0.2,0,0.4-0.1,0.6-0.2C319.1,79.4,319.2,79.2,319.2,78.9z M322.5,68.5c-0.1,0-0.2-0.1-0.4-0.2c-0.1-0.1-0.2-0.1-0.3-0.1
		c0,0.1,0,0.3,0.1,0.5c0.1,0.2,0.2,0.3,0.4,0.4L322.5,68.5z M326.2,63.9v-0.5H326v0.5H326.2z"/>
	<path class="st3" d="M356.8,70.1c0,0.1-0.1,0.2-0.3,0.4c-0.2,0.2-0.3,0.3-0.4,0.3H349c-0.1,0-0.3,0-0.4-0.1
		c-0.1-0.1-0.2-0.2-0.3-0.3c-0.2-0.4-0.3-0.8-0.4-1.2c-0.1-0.4-0.3-0.9-0.4-1.3h-6.3c-0.1,0-0.2,0.1-0.4,0.2
		c-0.1,0.1-0.3,0.2-0.4,0.3c-0.3-0.2-0.6-0.5-0.9-0.6c-0.3-0.2-0.6-0.3-0.9-0.3c-0.2,0-0.5,0.2-0.8,0.5c-0.3,0.3-0.6,0.7-0.9,1.2
		c-0.3,0.4-0.6,0.8-0.8,1.2c-0.2,0.3-0.3,0.5-0.3,0.6c-0.1,0.2-0.3,0.4-0.4,0.6s-0.3,0.4-0.5,0.6c-0.2,0.2-0.3,0.4-0.4,0.6
		c-0.1,0.2-0.2,0.4-0.1,0.6l7.2,5c-0.4-0.1-0.9-0.1-1.4-0.2s-1-0.1-1.5-0.1c-0.5,0-0.9-0.1-1.4-0.2s-0.8-0.2-1.1-0.4
		c-0.2-0.1-0.5-0.3-0.9-0.6c-0.4-0.3-0.8-0.7-1.3-1.1s-1-0.8-1.5-1.3c-0.5-0.4-1-0.8-1.4-1.2c0-0.2-0.1-0.4-0.1-0.7
		c0-0.3-0.1-0.5-0.1-0.7v-6c0-0.1,0.1-0.3,0.4-0.6s0.5-0.5,0.7-0.7c0.7-0.6,1.5-1.2,2.3-1.8c0.8-0.6,1.6-1.3,2.4-1.9
		c0.1-0.1,0.3-0.2,0.6-0.3c0.3-0.1,0.5-0.2,0.6-0.2h2.1c0.1,0,0.2,0,0.3,0.1c0.2,0,0.3,0.1,0.5,0.1s0.3,0.1,0.5,0.1s0.3,0.1,0.3,0.1
		c0.1,0,0.3,0,0.5-0.1c0.2,0,0.4-0.1,0.6-0.2l1.3,0.2c0.2,0,0.4-0.1,0.7-0.2s0.4-0.1,0.5-0.1c0.5,0,0.7,0.1,0.9,0.4
		c0.1,0.2,0.2,0.4,0.2,0.5h0.6c0.1,0,0.2-0.1,0.1-0.2s0-0.2,0-0.3c0.1-0.1,0.3-0.2,0.4-0.2c0.2-0.1,0.3-0.1,0.5-0.1
		c0.5,0,0.8,0.1,1,0.1c0.2,0,0.4,0,0.4-0.1c0.1,0,0.2-0.1,0.2-0.1c0,0,0.1-0.1,0.2-0.1s0.2,0,0.4,0.1s0.3,0.2,0.5,0.3
		c0.2,0.1,0.3,0.2,0.5,0.3c0.1,0.1,0.2,0.2,0.3,0.2c0.2,0.1,0.4,0.3,0.8,0.6c0.3,0.2,0.7,0.5,1.1,0.8c0.4,0.3,0.8,0.6,1.2,0.9
		c0.4,0.3,0.8,0.6,1.1,0.9c0.3,0.3,0.6,0.5,0.8,0.7c0.2,0.2,0.3,0.3,0.3,0.4V70.1z M357.3,82.8c0,0.1,0,0.2-0.1,0.3
		s-0.1,0.1-0.1,0.1c0,0.2,0,0.4,0,0.7c0,0.3,0,0.5,0,0.7c-0.1,0.2-0.3,0.3-0.6,0.5c-0.3,0.2-0.4,0.3-0.6,0.3h-12.2
		c0.3,0.4,0.6,0.8,0.9,1.3c0.3,0.5,0.7,0.9,1,1.4c0.1,0,0.2,0,0.3,0c0.1,0,0.2,0,0.3,0c0.1,0.1,0.2,0.3,0.3,0.4s0.2,0.3,0.3,0.5h4.5
		c-0.2,0.1-0.3,0.3-0.5,0.4s-0.4,0.3-0.5,0.3h-4.1l-2.9-4.4h-7.7l-1.3,2c0,0-0.1,0-0.1,0c-0.1,0-0.2-0.1-0.2-0.1l1.2-1.9h-3.6
		c-0.2-0.2-0.3-0.3-0.5-0.5c-0.2-0.2-0.3-0.3-0.3-0.5V80c0-0.1,0.1-0.3,0.3-0.4c0.2-0.2,0.3-0.3,0.5-0.3h7.2c0.2,0,0.4,0.1,0.5,0.4
		c0.2,0.3,0.3,0.6,0.4,0.9c0.1,0.4,0.2,0.9,0.3,1.4c0,0,0.1,0.1,0.1,0.1s0,0.1,0.1,0.2h5.1c0,0.1,0,0.3,0.1,0.5
		c0.2,0,0.3-0.1,0.5-0.2s0.3-0.2,0.4-0.4v-1.9c-0.1-0.1-0.3-0.2-0.5-0.3c-0.2-0.1-0.3-0.2-0.5-0.3c-0.1-0.1-0.1-0.2-0.2-0.4
		c0-0.2-0.1-0.3-0.3-0.4c-1.2-0.7-2.2-1.3-3-1.8c-0.9-0.5-1.7-1-2.4-1.5c-0.7-0.5-1.4-0.9-2.1-1.3c-0.7-0.4-1.4-0.9-2.3-1.4v-0.3
		l3.5-4.7L355,78.8v0.4c-0.5,0.4-0.8,0.8-1,1.2c-0.2,0.4-0.5,0.9-0.9,1.5c0,0,0.1,0.1,0.2,0.1s0.1,0,0.2,0.1
		c0.2-0.2,0.5-0.5,0.8-0.8c0.3-0.3,0.6-0.6,0.8-0.9c0.2-0.3,0.4-0.7,0.6-1c0.1-0.3,0.2-0.6,0.1-0.9c-1.7-1.1-3.4-2.2-5.1-3.4
		c-1.7-1.2-3.4-2.3-5.2-3.5c0.5,0,1,0.1,1.5,0.1s1.1,0.1,1.6,0.2c0.5,0.1,1.1,0.2,1.6,0.3c0.5,0.1,1,0.2,1.5,0.4
		c0.1,0.1,0.4,0.2,0.7,0.5c0.3,0.2,0.7,0.5,1.2,0.9c0.5,0.3,1,0.7,1.6,1.2c0.6,0.4,1.2,0.9,1.9,1.4c0,0.2,0.1,0.4,0.1,0.7
		s0.1,0.4,0.1,0.5V82.8z M334.5,85.8l-0.7,1.1c0,0-0.1,0-0.1,0c-0.1,0-0.2-0.1-0.2-0.1l0.4-1l-1.7,0L334.5,85.8z M337.3,89.6
		l-1.9-1.3c0-0.1,0.1-0.3,0.2-0.5c0.1-0.2,0.2-0.3,0.2-0.5L337.3,89.6z M344.8,89.9h-5.3l-2.2-3.4h5.4L344.8,89.9z M339.5,71.5
		c0-0.3-0.1-0.5-0.2-0.7s-0.4-0.3-0.8-0.3c-0.3,0-0.6,0.1-0.8,0.4c-0.2,0.2-0.3,0.5-0.3,0.6c0,0.2,0.1,0.5,0.2,0.7
		c0.1,0.2,0.4,0.3,0.9,0.3c0.2,0,0.4-0.1,0.6-0.2C339.3,72.1,339.5,71.9,339.5,71.5z M343.7,72.6c0-0.7-0.3-1-1-1
		c-0.7,0-1,0.3-1,0.9c0,0.2,0.1,0.5,0.2,0.7c0.1,0.2,0.4,0.3,0.8,0.3C343.3,73.5,343.7,73.2,343.7,72.6z M345.4,62.1
		c0-0.1,0-0.2,0-0.2c0,0-0.1-0.1-0.1-0.1h-0.4c-0.2,0.2-0.5,0.4-0.8,0.7c-0.3,0.2-0.6,0.5-0.8,0.7c0.2,0,0.4-0.1,0.5-0.1
		s0.2-0.1,0.4-0.1c0.1,0,0.2,0,0.3,0.1c0.1,0.1,0.2,0.1,0.4,0.1c0-0.2,0.2-0.3,0.3-0.6C345.3,62.4,345.4,62.2,345.4,62.1z
		 M355.6,85.7c-0.2,0.1-0.3,0.1-0.5,0.1c-0.2,0-0.3,0.1-0.5,0.1c0,0,0.1,0.1,0.2,0.2c0.1,0.1,0.1,0.2,0.2,0.2l-0.3,0.3
		c0-0.1-0.1-0.2-0.2-0.4c-0.1-0.1-0.2-0.2-0.3-0.4l-1.3,0l0.9,1.3c0,0,0,0.1-0.1,0.2c-0.1,0.1-0.2,0.2-0.2,0.2h-7.5l-1.2-2
		L355.6,85.7z M347,74.7c0-0.2-0.1-0.5-0.4-0.7c-0.2-0.2-0.5-0.3-0.8-0.3c-0.4,0-0.7,0.1-0.9,0.4s-0.3,0.5-0.3,0.7
		c0,0.1,0.1,0.3,0.2,0.6c0.2,0.3,0.4,0.4,0.8,0.4c0.2,0,0.4-0.1,0.7-0.3C346.9,75.4,347,75.1,347,74.7z M347.6,87.5l-1.1-1.6l-1.4,0
		c0.2,0.2,0.3,0.4,0.4,0.6c0.1,0.2,0.2,0.4,0.4,0.6c0.1,0.2,0.3,0.3,0.6,0.4S347.1,87.6,347.6,87.5z M349.4,87.6l-1-1.6l-1.4,0
		l1,1.6H349.4z M353.2,64.9c0-0.6-0.2-1.1-0.7-1.6c-0.4-0.5-1.1-0.7-1.9-0.7c-0.8,0-1.4,0.2-1.9,0.7c-0.4,0.5-0.7,1-0.7,1.7
		c0,0.7,0.2,1.2,0.7,1.7c0.4,0.5,1,0.7,1.8,0.7c0.7,0,1.3-0.2,1.8-0.6C352.9,66.3,353.2,65.7,353.2,64.9z M350.3,76.8
		c0-0.2-0.1-0.5-0.3-0.7c-0.2-0.2-0.4-0.3-0.8-0.3c-0.3,0-0.5,0.1-0.8,0.3s-0.4,0.4-0.4,0.7c0,0.2,0.1,0.4,0.3,0.6
		c0.2,0.3,0.5,0.4,0.8,0.4c0.2,0,0.5-0.1,0.7-0.3S350.3,77.1,350.3,76.8z M352.9,65c0,0.6-0.2,1.1-0.7,1.5c-0.4,0.4-1,0.6-1.5,0.6
		c-0.4,0-0.7-0.1-1-0.2s-0.5-0.3-0.7-0.5c-0.2-0.2-0.3-0.4-0.4-0.7c-0.1-0.3-0.1-0.5-0.1-0.7c0-0.5,0.2-1,0.6-1.4
		c0.4-0.4,0.9-0.7,1.7-0.7c0.6,0,1.2,0.2,1.6,0.6C352.6,63.9,352.9,64.4,352.9,65z M351.3,87.6l-1-1.6l-1.5,0l1,1.6H351.3z
		 M353.2,87.6l-0.9-1.6l-1.5,0l1,1.6H353.2z"/>
	<path class="st3" d="M364,63.3c0-0.1-0.1-0.1-0.3-0.1c0,0.1-0.1,0.2,0,0.3c0,0.1,0,0.2,0,0.4c0,0-0.1,0.1-0.1,0.2
		c0,0.1-0.1,0.2-0.2,0.3c0.1,0.2,0.2,0.5,0.2,0.9c0,0.3,0,0.6-0.1,1c0,0.3-0.1,0.6-0.2,0.9c-0.1,0.3-0.2,0.6-0.3,0.8
		c-0.1,0-0.2,0.1-0.3,0.1c-0.1,0-0.3,0-0.5,0s-0.3,0-0.5,0c-0.1,0-0.3,0-0.3,0c0,0-0.2,0-0.4,0s-0.4,0-0.6-0.1
		c-0.2,0-0.4-0.1-0.6-0.2c-0.2-0.1-0.3-0.2-0.3-0.4v-6.2c0-0.2,0.1-0.4,0.3-0.5c0.2-0.2,0.5-0.2,0.7-0.2h3.4V63.3z M389.8,67.4
		c0,0.2-0.1,0.3-0.2,0.4s-0.3,0.2-0.4,0.2c-0.2,0-0.4,0.1-0.7,0.1c-0.1,0-0.2,0-0.4-0.1c-0.2,0-0.3-0.1-0.5-0.1s-0.4-0.1-0.5-0.1
		s-0.3-0.1-0.4-0.1c-0.1,0-0.2,0-0.3,0.1s-0.3,0.1-0.5,0.1c-0.2,0-0.3,0.1-0.5,0.1c-0.2,0-0.3,0.1-0.3,0.1c-0.1,0-0.2,0-0.4-0.1
		c-0.2,0-0.4-0.1-0.5-0.1s-0.4-0.1-0.6-0.2c-0.1,0-0.2,0.1-0.4,0.2c-0.1,0.1-0.3,0.2-0.4,0.2h-3.1v17.2c0,0.1,0,0.3-0.1,0.6
		c-0.1,0.3-0.1,0.5-0.1,0.7c0,0-0.1,0.1-0.2,0.1s-0.1,0.1-0.1,0.2v0.6c0,0,0.1,0.1,0.2,0.1c0.1,0,0.1,0,0.2,0.1
		c0.2,0.3,0.3,0.6,0.3,0.8c0,0.1,0,0.3-0.1,0.4c-0.1,0.2-0.1,0.3-0.2,0.5c-0.2-0.1-0.3-0.2-0.4-0.4s-0.2-0.3-0.3-0.4V72.9
		c0-0.1-0.1-0.3-0.3-0.6s-0.4-0.5-0.6-0.8l-1.9,2v-5.6h-0.3c-0.2,0.2-0.3,0.5-0.2,0.8c0,0.3,0.1,0.6,0.1,0.8c0,0.3,0,0.6-0.1,0.9
		c-0.1,0.3-0.1,0.6-0.1,0.9c0,0.2,0,0.3,0.1,0.6c0,0.2,0.1,0.4,0.1,0.6s0.1,0.4,0.1,0.5c0,0.2,0.1,0.3,0.1,0.3
		c0,0.4-0.3,0.8-0.8,1.3l0.8,0.6c0,0.1,0,0.2-0.1,0.3c-0.1,0.1-0.1,0.1-0.2,0.2c-0.1,0-0.2,0.1-0.3,0.1c-0.1,0-0.2,0-0.3,0.1
		c0,0.1,0.1,0.3,0.3,0.4c0.2,0.1,0.3,0.3,0.5,0.4c0,0.1,0,0.2,0,0.3c0,0.1,0.1,0.3,0.2,0.4c0-0.2,0.1-0.5,0.1-0.7
		c0-0.2,0.1-0.5,0.2-0.8c0,0-0.1-0.1-0.1-0.2c0-0.1-0.1-0.1-0.2-0.2l1.8,1.1v8l-3.1,3.9c-0.8-0.5-1.6-0.8-2.5-1.1
		c-0.9-0.3-1.8-0.4-2.6-0.4V68h-4.7c-0.1,0-0.2,0-0.4-0.1c-0.1-0.1-0.3-0.2-0.4-0.2v-2.3c0.2,0.2,0.3,0.3,0.4,0.3
		c0.1,0,0.3,0.1,0.4,0.1l10.7,0.1c0,0.1-0.1,0.2-0.1,0.3c-0.1,0.1,0,0.2,0.2,0.3c0.1-0.2,0.2-0.3,0.2-0.4c0-0.1,0-0.2,0-0.2h0.1
		l8.4,0.2c0.1,0,0.2,0,0.3-0.1c0.1,0,0.2-0.1,0.4-0.2s0.3-0.1,0.4-0.2c0.1-0.1,0.2-0.2,0.2-0.3c0-0.1,0-0.4,0-0.7c0-0.3,0-0.5,0-0.7
		v-3.6h3.2c0.1,0,0.3,0,0.4,0.1c0.2,0.1,0.3,0.2,0.4,0.3c0,0.2,0.1,0.4,0,0.6c0,0.2-0.1,0.4-0.1,0.6c0,0.2,0,0.3,0.1,0.5
		c0.1,0.2,0.1,0.3,0.1,0.5V67.4z M384.9,65.3h-6c-0.1,0-0.3,0-0.7-0.1c-0.3-0.1-0.5-0.1-0.7-0.1h-12.6c0,0-0.1-0.1-0.2-0.2
		c-0.1-0.1-0.1-0.2-0.1-0.3c0-0.1,0-0.2,0.1-0.2s0.1-0.1,0.1-0.1c0-0.2,0-0.4,0-0.6c0-0.2,0-0.4,0-0.7c0-0.2,0-0.4,0-0.6
		c0-0.2,0-0.3,0-0.4v-1.5c0-0.2,0-0.3,0-0.3c0-0.1,0-0.1,0.1-0.1c0.1,0,0.2,0,0.3,0c0.1,0,0.3,0,0.6,0h19V65.3z M368,62.3
		c0-0.2-0.1-0.4-0.2-0.6s-0.4-0.3-0.8-0.3c-0.2,0-0.5,0.1-0.7,0.2c-0.2,0.2-0.4,0.4-0.4,0.7c0,0.2,0.1,0.4,0.2,0.6
		c0.1,0.2,0.4,0.4,0.9,0.4c0.2,0,0.5-0.1,0.7-0.2C367.9,62.9,368,62.7,368,62.3z M375.8,90.6h-5.4c-0.1,0-0.3-0.1-0.5-0.3
		s-0.3-0.3-0.3-0.5v-2.1h1c0.3,0,0.7,0.1,1.3,0.3c0.5,0.2,1.1,0.4,1.6,0.7c0.5,0.3,1,0.6,1.5,0.9C375.3,89.9,375.6,90.3,375.8,90.6z
		 M371.8,63.6c0-0.2-0.1-0.5-0.3-0.7c-0.2-0.2-0.4-0.3-0.8-0.3c-0.3,0-0.6,0.1-0.8,0.3c-0.2,0.2-0.3,0.4-0.3,0.7
		c0,0.2,0.1,0.4,0.2,0.7s0.4,0.4,0.8,0.4c0.2,0,0.4-0.1,0.7-0.2C371.7,64.3,371.8,64,371.8,63.6z M375.9,63.5c0-0.2-0.1-0.5-0.3-0.7
		c-0.2-0.2-0.5-0.3-0.8-0.3c-0.3,0-0.5,0.1-0.8,0.4c-0.2,0.2-0.3,0.5-0.3,0.7c0,0.3,0.1,0.5,0.3,0.7c0.2,0.2,0.5,0.3,0.8,0.3
		c0.3,0,0.6-0.1,0.8-0.3C375.8,64.1,375.9,63.8,375.9,63.5z M375.9,67.7v-0.8h-0.2v0.8H375.9z M379.4,90.2c-0.1,0.2-0.3,0.3-0.5,0.2
		c-0.2,0-0.4,0-0.5,0.1c0,0-0.1,0.1-0.2,0.1c-0.1,0-0.2,0-0.3,0h-1.1l1.7-1.7c0,0.2,0,0.3,0.1,0.5c0,0.2,0.1,0.3,0.1,0.5
		c0.1,0,0.3,0.1,0.4,0.1C379.2,90,379.3,90,379.4,90.2z M379.8,63.7c0-0.2-0.1-0.5-0.2-0.7c-0.1-0.2-0.4-0.3-0.8-0.3
		c-0.4,0-0.6,0.1-0.8,0.3c-0.2,0.2-0.2,0.5-0.2,0.7c0,0.2,0.1,0.5,0.2,0.7c0.2,0.2,0.4,0.3,0.8,0.3c0.2,0,0.5-0.1,0.7-0.3
		C379.7,64.3,379.8,64,379.8,63.7z M383.9,62.3c0-0.2-0.1-0.5-0.3-0.7c-0.2-0.2-0.5-0.3-0.8-0.3c-0.2,0-0.5,0.1-0.7,0.4
		c-0.2,0.2-0.4,0.5-0.4,0.7c0,0.2,0.1,0.4,0.3,0.6c0.2,0.2,0.5,0.3,0.8,0.3c0.2,0,0.4-0.1,0.7-0.2C383.8,62.9,383.9,62.7,383.9,62.3
		z M384.8,67.1l-0.2-0.2c0,0,0,0.1,0.1,0.2C384.7,67.1,384.7,67.1,384.8,67.1z"/>
	<path class="st3" d="M401.7,90.1h-7.1c-0.1,0-0.3-0.1-0.5-0.3c-0.2-0.2-0.3-0.4-0.3-0.5v-23c0-0.1,0.1-0.3,0.3-0.5s0.3-0.4,0.3-0.5
		c0-0.1,0-0.2-0.1-0.2c0,0-0.1-0.1-0.1-0.1c0-0.1,0-0.2-0.1-0.4c0-0.1-0.1-0.2-0.1-0.4c-0.1-0.2-0.1-0.6-0.1-0.9c0-0.4,0-0.6,0-0.7
		c0-0.2,0-0.5,0-0.7c0-0.2,0.1-0.5,0.1-0.7c0.1-0.2,0.2-0.4,0.4-0.5c0.2-0.1,0.5-0.2,0.8-0.2h3.1c0.1,0,0.2,0,0.3,0.1
		c0.1,0.1,0.1,0.1,0.2,0.1s0.2,0,0.3,0c0.1,0,0.2-0.1,0.3-0.3v3.6c-0.2,0.2-0.4,0.3-0.6,0.5c-0.2,0.2-0.4,0.4-0.6,0.6v2.2
		c-0.4,0-0.7,0.1-1.1,0.3c-0.4,0.2-0.7,0.4-1,0.6s-0.5,0.6-0.7,0.9c-0.2,0.3-0.3,0.7-0.3,1.1c0,0.4,0.1,0.9,0.4,1.4
		c0.3,0.5,0.8,0.9,1.4,1.2c-0.6,0.3-1.1,0.7-1.4,1.3c-0.3,0.6-0.4,1-0.4,1.4c0,0.4,0.1,0.8,0.4,1.3s0.8,1,1.4,1.3
		c-0.6,0.2-1.1,0.6-1.4,1.2c-0.3,0.5-0.4,1-0.4,1.5c0,0.3,0.1,0.6,0.3,0.9c0.2,0.3,0.4,0.7,0.7,0.9c0.3,0.3,0.6,0.5,1,0.7
		c0.4,0.2,0.7,0.2,1.2,0.2v2.2c0.2,0.2,0.4,0.4,0.6,0.6c0.2,0.2,0.4,0.4,0.6,0.5v2.4c0.2,0.1,0.4,0.1,0.6,0.1c0.2,0,0.4,0,0.6,0
		c0.2,0,0.4,0,0.6,0.1C401.4,89.7,401.6,89.8,401.7,90.1z M396,73.2c-0.6-0.6-1-1.1-1.1-1.6c-0.1-0.4-0.2-0.8-0.2-1.2
		c0-0.2,0-0.4,0-0.6c0-0.2,0.1-0.4,0.1-0.6s0.2-0.4,0.4-0.7c0.2-0.2,0.4-0.6,0.8-0.9c-0.6,0.5-1,0.9-1.2,1.4
		c-0.2,0.5-0.3,0.9-0.3,1.4c0,0.4,0.1,0.9,0.4,1.4C395.1,72.4,395.5,72.8,396,73.2z M423.4,75.1c0,0.1,0,0.2,0,0.5
		c0,0.2,0,0.5-0.1,0.8c0,0.3-0.1,0.6-0.1,1c0,0.3-0.1,0.6-0.1,0.8c-0.2,0.2-0.4,0.3-0.6,0.4c-0.2,0.1-0.3,0.2-0.4,0.2
		c-0.1,0.1-0.2,0.2-0.3,0.3c-0.1,0.1-0.1,0.3-0.1,0.6c0,0.1,0,0.2,0,0.2c0,0,0,0,0.1,0c0,0,0.1-0.1,0.2-0.1c0.1,0,0.1,0,0.2,0
		l-1,2.8l0.4,1.2c-0.4,0.7-0.8,1.4-1.4,2.2c-0.6,0.8-1.3,1.5-2.1,2.2l-1.2-0.7c-0.4,0.3-0.8,0.5-1.3,0.8s-0.9,0.5-1.3,0.7
		c-0.1,0.2-0.2,0.5-0.3,0.8c-0.1,0.3-0.2,0.6-0.2,0.8l-2.4,0.3c-0.3,0-0.7,0-1.1,0c-0.4-0.1-0.7-0.1-1.1-0.2c-0.1,0-0.2-0.1-0.3-0.2
		s-0.2-0.2-0.3-0.3c0,0-0.1,0-0.1,0c0,0-0.1,0-0.3,0l-4.3,0.2c-0.6,0-1.1,0-1.5-0.1c-0.5-0.1-0.9-0.3-1.3-0.8
		c-0.2,0-0.5-0.1-0.7-0.1c-0.3,0-0.5,0-0.7,0v-2.4c-0.2-0.2-0.4-0.3-0.6-0.5s-0.4-0.3-0.6-0.5v-2.2c0.4,0,0.8-0.1,1.2-0.3
		s0.9-0.5,1.4-1V84c0,0,0,0,0,0c0,0,0.1,0,0.1,0l0.5-1.8c-0.2-0.5-0.3-0.9-0.4-1.4c-0.1-0.5-0.3-1-0.6-1.7c0-0.2-0.2-0.3-0.5-0.4
		c-0.3-0.1-0.6-0.3-0.8-0.4c0-0.1,0-0.2,0-0.3c0-0.1-0.1-0.2-0.2-0.2c-0.1,0-0.3,0-0.4,0.1c-0.1,0-0.3,0.1-0.4,0.1
		c-0.7,0-1.4-0.2-1.9-0.7c-0.5-0.5-0.7-1-0.7-1.7c0-0.7,0.3-1.3,0.8-1.7c0.5-0.4,1.1-0.6,1.8-0.6c0.1,0,0.3,0,0.4,0
		c0.2,0,0.3,0,0.4,0.1c0-0.1,0.1-0.2,0.1-0.3c0-0.1,0-0.2,0.1-0.3c-0.2,0-0.3,0-0.5,0c-0.2,0-0.3,0-0.5,0c-0.8,0-1.5-0.2-1.9-0.7
		s-0.7-1-0.7-1.7c0-0.7,0.3-1.2,0.8-1.7c0.5-0.4,1.1-0.7,1.8-0.7c0.5,0,1,0.2,1.5,0.5c0.5,0.3,0.9,0.9,1.2,1.8l0.6-1.9
		c-0.1-0.5-0.2-1-0.5-1.6v2.1c-0.3-0.4-0.7-0.7-1.2-1c-0.5-0.3-0.9-0.4-1.3-0.3l-0.1-2.2c0.1-0.2,0.3-0.4,0.5-0.6
		c0.3-0.2,0.5-0.4,0.7-0.6l0.2-2.9v1.5h1.1v-2.3h3.2l4.3,0.4c0.1-0.1,0.2-0.2,0.2-0.4c0-0.2,0.1-0.3,0.1-0.5l2.4-0.3
		c0.4,0,0.8,0,1.2,0.1c0.4,0.1,0.8,0.1,1.1,0.3c0.1,0.2,0.2,0.5,0.3,0.8c0.1,0.3,0.2,0.5,0.3,0.8c0.3,0.1,0.7,0.3,1.1,0.5
		c0.4,0.2,0.8,0.5,1.3,0.8c0.4-0.2,0.8-0.4,1.3-0.7c0.4,0.2,0.7,0.5,1,0.9c0.3,0.3,0.7,0.7,1,1.1c0.3,0.4,0.6,0.8,0.8,1.2
		c0.3,0.4,0.5,0.8,0.7,1.1l-0.4,1.3c0.3,0.6,0.6,1.2,0.9,1.9c0.3,0.7,0.5,1.3,0.6,1.9c0.1,0,0.2,0.1,0.4,0.2s0.2,0.2,0.3,0.2
		c0,0.2,0.1,0.5,0.1,0.8c0,0.3,0.1,0.6,0.1,0.9c0,0.3,0.1,0.6,0.1,0.8C423.4,74.9,423.4,75,423.4,75.1z M400.9,80.8
		c0,0.4-0.1,0.7-0.3,1c-0.2,0.3-0.4,0.6-0.6,0.8s-0.5,0.4-0.8,0.5c-0.3,0.1-0.6,0.2-0.9,0.2c-0.4,0-0.8-0.1-1.1-0.2
		c-0.3-0.2-0.6-0.4-0.8-0.6c-0.2-0.2-0.4-0.5-0.5-0.8c-0.1-0.3-0.2-0.6-0.2-0.8c0-0.8,0.3-1.4,0.9-1.8s1.3-0.6,2-0.6
		c0.4,0,0.7,0.1,1,0.3s0.5,0.4,0.7,0.6s0.3,0.5,0.5,0.8C400.8,80.4,400.9,80.6,400.9,80.8z M397.3,66.3v-1l-1.3,0.7v1.4
		c0.3-0.2,0.5-0.4,0.7-0.6C396.9,66.6,397.1,66.4,397.3,66.3z M399.4,65.3v-0.7l-0.6,0.6c0.1,0,0.2,0,0.3,0
		C399.3,65.3,399.4,65.3,399.4,65.3z M399.5,86l-0.6-1.5v1.1c0.1,0.1,0.2,0.2,0.4,0.3S399.4,85.9,399.5,86z M400.3,88.9v-1.3h-0.2
		v1.3H400.3z M415.6,75.3c0-1.3-0.2-2.5-0.6-3.6c-0.4-1.1-1-2-1.8-2.8c-0.8-0.8-1.8-1.4-3-1.8c-1.2-0.4-2.5-0.6-4-0.6H403l-0.9,1.9
		c0,0,0,0.1,0.1,0.2c0.1,0.1,0.1,0.2,0.1,0.3v1.8c0,0.1,0,0.2,0.1,0.2c0,0,0.1,0,0.1,0v2.5c0,0.1-0.1,0.2-0.2,0.4s-0.1,0.2-0.1,0.3
		c-0.1,0.1-0.2,0.2-0.4,0.3c-0.1,0.2-0.3,0.2-0.5,0.1l0.4-1.2v-1.5c0-0.1,0-0.2,0.1-0.2c0,0,0.1,0,0.1,0c0,0-0.1-0.1-0.1,0
		c0,0-0.1,0-0.1-0.2v-2.1l-1.1,3.7c0,0.1,0.1,0.2,0.1,0.3c0,0.1,0.1,0.2,0.1,0.3c0,0.1,0.1,0.2,0.1,0.3c0,0.1,0,0.2-0.1,0.3
		c-0.1-0.1-0.2-0.2-0.2-0.3c0,0.4,0,0.7,0.1,1c0.1,0.3,0.1,0.7,0,1c0,0.2-0.1,0.4-0.1,0.7s-0.1,0.5-0.1,0.7c0,0,0.1,0,0.1,0
		c0,0,0,0,0,0c0,1.1,0.3,2.3,0.6,3.5s0.9,2.3,1.7,3.3h4.1l2-0.3c0.1,0,0.3,0.1,0.4,0.2c0.1,0.1,0.3,0.2,0.4,0.2c0,0,0-0.1,0-0.2
		c0-0.1,0-0.2,0-0.3c0,0,0.1-0.1,0.2-0.2s0.1-0.1,0.2-0.2c0.5-0.1,0.9-0.4,1.4-0.7c0.5-0.3,0.9-0.7,1.4-1.1s0.8-0.9,1.1-1.3
		s0.5-0.9,0.6-1.2c0.2-0.7,0.4-1.4,0.5-2C415.5,76.4,415.6,75.8,415.6,75.3z M402,73.9l-0.1-0.1l-0.3,0.1v0.1L402,73.9z M402.4,76
		c0,0.2-0.1,0.3-0.3,0.5s-0.2,0.4-0.1,0.6c0-0.1,0-0.2-0.1-0.3c-0.1-0.1-0.1-0.2-0.1-0.3c0-0.1,0.1-0.2,0.2-0.3
		c0.1-0.1,0.2-0.2,0.2-0.2l0.1,0.1C402.3,76,402.3,76,402.4,76z M402.1,74.9h-0.2v-0.3h0.2V74.9z M402.1,75.6h-0.2v-0.4h0.2V75.6z
		 M402.2,78.5c-0.1-0.2-0.2-0.3-0.2-0.5c0-0.2,0-0.3,0-0.4c0,0.1,0,0.2,0.1,0.4C402.2,78.1,402.2,78.3,402.2,78.5z M402.3,79.8h-0.2
		v-0.5h0.2V79.8z M409.1,63.3c0-0.1,0-0.3-0.1-0.5c-0.1-0.2-0.2-0.3-0.3-0.5l-0.5,0.4c0,0.2,0,0.3-0.1,0.5c0,0.2-0.1,0.4-0.1,0.5
		c0,0.1,0,0.4,0.1,0.8s0.1,0.7,0.1,0.9l0.3,0.1L409.1,63.3z M408.6,63.9h-0.2v-0.7h0.2V63.9z M410.4,63.2l-0.4-0.7
		c-0.1,0.1-0.2,0.2-0.3,0.3c-0.1,0.1-0.2,0.3-0.3,0.4s-0.1,0.3-0.2,0.5c0,0.1-0.1,0.2-0.1,0.3v1.8h0.4c0-0.4,0.2-0.9,0.3-1.3
		C410.1,64,410.3,63.6,410.4,63.2z M409.9,63.9h-0.2V63h0.2V63.9z M411.7,63.4c0-0.1-0.1-0.2-0.2-0.3s-0.1-0.2-0.2-0.3
		c-0.2,0.1-0.4,0.2-0.5,0.4c-0.1,0.1-0.2,0.3-0.2,0.5c0,0.2-0.1,0.3-0.1,0.5c0,0.1-0.1,0.3-0.1,0.4c0,0.1,0.1,0.2,0.1,0.4
		c0,0.1,0,0.3-0.1,0.4c0,0.1-0.1,0.3-0.1,0.4s-0.1,0.2-0.1,0.2c0,0.1,0.1,0.2,0.2,0.2c0.1,0,0.2,0,0.3,0L411.7,63.4z M411.3,63.2
		l-0.3,0.9l-0.2-0.1l0.4-0.8H411.3z M412.9,63.7c0-0.1,0-0.2-0.1-0.3c-0.1-0.1-0.1-0.3-0.2-0.4c-0.1,0.1-0.2,0.2-0.3,0.3
		c-0.1,0.1-0.2,0.1-0.3,0.2c-0.2,0.4-0.3,0.9-0.4,1.4c-0.1,0.5-0.2,0.9-0.4,1.2c0.1,0,0.1,0,0.2,0.1l0.1,0.1L412.9,63.7z
		 M412.5,63.6l-0.5,0.9c0-0.2,0-0.4,0.1-0.5C412.3,63.8,412.4,63.7,412.5,63.6z M414.1,64.2c0-0.1,0-0.2-0.1-0.3
		c0-0.1-0.1-0.2-0.1-0.3c-0.5,0.2-0.9,0.5-1,0.9c-0.2,0.4-0.3,0.7-0.3,1c0,0.2-0.1,0.4-0.2,0.5c-0.1,0.2-0.2,0.3-0.3,0.5
		c0,0,0.1,0.1,0.1,0.1s0.1,0,0.1,0c0,0,0,0,0.1,0c0.1-0.2,0.2-0.3,0.4-0.5s0.2-0.4,0.4-0.5c0-0.1,0.1-0.1,0.3-0.2s0.2-0.1,0.2-0.1
		c0.1-0.2,0.2-0.3,0.3-0.6C414,64.4,414.1,64.3,414.1,64.2z M415.1,65l-0.1-0.8c-0.3,0-0.6,0.2-0.9,0.5c-0.3,0.4-0.4,0.7-0.4,1
		c-0.1,0.2-0.2,0.3-0.3,0.5c-0.1,0.2-0.3,0.4-0.4,0.5l0.3,0.3L415.1,65z M413.7,64.2l-0.6,0.8c0.1-0.1,0.1-0.3,0.2-0.4
		s0.1-0.3,0.3-0.4L413.7,64.2z M414.1,88.2c-0.2-0.1-0.3-0.2-0.5-0.4s-0.3-0.2-0.4-0.2c0,0.1,0.1,0.2,0.2,0.4
		c0.1,0.1,0.2,0.3,0.3,0.4c0,0,0.1,0,0.2-0.1C413.9,88.3,414,88.2,414.1,88.2z M421.8,76c-0.1,0.2-0.3,0.3-0.4,0.5
		c-0.1,0.2-0.3,0.4-0.4,0.5c-0.1,0.2-0.3,0.3-0.4,0.4c-0.1,0.1-0.2,0.2-0.3,0.2c-0.1,0-0.2,0-0.1,0c0,0,0-0.1-0.1-0.1
		c-0.1,0-0.2,0-0.3,0.1s-0.1,0.2-0.2,0.3c0,0-0.1-0.1-0.1-0.1v0l0.4-1.9V74c0-0.4-0.1-0.9-0.3-1.6c-0.2-0.6-0.5-1.3-0.8-2
		c-0.3-0.7-0.7-1.3-1.1-1.9c-0.4-0.6-0.8-1.1-1.1-1.4c0.2-0.1,0.3-0.2,0.4-0.3c0.1-0.1,0.1-0.2,0.1-0.3c0-0.1,0-0.2,0.1-0.3
		c0-0.1,0-0.2,0.1-0.3h-0.8l-1.9,2.2c0,0,0.1,0.1,0.2,0.2s0.2,0.1,0.2,0.1l1-0.9c0,0,0.1,0,0,0.1c0,0,0,0.1,0.1,0.1
		c0.1,0,0.2,0,0.2-0.1c0,0,0-0.1,0.1-0.1c0.6,0.6,1.1,1.2,1.5,1.9c0.4,0.7,0.8,1.4,1,2.1c0.3,0.7,0.5,1.4,0.6,2
		c0.1,0.7,0.2,1.2,0.2,1.7c0,0.1,0,0.2,0,0.5c0,0.2-0.1,0.5-0.1,0.8c0,0.3-0.1,0.6-0.2,0.9c-0.1,0.3-0.1,0.5-0.2,0.7
		c0,0-0.1,0.1-0.2,0.2s-0.1,0.1-0.2,0.1c-0.3-0.2-0.5-0.3-0.8-0.3c-0.3-0.1-0.5-0.1-0.7-0.2c0.2,0.1,0.5,0.2,0.7,0.3
		c0.3,0.1,0.5,0.1,0.7,0.3c-0.4,0.1-0.7,0.1-1,0c-0.2-0.1-0.4-0.2-0.6-0.2l1.1,0.4l-0.2,0.1c-0.2,0-0.3-0.1-0.5-0.1
		s-0.3-0.1-0.5-0.1c0.1,0,0.2,0.1,0.4,0.2c0.1,0.1,0.3,0.1,0.4,0.2c-0.2,0-0.3,0.1-0.5,0c-0.1,0-0.3-0.1-0.4-0.1
		c0.1,0.1,0.2,0.1,0.3,0.2s0.2,0.1,0.3,0.2c-0.1,0-0.3,0-0.4,0c-0.1,0-0.3-0.1-0.4-0.1c0.1,0.1,0.3,0.2,0.6,0.3
		c0.3,0.1,0.4,0.2,0.5,0.5l-1.2-0.5c0,0,0,0.1,0.1,0.2c0.1,0.1,0.1,0.1,0,0.2h-0.3c0,0.1,0,0.2,0,0.3c-0.1,0.1-0.1,0.1-0.1,0.2
		c0.2,0.1,0.4,0.2,0.6,0.3c0.2,0.1,0.5,0.2,0.7,0.3c0,0-0.1-0.1-0.3-0.2c-0.1-0.1-0.3-0.2-0.4-0.3c0,0,0.1-0.1,0.1-0.1h0
		c0.1,0,0.2,0.1,0.3,0.1s0.2,0.1,0.3,0.2v0.6c-0.2,0.4-0.5,0.8-0.9,1.2c-0.4,0.4-0.8,0.8-1.3,1.2c-0.4,0.4-0.9,0.7-1.3,0.9
		c-0.4,0.2-0.8,0.4-1,0.3c0,0-0.1,0.1-0.1,0.2s0,0.2,0.1,0.2c0.3-0.2,0.7-0.4,1.2-0.7c0.5-0.3,0.9-0.6,1.3-1
		c0.4-0.4,0.9-0.8,1.3-1.2c0.4-0.4,0.7-0.9,0.9-1.3c0.1-0.1,0.2-0.3,0.4-0.5c0.2-0.2,0.4-0.3,0.5-0.3c0.1,0,0.2,0,0.2,0.1
		c0,0,0,0.1,0.1,0.1c0.1,0,0.3-0.1,0.6-0.3c0.2-0.2,0.4-0.3,0.6-0.3c0.1,0,0.2,0,0.3,0.1s0.2,0.1,0.3,0.1L421.8,76z M416.2,65.7
		v-0.8c-0.2,0-0.4,0.1-0.6,0.2c-0.2,0.1-0.4,0.2-0.5,0.4c-0.2,0.1-0.3,0.3-0.4,0.5c-0.1,0.2-0.1,0.3-0.1,0.4
		c-0.1,0.2-0.3,0.3-0.4,0.5c-0.2,0.2-0.3,0.4-0.4,0.5l0.3,0.2c0.2-0.2,0.4-0.4,0.6-0.6c0.2-0.2,0.5-0.4,0.7-0.6
		c0.2-0.2,0.4-0.3,0.6-0.5C416.1,65.9,416.2,65.8,416.2,65.7z M414.9,64.7l-0.5,0.8l-0.1-0.1l0.5-0.7L414.9,64.7z M416.2,67.7
		l-0.1-0.1l-1,0.9l0.1,0.1L416.2,67.7z M416,65.4l-0.6,0.8l-0.1-0.1l0.6-0.8L416,65.4z M416.5,68l-0.1-0.1l-1,0.9l0.1,0.1L416.5,68z
		 M416.8,68.2l-0.1-0.1l-1.2,0.9l0.1,0.1L416.8,68.2z M417,68.5l-0.1-0.1l-1.2,0.9l0.1,0.1L417,68.5z M417,63.8l-1-0.7
		c0.2,0.2,0.3,0.3,0.5,0.4C416.7,63.7,416.8,63.7,417,63.8z M417.2,68.9l-0.1-0.1l-1.1,0.8l0.1,0.1L417.2,68.9z M416.9,66.2
		c0,0.1-0.2,0.2-0.3,0.4s-0.3,0.3-0.4,0.4c0-0.1,0.1-0.2,0.2-0.4S416.7,66.3,416.9,66.2z M417.4,69.2l-0.1-0.1l-1.1,0.8l0.1,0.1
		L417.4,69.2z M417.6,69.4l-1.3,0.8c0.3-0.1,0.5-0.2,0.8-0.4C417.4,69.6,417.5,69.5,417.6,69.4z M417.9,69.8l-0.1-0.1l-1.2,0.8
		l0.1,0.1L417.9,69.8z M418,70.2l-0.1-0.1l-1.2,0.6l0.1,0.1L418,70.2z M418.2,70.5l-0.1-0.1l-1.2,0.6v0.1L418.2,70.5z M418.4,70.8
		l-0.1-0.1l-1.3,0.6v0.1L418.4,70.8z M418.4,71.2l-0.1-0.1l-1.1,0.5v0.1L418.4,71.2z M418.6,71.5l-0.1-0.1l-1.2,0.5v0.1L418.6,71.5z
		 M418.7,71.9l-0.1-0.1l-1.2,0.4v0.2L418.7,71.9z M418.8,72.2l-0.1-0.1l-1.3,0.4v0.2L418.8,72.2z M418,80c-0.1,0-0.2,0-0.4-0.1
		c-0.1-0.1-0.2-0.2-0.3-0.3L418,80z M418.9,72.7v-0.2l-1.4,0.3V73L418.9,72.7z M418.9,77.8l-0.1-0.3h-1.2c0.2,0,0.4,0,0.7,0.1
		C418.5,77.7,418.7,77.7,418.9,77.8z M419,72.9l-1.4,0.3c0.2,0,0.5,0,0.7-0.1C418.6,73.1,418.9,73,419,72.9z M419.2,73.4h-1.5v0.3
		L419.2,73.4z M419.1,77.1v-0.2l-1.5-0.3v0.2L419.1,77.1z M419,77.5v-0.2l-1.4-0.3v0.2L419,77.5z M419.1,73.9v-0.2h-1.4v0.2H419.1z
		 M419.2,74.2l-0.4-0.3c-0.2,0-0.4,0.1-0.6,0.1c-0.2,0-0.4,0.1-0.6,0.1c0.4,0,0.8-0.1,1-0.1C418.9,74.1,419.1,74.2,419.2,74.2z
		 M419.2,74.5v-0.2h-1.5v0.2H419.2z M419.1,76v-0.2l-1.4-0.1v0.2L419.1,76z M419.2,76.1c-0.3,0.1-0.8,0.1-1.5,0
		c0.2,0,0.4,0.1,0.6,0.1c0.2,0,0.4,0.1,0.6,0.1L419.2,76.1z M419.1,76.6v-0.2h-1.4v0.2H419.1z M418.3,74.9v-0.2h-0.4v0.2H418.3z
		 M419.2,75.3v-0.2l-1.4-0.1v0.2L419.2,75.3z M419.2,75.7v-0.2l-1.4-0.2v0.2L419.2,75.7z M418.7,82.4c0,0-0.1,0.1-0.2,0.2
		c-0.1,0.1-0.1,0.2-0.1,0.2c0.1-0.1,0.2-0.1,0.2-0.2S418.7,82.5,418.7,82.4z M418.8,78.8c0,0.1,0.1,0.2,0,0.4c0,0.2-0.1,0.3-0.1,0.5
		c0,0-0.1,0-0.2,0c-0.1,0-0.1-0.1-0.1-0.2C418.4,79.2,418.5,79,418.8,78.8z M419.3,79.1l-0.4,0.6l-0.2-0.1l0.4-0.5L419.3,79.1z
		 M421.3,78.3c0,0,0,0.1-0.1,0.2c-0.1,0.1-0.2,0.2-0.3,0.3c-0.1,0.1-0.2,0.2-0.3,0.3c-0.1,0.1-0.2,0.1-0.3,0.2
		c-0.1,0-0.1-0.1-0.2-0.2c-0.1-0.1-0.1-0.2-0.1-0.3c0.2-0.2,0.4-0.3,0.6-0.4s0.4-0.2,0.6-0.3c0,0,0.1,0.1,0.1,0.1
		C421.3,78.1,421.3,78.2,421.3,78.3z M420.7,71.5c0,0-0.1-0.1-0.1-0.2c0-0.1,0-0.2,0-0.2h-0.4c0,0.1,0.1,0.2,0.2,0.3
		C420.6,71.4,420.7,71.5,420.7,71.5z"/>
	<path class="st3" d="M451.3,89.1c0,0.1,0,0.2-0.1,0.4c-0.1,0.2-0.2,0.3-0.3,0.4l-1-0.1c-0.1,0-0.4,0-0.6,0.1
		c-0.3,0.1-0.6,0.1-0.8,0.2L441,90c-0.1,0-0.3,0-0.5-0.2c-0.2-0.2-0.4-0.3-0.5-0.5c0.1-0.2,0.2-0.4,0.3-0.7c0.1-0.3,0.1-0.5,0.1-0.6
		c0-0.1,0-0.3-0.1-0.5c-0.1-0.2-0.1-0.4-0.1-0.6v0c0,0,0-0.1-0.1-0.1c-0.1,0.4-0.3,0.9-0.5,1.3c-0.2,0.4-0.3,0.9-0.3,1.4
		c-0.1,0.1-0.2,0.2-0.4,0.3c-0.2,0.1-0.3,0.2-0.4,0.2h-5.4l-3.2-0.5c-0.2,0-0.4,0-0.5,0.1c-0.2,0.1-0.3,0.1-0.4,0.2
		c-0.1,0.1-0.3,0.2-0.4,0.2c-0.1,0.1-0.3,0.1-0.5,0.1c-0.1,0-0.2,0-0.4-0.1c-0.1-0.1-0.3-0.2-0.4-0.3c0-0.1,0-0.2,0.1-0.4
		s0.1-0.2,0.1-0.3c0-0.1-0.1-0.2-0.1-0.3c-0.1-0.1-0.1-0.2-0.1-0.3c0-0.2-0.1-0.4-0.1-0.7c0-0.3,0-0.5,0-0.6s0-0.3,0-0.5
		c0-0.2,0-0.4,0-0.6c0-0.2,0.1-0.4,0.1-0.6c0.1-0.2,0.2-0.3,0.3-0.4c0.3,0.1,0.7,0.1,1,0c0.3-0.1,0.7-0.2,1-0.2c0,0,0.1,0,0.3,0.1
		c0.2,0.1,0.3,0.1,0.5,0.2c0.2,0.1,0.4,0.1,0.5,0.2c0.2,0.1,0.3,0.1,0.4,0.1c0.1,0,0.3,0,0.5-0.1c0.2-0.1,0.5-0.2,0.7-0.3
		c-0.1-0.1-0.2-0.2-0.3-0.2s-0.3,0-0.4,0c-0.1,0-0.3,0-0.4,0c-0.1,0-0.3,0-0.4-0.1c0,0-0.1-0.1-0.2-0.2c-0.1-0.1-0.1-0.1-0.2-0.1
		l-1.3,0.2c-0.2-0.1-0.5-0.2-0.8-0.3c-0.3-0.1-0.6-0.1-0.9-0.2c-0.1-0.1-0.2-0.2-0.3-0.3c-0.1-0.2-0.1-0.3-0.1-0.4V71l0.4-8.1h12
		l0.9,1h5.4l1.3,1.8v0.7h-12.7l-0.4,1.2c0.1,0.1,0.1,0.2,0.2,0.4c0.1,0.1,0.1,0.3,0.1,0.5c0,0.6,0,1.2,0,1.8s0,1.2,0,1.8
		c0.3,0.2,0.6,0.2,1.1,0.2c0.5,0,0.9,0,1.3,0c0.1,0,0.2,0,0.4,0s0.2,0,0.3-0.1c0.2,0,0.4,0.1,0.5,0.1c0.2,0,0.3,0.1,0.5,0
		c0.2,0,0.5-0.1,0.8-0.1c0.3,0,0.5-0.1,0.6-0.1l2.2,0.2c0.1,0,0.2,0,0.4,0c0.2,0,0.5,0,0.8-0.1c0.3,0,0.5,0,0.8-0.1
		c0.2,0,0.4,0,0.4,0l3.2,0.2c0.1,0,0.2,0.1,0.3,0.2c0.1,0.1,0.2,0.2,0.3,0.3c0.1,0,0.1-0.1,0.1-0.2s0.1-0.2,0.1-0.3l0.5,1.7v3.4
		c0,0.1,0,0.2-0.1,0.3c-0.1,0.1-0.2,0.2-0.3,0.3h-4.9l-0.9-0.2c-0.1,0-0.2,0.1-0.3,0.2c-0.1,0.1-0.3,0.1-0.4,0.1h-7.7v6.5
		c-0.1,0.1-0.3,0.2-0.4,0.2c-0.1,0-0.3,0-0.4-0.1c-0.1,0-0.3,0-0.4,0c-0.1,0-0.3,0.1-0.5,0.3c0.1,0.1,0.2,0.2,0.3,0.2
		c0.1,0.1,0.2,0.1,0.4,0.1c0.1,0,0.2,0,0.3-0.1s0.2-0.1,0.3-0.1s0.3,0,0.6,0s0.5,0.1,0.7,0.1c0.1,0,0.2,0.1,0.3,0.2s0.2,0.2,0.3,0.3
		c0.2,0,0.5-0.1,0.8-0.1c0.3,0,0.5-0.1,0.6-0.1c0.2,0,0.4,0.1,0.5,0.2c0.1,0.1,0.2,0.3,0.3,0.5c0.1,0.2,0.1,0.4,0.1,0.6
		c0,0.2,0,0.4-0.1,0.5l0.1,0.6c0.2,0,0.3-0.1,0.3-0.3c0-0.2,0.1-0.4,0.1-0.5c0.1-0.4,0.3-0.8,0.6-1.1c0.1,0,0.2,0,0.4,0.1
		c0.2,0.1,0.3,0.2,0.3,0.3h0.4l0.2-0.2v-0.3c0,0-0.1-0.1-0.2-0.2c-0.1-0.1-0.2-0.1-0.3-0.1c-0.1,0-0.2,0-0.2,0.1c0,0,0,0.1-0.1,0.1
		l-0.8-0.4v-0.4c0.2,0,0.4-0.1,0.6-0.2c0.2-0.1,0.4-0.2,0.6-0.2s0.4-0.1,0.5-0.2c0.2-0.1,0.3-0.1,0.3-0.1c0.1,0,0.3,0,0.6,0.1
		s0.4,0.1,0.6,0.1l4.9-0.1l1.2,0.2c-0.1,0.3-0.1,0.7,0,1.1h0.3c0.1-0.2,0.3-0.4,0.5-0.5c0.3,0.2,0.5,0.4,0.8,0.6
		c0.2,0.3,0.5,0.5,0.7,0.6c0,0-0.1,0.1-0.2,0.2c-0.1,0.1-0.1,0.2-0.2,0.2c-0.1,0-0.3,0-0.4,0.1c-0.2,0-0.3,0.1-0.4,0.1
		c-0.1,0-0.2,0-0.3-0.1c-0.1-0.1-0.3-0.2-0.5-0.2c-0.2-0.1-0.3-0.2-0.4-0.2c-0.1-0.1-0.2-0.1-0.3-0.1c-0.1,0-0.3,0.1-0.4,0.2
		c-0.1,0.1-0.3,0.2-0.4,0.2c-0.1,0-0.3,0-0.5-0.1s-0.4-0.2-0.6-0.4c-0.1,0-0.2,0.1-0.4,0.2c-0.1,0.1-0.2,0.2-0.4,0.2
		c-0.1,0-0.3,0-0.5-0.1c-0.2-0.1-0.4-0.2-0.5-0.3c-0.2,0-0.4-0.1-0.6-0.1c-0.2,0-0.4-0.1-0.5-0.1l-1.8,0.1c0.1,0.1,0.3,0.2,0.6,0.4
		c0.2,0.2,0.4,0.3,0.6,0.5h0.3l0.3-0.3v0.3c0.2,0,0.5,0.1,0.8,0.1c0.4,0,0.7,0,0.9-0.1c0.2,0.1,0.5,0.2,0.8,0.3
		c0.3,0.1,0.6,0.2,0.7,0.2c0.1,0,0.2,0,0.3,0c0.1,0,0.2-0.1,0.3-0.1c0.2,0,0.4,0,0.5,0.1c0.1,0.1,0.3,0.2,0.4,0.2
		c0.1,0.1,0.2,0.2,0.3,0.2s0.2,0.1,0.3,0.1c0.1,0,0.2,0,0.3-0.1c0.1-0.1,0.1-0.1,0.2-0.2c0.1-0.1,0.2-0.1,0.3-0.1c0.1,0,0.3,0,0.4,0
		c0.2,0,0.5,0.1,0.6,0.2c0.2,0.1,0.4,0.3,0.5,0.5c0.1,0.2,0.3,0.4,0.3,0.5C451.2,88.8,451.3,89,451.3,89.1z M451.1,64.7
		c0,0.1,0,0.2,0,0.4s0,0.4-0.1,0.6c0,0.2-0.1,0.4-0.2,0.5c-0.1,0.1-0.3,0.2-0.5,0.2H448v-3.7h-1.7c-0.1-0.2-0.3-0.3-0.4-0.5
		s-0.3-0.3-0.5-0.5h-11.8c-0.1,0.1-0.3,0.3-0.4,0.4c-0.1,0.2-0.3,0.3-0.5,0.5h-5.4c0-0.2,0.1-0.4,0-0.6c0-0.2,0-0.4,0-0.6
		c0-0.3,0.1-0.4,0.3-0.6c0.2-0.1,0.4-0.2,0.6-0.3c0.2-0.1,0.5-0.1,0.7-0.1c0.3,0,0.4,0,0.6,0c0.1,0,0.2,0,0.3,0.1
		c0.2,0,0.3,0,0.5,0.1c0.2,0,0.3,0,0.5,0.1c0.2,0,0.3,0,0.3,0c0.1,0,0.2,0,0.4,0c0.2,0,0.3,0,0.5-0.1c0.2,0,0.4,0,0.5-0.1
		c0.2,0,0.3,0,0.4,0l11.8,0.2c0.1,0,0.3,0,0.6-0.1s0.5-0.1,0.6-0.1c0.1,0,0.3,0,0.6,0.1c0.3,0.1,0.6,0.1,0.9,0.2l1.7-0.3
		c0.2,0.1,0.3,0.1,0.5,0.1s0.3,0,0.5,0s0.3,0,0.4,0.1c0.1,0.1,0.2,0.2,0.3,0.4v0.4l-0.3,0.2c0,0-0.1,0-0.2-0.1
		c-0.1,0-0.1-0.1-0.2-0.1h-0.4c0,0-0.1,0.1-0.1,0.1c0,0,0,0.1,0,0.1c0.2,0,0.3,0.1,0.5,0.2c0.2,0.1,0.4,0.2,0.5,0.3
		c0,0.2,0,0.4,0,0.7c0,0.3,0,0.5,0,0.8c0,0.2,0,0.5,0.1,0.7C451,64.5,451.1,64.6,451.1,64.7z M428.6,82.8v-0.5h-0.4l-0.1,0.5H428.6z
		 M428.9,61.2c0,0-0.1,0-0.2,0.1c-0.1,0-0.2,0.1-0.2,0.1c0,0,0.1,0.1,0.2,0.1c0,0,0.1,0,0.1,0c0,0,0-0.1,0.1-0.1c0,0,0-0.1,0.1-0.1
		C428.9,61.2,428.9,61.2,428.9,61.2z M429.6,77.8c0,0.1-0.1,0.2-0.1,0.4c0,0.2,0,0.4,0,0.5c0.1,0,0.2-0.1,0.2-0.2c0-0.1,0-0.2,0-0.3
		s0-0.2,0-0.3C429.7,77.9,429.7,77.9,429.6,77.8z M430.4,87.4c0-0.1,0-0.2-0.1-0.3s-0.1-0.2-0.2-0.3c0,0-0.1,0.1-0.1,0.3
		c0,0.1-0.1,0.3-0.1,0.4H430.4z M431,67.3v-0.4h-0.8v0.6c0,0,0.1,0,0.2,0.1s0.1,0.1,0.2,0.1c0,0,0.1-0.1,0.2-0.2
		C430.8,67.4,430.9,67.3,431,67.3z M432.3,74.7v-0.6H431l-0.1,0.6H432.3z M432.3,69.3v-0.7h-1.4v0.7H432.3z M432.3,70.2v-0.7h-1.4
		v0.7H432.3z M432.3,71.1v-0.7h-1.4v0.7H432.3z M432.3,71.9v-0.6h-1.4v0.6H432.3z M432.3,72.9v-0.6h-1.4v0.6H432.3z M432.3,73.8
		v-0.6h-1.4v0.6H432.3z M432.3,75.6v-0.7h-1.4v0.7H432.3z M432.3,76.5v-0.7h-1.4v0.7H432.3z M432.3,77.4v-0.7h-1.4v0.7H432.3z
		 M432.3,78.3v-0.7h-1.4v0.7H432.3z M432.3,79.2v-0.7h-1.4v0.7H432.3z M432.3,80.1v-0.7h-1.4v0.7H432.3z M432.3,81v-0.7h-1.4V81
		H432.3z M432.3,82v-0.7h-1.4V82H432.3z M432.3,82.8v-0.6h-1.4v0.6H432.3z M432.6,67.6h-0.4c0,0,0,0.1-0.1,0.2s-0.2,0.2-0.2,0.2v0.3
		c0.1,0,0.3-0.2,0.5-0.4S432.6,67.7,432.6,67.6z M433.5,65.9h-0.9c0.1,0.1,0.2,0.2,0.3,0.4c0.1,0.1,0.2,0.2,0.3,0.2
		c0-0.1,0-0.2,0.1-0.3C433.4,66,433.5,66,433.5,65.9z M433,82.9V68.6h-0.2v14.2H433z M434,73.3l-0.6-0.1v0.4c0,0,0.1,0,0.2,0.1
		s0.2,0.1,0.2,0.1c0,0,0.1-0.1,0.1-0.2C434,73.4,434,73.3,434,73.3z M434.1,74.3v-0.4l-0.2,0v0.4H434.1z M438.7,84.9
		c-0.2,0.1-0.3,0.2-0.5,0.3s-0.3,0.1-0.5,0.1c-0.4,0-0.9-0.1-1.3-0.2c-0.4-0.1-0.7-0.3-0.9-0.5c0,0,0.1-0.1,0.2-0.2
		c0.1-0.1,0.2-0.2,0.3-0.2h0.1l0.2,0c0.2,0,0.4,0,0.7,0c0.3-0.1,0.4-0.1,0.6-0.1s0.3,0,0.5,0.1c0.2,0.1,0.4,0.2,0.6,0.3V84.9z
		 M436.5,74.5v-0.3h-0.4l-0.1,0.3H436.5z M439.1,73L439,73l-0.1,0.3l0.1,0.1L439.1,73z M439.9,74.5v-0.4h-0.5c0,0.1,0.1,0.2,0.3,0.3
		S439.9,74.5,439.9,74.5z M451.3,85.1c0,0.2-0.1,0.5-0.4,0.9c-0.2-0.2-0.4-0.4-0.7-0.7c-0.3-0.2-0.5-0.5-0.6-0.7
		c0,0,0.1-0.1,0.3-0.3c0.2-0.1,0.3-0.2,0.4-0.2c0.2,0,0.3,0,0.4,0.1c0.1,0.1,0.2,0.2,0.3,0.3c0.1,0.1,0.1,0.2,0.1,0.3
		C451.3,85,451.3,85,451.3,85.1z"/>
	<path class="st3" d="M466.9,79c0,0-0.1,0.1-0.2,0.2c-0.1,0.1-0.1,0.1-0.1,0.2c0,0-0.1-0.1-0.2-0.1c-0.1,0-0.2-0.1-0.3-0.1l-5,0.1
		c-0.1,0.1-0.2,0.2-0.2,0.4s0,0.3,0,0.4s0,0.3,0,0.4c0,0.1-0.1,0.2-0.3,0.2v1.5h0.9l0.2-0.1c0-0.1,0.1-0.2,0.1-0.3s0.1-0.3,0.1-0.4
		s0-0.3-0.1-0.4s-0.1-0.3-0.3-0.4v-0.7h4.5l-1.7,2.7c0,0.1,0.1,0.2,0.2,0.3c0.1,0.1,0.2,0.2,0.4,0.2c-0.2,0-0.4,0-0.5,0
		s-0.3-0.1-0.5-0.3h-1.5v1.1h1.7c0,0,0.1-0.1,0.1-0.1s0-0.1,0-0.1h2.2v5.3h-0.7c0,0,0-0.1,0-0.2c0-0.1,0-0.2,0-0.3s0-0.2-0.1-0.3
		c0-0.1-0.1-0.2-0.3-0.2h-2v-0.6h2c0.2-0.1,0.3-0.3,0.3-0.7c0-0.3,0-0.5,0-0.6c0-0.2,0-0.5,0-0.7c0-0.2-0.1-0.4-0.2-0.5
		c-0.2-0.1-0.4-0.1-0.6-0.1c-0.2,0-0.3,0-0.4,0c-0.1,0-0.2,0-0.2,0c-0.1,0-0.1-0.1-0.1-0.3h-1.7v1.1h1.7c0,0,0.1-0.1,0.1-0.1
		s0-0.1,0-0.1h0.9v1.6h-2c-0.2,0.2-0.3,0.3-0.3,0.4s0,0.3,0,0.4c0,0.1,0,0.2,0,0.4s0.1,0.3,0.2,0.4h2.1c-0.1,0.1-0.1,0.2-0.1,0.4
		s0,0.3,0.1,0.4s0.2,0.2,0.4,0.3c0.2,0.1,0.4,0.1,0.7,0c0,0.1-0.1,0.2-0.3,0.4c-0.1,0.1-0.3,0.2-0.4,0.2h-3.9v-2.4
		c0.1,0,0.3,0,0.3-0.1v-1.5h-1.2v1.5c0.1,0.1,0.2,0.1,0.3,0.1v2.4h-1.2v-2.4c0.1,0,0.3,0,0.3-0.1v-1.5h-1.2v1.5
		c0.1,0.1,0.2,0.1,0.3,0.1v2.4c-0.3,0-0.6-0.1-0.8-0.1c-0.2,0-0.3-0.1-0.4-0.1v-2.2c0.1,0,0.3,0,0.3-0.1v-1.5
		c-0.1,0-0.2-0.1-0.3-0.1c-0.1,0-0.2,0-0.3,0c-0.1,0-0.3,0-0.4,0c-0.1,0-0.2,0.1-0.3,0.2v1.3c0,0,0.1,0.1,0.2,0.2
		c0.1,0.1,0.2,0.1,0.2,0.2v1.9c-0.2,0-0.3,0.1-0.5,0.2c-0.2,0.1-0.4,0.1-0.7,0.2v-2.3c0.1,0,0.3,0,0.3-0.1v-1.5h-1.1v1.5
		c0.1,0.1,0.2,0.1,0.3,0.1v2.1c-0.3-0.2-0.5-0.4-0.8-0.5s-0.4-0.3-0.4-0.6v-3c0.2,0,0.3-0.1,0.4-0.2c0-0.2,0-0.4-0.1-0.6
		c-0.1-0.2-0.1-0.4-0.1-0.5c0-0.1,0-0.2,0.1-0.3c0.1-0.1,0.1-0.2,0.1-0.3c0.4-0.2,0.8-0.3,1.2-0.5c0.4-0.2,0.9-0.4,1.3-0.7
		c0.1,0,0.2,0,0.4,0c0.1,0,0.3,0,0.4,0c0.1-0.1,0.1-0.2,0.1-0.3c0-0.1,0-0.2,0-0.4c0-0.1,0-0.2,0.1-0.4s0.2-0.3,0.4-0.4v1.4h1.2
		v-1.6c0,0-0.1-0.1-0.1-0.1c0,0-0.1,0-0.1,0v-0.9l0.9-0.9h5.8L466.9,79z M486.4,85.9h-1.3l-0.8-1.2h-9c-0.1-0.5-0.3-0.9-0.4-1.4
		s-0.3-0.8-0.4-1.2c-0.2-0.4-0.4-0.8-0.6-1.1c-0.2-0.4-0.6-0.8-0.9-1.2l-0.1,0.2c0.8,0.9,1.4,1.9,1.8,2.9s0.5,2,0.5,3
		c0,0.6-0.1,1.2-0.2,1.9c-0.1,0.7-0.4,1.3-0.7,2H470c-0.3,0-0.5-0.1-0.6-0.4s-0.2-0.5-0.2-0.8c0-0.3,0-0.6,0-0.8c0-0.2,0-0.4,0-0.4
		c0-0.2,0-0.3,0-0.6c0-0.2,0-0.4,0-0.7c0-0.2,0.1-0.4,0.2-0.6c0.1-0.2,0.2-0.3,0.4-0.4l-0.5-1.2c0-0.2,0.2-0.4,0.4-0.5
		c0.2-0.1,0.4-0.3,0.7-0.4c0.3-0.1,0.5-0.2,0.8-0.3s0.5-0.2,0.7-0.3v-0.4l-0.8-0.9c0.2-0.1,0.6-0.4,1.1-0.7c0.5-0.3,1-0.7,1.5-1.1
		c0.5-0.4,1-0.8,1.4-1.1s0.6-0.6,0.6-0.7c0,0-0.1-0.2-0.3-0.4c-0.2-0.3-0.4-0.6-0.7-0.9c-0.3-0.4-0.6-0.7-0.9-1.1
		c-0.3-0.4-0.6-0.7-0.8-1c-0.6-0.7-1.2-1.5-2-2.5c-0.8-0.9-1.5-1.9-2.3-2.8c-0.3-0.3-0.5-0.7-0.8-1c-0.3-0.4-0.5-0.7-0.8-1
		c-0.3-0.3-0.5-0.6-0.8-0.9c-0.3-0.2-0.6-0.4-1-0.5l-5.4,3.3c-0.2-0.1-0.4-0.3-0.6-0.5s-0.4-0.4-0.7-0.5c-0.2-0.1-0.5-0.1-0.8-0.2
		c-0.4-0.1-0.8-0.2-1.2-0.3c-0.4-0.1-0.8-0.2-1.1-0.4c-0.3-0.1-0.5-0.3-0.5-0.5V61c0-0.2,0.1-0.4,0.4-0.5s0.5-0.3,0.7-0.3h14
		c0.1,0,0.2,0,0.4,0.1c0.2,0,0.4,0.1,0.5,0.2s0.3,0.1,0.5,0.2c0.1,0.1,0.2,0.2,0.2,0.3v5.4c0,0.1-0.1,0.2-0.2,0.4
		c-0.1,0.1-0.3,0.2-0.4,0.3c-0.3,0.1-0.5,0.2-0.8,0.3c-0.3,0.1-0.6,0.2-0.8,0.4V68l3.7,3.9l3.3-3.9v-0.4c-0.1,0-0.2-0.1-0.4-0.2
		c-0.2-0.1-0.4-0.2-0.6-0.3s-0.4-0.3-0.6-0.4c-0.2-0.1-0.3-0.3-0.3-0.4V61c0-0.2,0.1-0.4,0.4-0.5c0.2-0.2,0.4-0.3,0.6-0.3
		c0.1,0,0.3,0,0.6,0.1s0.5,0.1,0.6,0.1c0.1,0,0.3,0,0.5-0.1s0.4-0.1,0.5-0.1h7.7c0.1,0,0.3,0.1,0.5,0.3c0.2,0.2,0.3,0.3,0.3,0.5v5.3
		c0,0.1,0,0.2-0.1,0.4c-0.1,0.1-0.2,0.2-0.3,0.3c-0.4,0.2-0.7,0.3-1.2,0.4c-0.4,0.1-0.8,0.3-1.1,0.5c-0.7,0.5-1.3,1.1-1.9,1.8
		c-0.6,0.7-1.2,1.3-1.8,1.9c0,0-0.1,0.1-0.1,0.2c0,0.1-0.1,0.2-0.1,0.2c0,0.1-0.2,0.3-0.6,0.6s-0.7,0.7-1.1,1.1
		c-0.4,0.4-0.7,0.8-1,1.2c-0.3,0.4-0.5,0.6-0.5,0.7c0,0.1,0.1,0.3,0.4,0.7c0.3,0.3,0.6,0.8,1,1.2s0.9,1,1.3,1.5
		c0.5,0.6,1,1.1,1.4,1.6c0.5,0.5,0.9,0.9,1.2,1.3c0.4,0.4,0.6,0.6,0.8,0.7c0.2,0.1,0.5,0.2,0.8,0.3c0.4,0.1,0.8,0.2,1.2,0.3
		s0.8,0.2,1.1,0.3c0.3,0.1,0.5,0.3,0.5,0.5V85.9z M459.3,63.7l-1.2-1.9h-1.5l1.1,1.9l-1.1,1.8h1.6L459.3,63.7z M461.9,63.7l-1.7-2.6
		h-2.1l1.4,2.6l-1.4,2.6h2.1L461.9,63.7z M474.7,77.5l-5,3.6l-9.3-11.8l4.9-3.2L474.7,77.5z M466.3,78.2h-5l2.7-2.8L466.3,78.2z
		 M465.1,69.3c0-0.2-0.1-0.4-0.3-0.7c-0.2-0.3-0.5-0.4-0.8-0.4c-0.3,0-0.5,0.1-0.7,0.3c-0.2,0.2-0.3,0.4-0.3,0.7
		c0,0.2,0.1,0.5,0.2,0.7c0.2,0.2,0.4,0.3,0.8,0.3c0.3,0,0.5-0.1,0.7-0.2S465.1,69.6,465.1,69.3z M466.3,72.9c0-0.2-0.1-0.5-0.3-0.7
		c-0.2-0.2-0.5-0.3-0.7-0.3s-0.5,0.1-0.8,0.3c-0.2,0.2-0.3,0.5-0.3,0.8c0,0.2,0.1,0.4,0.3,0.6c0.2,0.2,0.5,0.3,0.8,0.3
		c0.3,0,0.5-0.1,0.7-0.2C466.2,73.6,466.3,73.3,466.3,72.9z M468.4,75.7c0-0.2-0.1-0.5-0.3-0.7c-0.2-0.2-0.5-0.3-0.8-0.3
		c-0.3,0-0.5,0.1-0.7,0.3s-0.3,0.4-0.3,0.7c0,0,0,0.1,0.1,0.2s0.1,0.2,0.2,0.3s0.2,0.2,0.3,0.3c0.1,0.1,0.3,0.1,0.5,0.1
		c0.3,0,0.5-0.1,0.7-0.3C468.3,76.3,468.4,76.1,468.4,75.7z M472.1,77.9c0,0,0-0.1-0.1-0.2c0-0.1-0.1-0.2-0.2-0.3
		c-0.1-0.1-0.2-0.2-0.3-0.3c-0.1-0.1-0.3-0.1-0.5-0.1c-0.3,0-0.5,0.1-0.7,0.3c-0.2,0.2-0.3,0.4-0.3,0.7c0,0.2,0.1,0.5,0.3,0.7
		c0.2,0.2,0.5,0.3,0.8,0.3c0.3,0,0.5-0.1,0.7-0.3C472,78.5,472.1,78.3,472.1,77.9z M473.7,87.6c0-0.1-0.1-0.2-0.2-0.3
		c-0.1-0.1-0.3-0.2-0.4-0.3c-0.2-0.1-0.3-0.2-0.4-0.3s-0.2-0.1-0.2-0.1H472c0,0.1,0.1,0.2,0.2,0.3s0.3,0.2,0.4,0.3s0.3,0.2,0.4,0.3
		c0.1,0.1,0.2,0.1,0.3,0.1H473.7z M486.4,89.1c0,0.1-0.1,0.3-0.3,0.5c-0.2,0.2-0.4,0.3-0.5,0.3h-7.8l-1.5-0.4l-1,0.4h-0.6l0.8-3.4
		h11V89.1z"/>
</g>
</svg>
