<?xml version="1.0" encoding="UTF-8" standalone="no"?>
<!DOCTYPE svg PUBLIC "-//W3C//DTD SVG 1.1//EN" "http://www.w3.org/Graphics/SVG/1.1/DTD/svg11.dtd">
<svg version="1.1" xmlns="http://www.w3.org/2000/svg" xmlns:xlink="http://www.w3.org/1999/xlink" preserveAspectRatio="xMidYMid meet" viewBox="0 0 1500 400" width="1500" height="400"><defs><path d="M770.21 100.31L727.4 100.31L727.4 184.87L703.58 184.87L703.58 100.31L660.04 100.31L660.04 78.79L770.21 78.79L770.21 100.31Z" id="dDBHSU5MN"></path><path d="M1413.36 100.31L1370.56 100.31L1370.56 184.87L1346.74 184.87L1346.74 100.31L1303.19 100.31L1303.19 78.79L1413.36 78.79L1413.36 100.31Z" id="a75l2H8zcf"></path><path d="M1021.81 184.87L933.97 184.87L933.97 78.79L957.79 78.79L957.79 163.73L1021.81 163.73L1021.81 184.87Z" id="cBp0WiECK"></path><path d="M507.81 184.87L482.5 184.87L452.72 144.13L430.77 169.49L430.77 184.87L406.94 184.87L406.94 78.79L430.77 78.79L430.77 136.82L481.38 78.79L508.55 78.79L468.36 127.6L507.81 184.87Z" id="f5hnAqIkJ7"></path><path d="M525.3 184.87L553.59 184.87L597.14 95.7L641.05 184.87L669.71 184.87L616.49 78.79L577.78 78.79L525.3 184.87Z" id="jsRtx7PQg"></path><path d="M766.86 184.87L795.14 184.87L838.69 95.7L882.61 184.87L911.27 184.87L858.04 78.79L819.34 78.79L766.86 184.87Z" id="c2X3imjoz"></path><path d="M1091.41 147.59L1091.41 184.87L1067.22 184.87L1067.22 147.59L1017.72 78.79L1046.75 78.79L1079.5 126.83L1111.88 78.79L1140.91 78.79L1091.41 147.59Z" id="e3bh2EmX5w"></path><path d="M1238.8 78.79C1217.96 78.79 1206.79 78.79 1201.95 78.79C1186.32 78.79 1158.03 78.79 1158.03 105.69C1158.03 108.38 1158.03 112.23 1158.03 113.38C1158.03 136.06 1174.04 138.36 1187.06 138.75C1200.09 139.13 1222.42 140.28 1234.33 140.67C1246.24 141.05 1252.94 144.13 1252.94 152.97C1252.94 161.81 1246.24 164.11 1236.94 164.11C1227.63 164.11 1210.14 164.11 1201.21 164.11C1192.27 164.11 1183.34 163.34 1183.34 155.27C1180.81 155.27 1160.56 155.27 1158.03 155.27C1158.03 172.18 1166.22 184.87 1189.3 184.87C1212.37 184.87 1232.1 184.87 1245.87 184.87C1267.46 184.87 1278.25 173.72 1278.25 157.58C1278.25 154.89 1278.25 148.74 1278.25 148.74C1278.25 125.68 1262.99 121.84 1248.48 121.07C1233.59 120.3 1209.77 119.91 1201.95 119.53C1193.76 119.15 1186.32 119.15 1186.32 111.07C1186.32 106.08 1186.32 99.54 1198.6 99.54C1210.88 99.54 1230.98 99.54 1240.66 99.54C1250.34 99.54 1252.57 102.62 1252.57 108.77C1254.26 108.77 1262.69 108.77 1277.88 108.77C1270.44 88.78 1257.41 78.79 1238.8 78.79Z" id="d5dC6jc581"></path><path d="M987.57 232.14C987.57 232.14 987.57 232.14 987.57 232.14C987.57 288.41 987.57 319.67 987.57 325.92C987.57 325.92 987.57 325.92 987.57 325.92C974.17 325.92 966.73 325.92 965.24 325.92C965.24 325.92 965.24 325.92 965.24 325.92C965.24 269.66 965.24 238.4 965.24 232.14C965.24 232.14 965.24 232.14 965.24 232.14C978.64 232.14 986.08 232.14 987.57 232.14Z" id="b2LeRZTBOL"></path><path d="M1128 325.54L1101.94 325.54L1042.02 254.82L1042.02 325.54L1019.69 325.54L1019.69 231.76L1052.07 231.76L1105.66 295.94L1105.66 231.76L1128 231.76L1128 325.54Z" id="c3ZowozlH"></path><path d="M800.73 294.79C800.73 315.93 794.03 325.92 762.02 325.92C762.02 325.92 732.24 325.92 728.15 325.92C706.56 325.92 693.16 317.47 693.16 287.49C693.16 285.8 693.16 272.27 693.16 270.58C693.16 240.21 706.56 231.76 728.15 231.76C732.61 231.76 762.02 231.76 762.02 231.76C794.03 231.76 800.73 241.75 800.73 263.28C798.49 263.28 780.63 263.28 778.39 263.28C778.39 254.05 770.58 252.13 762.76 252.13C754.95 252.13 731.5 252.13 731.5 252.13C725.54 252.13 714.75 253.28 714.75 269.42C714.75 272.88 714.75 279.03 714.75 279.03C714.75 279.03 714.75 284.8 714.75 288.26C714.75 304.4 725.54 305.55 731.5 305.55C731.5 305.55 754.95 305.55 762.76 305.55C770.58 305.94 778.39 303.63 778.39 294.79C782.86 294.79 798.49 294.79 800.73 294.79Z" id="be5ggGHBS"></path><path d="M899.58 232.24L901.63 232.35L903.6 232.51L905.51 232.72L907.34 232.97L909.1 233.27L910.8 233.61L912.42 234L913.98 234.43L915.48 234.91L916.91 235.43L918.27 236L919.57 236.61L920.81 237.27L921.99 237.97L923.11 238.72L924.17 239.51L925.17 240.34L926.11 241.22L927 242.15L927.83 243.11L928.6 244.12L929.32 245.18L929.99 246.27L930.61 247.42L931.18 248.6L931.69 249.83L932.16 251.1L932.58 252.41L932.95 253.77L933.28 255.17L933.56 256.61L933.8 258.09L933.99 259.62L934.14 261.19L934.25 262.8L934.32 264.45L934.35 266.15L934.34 267.89L934.34 290.95L934.33 292.66L934.27 294.33L934.18 295.96L934.05 297.55L933.89 299.11L933.68 300.62L933.43 302.09L933.14 303.52L932.8 304.91L932.43 306.26L932 307.57L931.53 308.84L931.01 310.07L930.45 311.25L929.83 312.39L929.16 313.49L928.44 314.55L927.67 315.57L926.85 316.54L925.97 317.47L925.03 318.35L924.04 319.2L922.99 320L921.88 320.75L920.71 321.46L919.48 322.13L918.19 322.75L916.84 323.33L915.42 323.86L913.93 324.35L912.38 324.79L910.76 325.19L909.08 325.54L907.32 325.84L905.49 326.1L903.59 326.31L901.62 326.48L899.58 326.6L897.46 326.67L895.26 326.69L865.49 326.69L863.29 326.67L861.17 326.6L859.13 326.48L857.16 326.31L855.26 326.1L853.43 325.84L851.68 325.54L849.99 325.19L848.37 324.79L846.82 324.35L845.34 323.86L843.92 323.33L842.56 322.75L841.27 322.13L840.04 321.46L838.87 320.75L837.76 320L836.71 319.2L835.72 318.35L834.78 317.47L833.9 316.54L833.08 315.57L832.31 314.55L831.59 313.49L830.92 312.39L830.31 311.25L829.74 310.07L829.22 308.84L828.75 307.57L828.33 306.26L827.95 304.91L827.61 303.52L827.32 302.09L827.07 300.62L826.87 299.11L826.7 297.55L826.57 295.96L826.48 294.33L826.43 292.66L826.41 290.95L826.41 267.89L826.43 266.18L826.48 264.51L826.57 262.87L826.7 261.28L826.87 259.73L827.07 258.22L827.32 256.75L827.61 255.31L827.95 253.92L828.33 252.57L828.75 251.26L829.22 250L829.74 248.77L830.31 247.59L830.92 246.44L831.59 245.34L832.31 244.29L833.08 243.27L833.9 242.3L834.78 241.37L835.72 240.48L836.71 239.64L837.76 238.84L838.87 238.08L840.04 237.37L841.27 236.71L842.56 236.08L843.92 235.51L845.34 234.97L846.82 234.49L848.37 234.04L849.99 233.65L851.68 233.3L853.43 232.99L855.26 232.73L857.16 232.52L859.13 232.36L861.17 232.24L863.29 232.17L865.49 232.14L895.26 232.14L897.46 232.17L899.58 232.24ZM866.57 252.53L865.13 252.59L863.76 252.69L862.47 252.83L861.25 253.01L860.1 253.22L859.01 253.47L858 253.76L857.05 254.09L856.16 254.45L855.33 254.84L854.56 255.27L853.85 255.74L853.18 256.24L852.57 256.77L852.01 257.33L851.5 257.93L851.03 258.56L850.61 259.22L850.23 259.91L849.88 260.63L849.58 261.38L849.31 262.16L849.07 262.97L848.86 263.81L848.68 264.68L848.53 265.57L848.4 266.49L848.29 267.43L848.2 268.4L848.14 269.4L848.08 270.42L848.05 271.47L848.02 272.54L848 273.63L848 274.74L847.99 275.88L847.99 277.04L847.99 278.22L848 279.42L847.99 280.62L847.99 281.8L848 282.96L848.01 284.09L848.02 285.21L848.04 286.3L848.07 287.37L848.12 288.41L848.18 289.44L848.26 290.43L848.35 291.4L848.47 292.35L848.61 293.27L848.77 294.16L848.96 295.02L849.17 295.86L849.42 296.67L849.7 297.45L850.02 298.2L850.37 298.92L850.76 299.61L851.19 300.27L851.66 300.9L852.18 301.5L852.74 302.07L853.35 302.6L854.01 303.1L854.72 303.56L855.49 303.99L856.32 304.39L857.2 304.75L858.14 305.07L859.15 305.36L860.22 305.61L861.35 305.83L862.56 306L863.83 306.14L865.18 306.24L866.6 306.3L868.09 306.32L893.03 306.32L894.53 306.3L895.95 306.24L897.29 306.14L898.57 305.99L899.77 305.81L900.91 305.59L901.98 305.33L902.98 305.04L903.92 304.7L904.81 304.33L905.63 303.93L906.4 303.49L907.11 303.01L907.77 302.51L908.39 301.96L908.95 301.39L909.47 300.78L909.94 300.15L910.37 299.48L910.76 298.78L911.11 298.05L911.42 297.29L911.7 296.51L911.95 295.7L912.17 294.86L912.36 293.99L912.52 293.1L912.66 292.18L912.77 291.24L912.87 290.27L912.94 289.28L913 288.27L913.05 287.23L913.08 286.18L913.11 285.1L913.12 284L913.13 282.88L913.13 281.75L913.13 280.59L913.13 279.42L913.13 278.22L913.13 277.04L913.13 275.88L913.12 274.74L913.11 273.63L913.08 272.54L913.05 271.47L913 270.42L912.94 269.4L912.87 268.4L912.77 267.43L912.66 266.49L912.52 265.57L912.36 264.68L912.17 263.81L911.95 262.97L911.7 262.16L911.42 261.38L911.11 260.63L910.76 259.91L910.37 259.22L909.94 258.56L909.47 257.93L908.95 257.33L908.39 256.77L907.77 256.24L907.11 255.74L906.4 255.27L905.63 254.84L904.81 254.45L903.92 254.09L902.98 253.76L901.98 253.47L900.91 253.22L899.77 253.01L898.57 252.83L897.29 252.69L895.95 252.59L894.53 252.53L893.03 252.51L868.09 252.51L866.57 252.53Z" id="bEhU5p5XH"></path><path d="M185.94 361.46C90.09 361.46 12.12 283.72 12.12 187.87C12.12 120.69 50.42 62.21 106.37 33.55C106.37 52.02 106.37 144.35 106.37 310.55L146.04 310.55L146.04 286.48L178.14 247.49L213 310.55L265.51 310.55L203.82 216.31L265.51 136.97L213.68 136.97L146.04 216.54C146.04 97.94 146.04 32.05 146.04 18.87C158.88 15.89 172.41 14.29 186.17 14.29C282.02 14.29 359.75 92.02 359.75 187.87C359.75 283.72 282.02 361.46 185.94 361.46Z" id="ahAFf8CIo"></path></defs><g><g><g><use xlink:href="#dDBHSU5MN" opacity="1" fill="#ffffff" fill-opacity="1"></use><g><use xlink:href="#dDBHSU5MN" opacity="1" fill-opacity="0" stroke="#000000" stroke-width="1" stroke-opacity="0"></use></g></g><g><use xlink:href="#a75l2H8zcf" opacity="1" fill="#ffffff" fill-opacity="1"></use><g><use xlink:href="#a75l2H8zcf" opacity="1" fill-opacity="0" stroke="#000000" stroke-width="1" stroke-opacity="0"></use></g></g><g><use xlink:href="#cBp0WiECK" opacity="1" fill="#ffffff" fill-opacity="1"></use><g><use xlink:href="#cBp0WiECK" opacity="1" fill-opacity="0" stroke="#000000" stroke-width="1" stroke-opacity="0"></use></g></g><g><use xlink:href="#f5hnAqIkJ7" opacity="1" fill="#ffffff" fill-opacity="1"></use><g><use xlink:href="#f5hnAqIkJ7" opacity="1" fill-opacity="0" stroke="#000000" stroke-width="1" stroke-opacity="0"></use></g></g><g><use xlink:href="#jsRtx7PQg" opacity="1" fill="#ffffff" fill-opacity="1"></use><g><use xlink:href="#jsRtx7PQg" opacity="1" fill-opacity="0" stroke="#000000" stroke-width="1" stroke-opacity="0"></use></g></g><g><use xlink:href="#c2X3imjoz" opacity="1" fill="#ffffff" fill-opacity="1"></use><g><use xlink:href="#c2X3imjoz" opacity="1" fill-opacity="0" stroke="#000000" stroke-width="1" stroke-opacity="0"></use></g></g><g><use xlink:href="#e3bh2EmX5w" opacity="1" fill="#ffffff" fill-opacity="1"></use><g><use xlink:href="#e3bh2EmX5w" opacity="1" fill-opacity="0" stroke="#000000" stroke-width="1" stroke-opacity="0"></use></g></g><g><use xlink:href="#d5dC6jc581" opacity="1" fill="#ffffff" fill-opacity="1"></use><g><use xlink:href="#d5dC6jc581" opacity="1" fill-opacity="0" stroke="#000000" stroke-width="1" stroke-opacity="0"></use></g></g><g><use xlink:href="#b2LeRZTBOL" opacity="1" fill="#ffffff" fill-opacity="1"></use><g><use xlink:href="#b2LeRZTBOL" opacity="1" fill-opacity="0" stroke="#000000" stroke-width="1" stroke-opacity="0"></use></g></g><g><use xlink:href="#c3ZowozlH" opacity="1" fill="#ffffff" fill-opacity="1"></use><g><use xlink:href="#c3ZowozlH" opacity="1" fill-opacity="0" stroke="#000000" stroke-width="1" stroke-opacity="0"></use></g></g><g><use xlink:href="#be5ggGHBS" opacity="1" fill="#ffffff" fill-opacity="1"></use><g><use xlink:href="#be5ggGHBS" opacity="1" fill-opacity="0" stroke="#000000" stroke-width="1" stroke-opacity="0"></use></g></g><g><use xlink:href="#bEhU5p5XH" opacity="1" fill="#ffffff" fill-opacity="1"></use><g><use xlink:href="#bEhU5p5XH" opacity="1" fill-opacity="0" stroke="#000000" stroke-width="1" stroke-opacity="0"></use></g></g><g><use xlink:href="#ahAFf8CIo" opacity="1" fill="#ffffff" fill-opacity="1"></use><g><use xlink:href="#ahAFf8CIo" opacity="1" fill-opacity="0" stroke="#000000" stroke-width="1" stroke-opacity="0"></use></g></g></g></g></svg>