<?xml version="1.0" encoding="UTF-8" standalone="no"?>
<!DOCTYPE svg PUBLIC "-//W3C//DTD SVG 1.1//EN" "http://www.w3.org/Graphics/SVG/1.1/DTD/svg11.dtd">
<svg version="1.1" xmlns="http://www.w3.org/2000/svg" xmlns:xlink="http://www.w3.org/1999/xlink" preserveAspectRatio="xMidYMid meet" viewBox="0 0 300 230" width="300" height="230"><defs><path d="M114.48 182.29L114.48 196.42L109.23 196.42L109.23 182.29L99.64 182.29L99.64 178.69L123.91 178.69L123.91 182.29L114.48 182.29Z" id="a3GhzEAsoM"></path><path d="M114.48 182.29L114.48 196.42L109.23 196.42L109.23 182.29L99.64 182.29L99.64 178.69L123.91 178.69L123.91 182.29L114.48 182.29Z" id="bTt9Fn9r1"></path><path d="M256.16 182.29L256.16 196.42L250.91 196.42L250.91 182.29L241.32 182.29L241.32 178.69L265.59 178.69L265.59 182.29L256.16 182.29Z" id="cJD4FuucX"></path><path d="M256.16 182.29L256.16 196.42L250.91 196.42L250.91 182.29L241.32 182.29L241.32 178.69L265.59 178.69L265.59 182.29L256.16 182.29Z" id="bE0M0tHiy"></path><path d="M159.99 196.42L159.99 178.69L165.23 178.69L165.23 192.88L179.33 192.88L179.33 196.42L159.99 196.42Z" id="b4k9vKNdBN"></path><path d="M159.99 196.42L159.99 178.69L165.23 178.69L165.23 192.88L179.33 192.88L179.33 196.42L159.99 196.42Z" id="aUXSxefkI"></path><path d="M60.53 196.42L53.97 189.61L49.13 193.85L49.13 196.42L43.88 196.42L43.88 178.69L49.13 178.69L49.13 188.39L60.29 178.69L66.27 178.69L57.41 186.85L66.11 196.42L60.53 196.42Z" id="bqjd1fCM"></path><path d="M60.53 196.42L53.97 189.61L49.13 193.85L49.13 196.42L43.88 196.42L43.88 178.69L49.13 178.69L49.13 188.39L60.29 178.69L66.27 178.69L57.41 186.85L66.11 196.42L60.53 196.42Z" id="edft5nwDg"></path><path d="M76.19 196.42L85.78 181.52L95.46 196.42L101.77 196.42L90.05 178.69L81.52 178.69L69.96 196.42L76.19 196.42Z" id="gjO6SwAvX"></path><path d="M76.19 196.42L85.78 181.52L95.46 196.42L101.77 196.42L90.05 178.69L81.52 178.69L69.96 196.42L76.19 196.42Z" id="a1nUuyzeG"></path><path d="M129.4 196.42L138.99 181.52L148.67 196.42L154.98 196.42L143.26 178.69L134.73 178.69L123.17 196.42L129.4 196.42Z" id="m9W7YlJB"></path><path d="M129.4 196.42L138.99 181.52L148.67 196.42L154.98 196.42L143.26 178.69L134.73 178.69L123.17 196.42L129.4 196.42Z" id="b1RzVFGA7d"></path><path d="M194.67 196.42L189.34 196.42L189.34 190.19L178.43 178.69L184.83 178.69L192.04 186.72L199.18 178.69L205.57 178.69L194.67 190.19L194.67 196.42Z" id="b2tfgodz3v"></path><path d="M194.67 196.42L189.34 196.42L189.34 190.19L178.43 178.69L184.83 178.69L192.04 186.72L199.18 178.69L205.57 178.69L194.67 190.19L194.67 196.42Z" id="gtVJ8HoPx"></path><path d="M219.02 178.75C215.57 178.75 209.34 178.75 209.34 183.25C209.34 183.7 209.34 184.34 209.34 184.53C209.34 188.32 212.87 188.71 215.74 188.77C218.61 188.84 223.53 189.03 226.15 189.09C228.78 189.16 230.25 189.67 230.25 191.15C230.25 192.63 228.78 193.01 226.72 193.01C224.67 193.01 220.82 193.01 218.85 193.01C216.89 193.01 214.92 192.88 214.92 191.54C214.36 191.54 209.9 191.54 209.34 191.54C209.34 194.36 211.14 196.48 216.23 196.48C221.31 196.48 225.66 196.48 228.69 196.48C233.45 196.48 235.83 194.62 235.83 191.92C235.83 191.47 235.83 190.44 235.83 190.44C235.83 186.59 232.46 185.95 229.27 185.82C225.99 185.69 220.74 185.63 219.02 185.56C217.21 185.5 215.57 185.5 215.57 184.15C215.57 183.31 215.57 182.22 218.28 182.22C220.98 182.22 225.41 182.22 227.55 182.22C229.68 182.22 230.17 182.73 230.17 183.76C230.54 183.76 232.4 183.76 235.74 183.76C234.1 180.42 231.23 178.75 227.13 178.75C222.54 178.75 220.08 178.75 219.02 178.75Z" id="b3PG7pn93"></path><path d="M219.02 178.75C215.57 178.75 209.34 178.75 209.34 183.25C209.34 183.7 209.34 184.34 209.34 184.53C209.34 188.32 212.87 188.71 215.74 188.77C218.61 188.84 223.53 189.03 226.15 189.09C228.78 189.16 230.25 189.67 230.25 191.15C230.25 192.63 228.78 193.01 226.72 193.01C224.67 193.01 220.82 193.01 218.85 193.01C216.89 193.01 214.92 192.88 214.92 191.54C214.36 191.54 209.9 191.54 209.34 191.54C209.34 194.36 211.14 196.48 216.23 196.48C221.31 196.48 225.66 196.48 228.69 196.48C233.45 196.48 235.83 194.62 235.83 191.92C235.83 191.47 235.83 190.44 235.83 190.44C235.83 186.59 232.46 185.95 229.27 185.82C225.99 185.69 220.74 185.63 219.02 185.56C217.21 185.5 215.57 185.5 215.57 184.15C215.57 183.31 215.57 182.22 218.28 182.22C220.98 182.22 225.41 182.22 227.55 182.22C229.68 182.22 230.17 182.73 230.17 183.76C230.54 183.76 232.4 183.76 235.74 183.76C234.1 180.42 231.23 178.75 227.13 178.75C222.54 178.75 220.08 178.75 219.02 178.75Z" id="b8w5R9Dnt"></path><path d="M171.79 204.32C171.79 213.72 171.79 218.95 171.79 219.99C171.79 219.99 171.79 219.99 171.79 219.99C168.84 219.99 167.2 219.99 166.87 219.99C166.87 219.99 166.87 219.99 166.87 219.99C166.87 210.59 166.87 205.36 166.87 204.32C166.87 204.32 166.87 204.32 166.87 204.32C169.82 204.32 171.46 204.32 171.79 204.32C171.79 204.32 171.79 204.32 171.79 204.32Z" id="d8pXZu0YC"></path><path d="M171.79 204.32C171.79 213.72 171.79 218.95 171.79 219.99C171.79 219.99 171.79 219.99 171.79 219.99C168.84 219.99 167.2 219.99 166.87 219.99C166.87 219.99 166.87 219.99 166.87 219.99C166.87 210.59 166.87 205.36 166.87 204.32C166.87 204.32 166.87 204.32 166.87 204.32C169.82 204.32 171.46 204.32 171.79 204.32C171.79 204.32 171.79 204.32 171.79 204.32Z" id="b43uQ6gmd"></path><path d="M196.8 219.99L183.6 208.17L183.6 219.99L178.68 219.99L178.68 204.32L185.81 204.32L197.62 215.05L197.62 204.32L202.54 204.32L202.54 219.99L196.8 219.99Z" id="d2wlwrxsh8"></path><path d="M196.8 219.99L183.6 208.17L183.6 219.99L178.68 219.99L178.68 204.32L185.81 204.32L197.62 215.05L197.62 204.32L202.54 204.32L202.54 219.99L196.8 219.99Z" id="b1uybH2HbS"></path><path d="M122.11 219.99C122.11 219.99 115.55 219.99 114.64 219.99C109.89 219.99 106.94 218.58 106.94 213.57C106.94 213.29 106.94 211.03 106.94 210.74C106.94 205.67 109.89 204.26 114.64 204.26C115.63 204.26 122.11 204.26 122.11 204.26C129.16 204.26 130.63 205.92 130.63 209.52C130.14 209.52 126.2 209.52 125.71 209.52C125.71 207.98 123.99 207.66 122.27 207.66C120.55 207.66 115.38 207.66 115.38 207.66C114.07 207.66 111.69 207.85 111.69 210.55C111.69 211.13 111.69 212.16 111.69 212.16C111.69 212.16 111.69 213.12 111.69 213.7C111.69 216.4 114.07 216.59 115.38 216.59C115.38 216.59 120.55 216.59 122.27 216.59C123.99 216.65 125.71 216.27 125.71 214.79C126.7 214.79 130.14 214.79 130.63 214.79C130.63 218.32 129.16 219.99 122.11 219.99Z" id="gMWTmH4vR"></path><path d="M122.11 219.99C122.11 219.99 115.55 219.99 114.64 219.99C109.89 219.99 106.94 218.58 106.94 213.57C106.94 213.29 106.94 211.03 106.94 210.74C106.94 205.67 109.89 204.26 114.64 204.26C115.63 204.26 122.11 204.26 122.11 204.26C129.16 204.26 130.63 205.92 130.63 209.52C130.14 209.52 126.2 209.52 125.71 209.52C125.71 207.98 123.99 207.66 122.27 207.66C120.55 207.66 115.38 207.66 115.38 207.66C114.07 207.66 111.69 207.85 111.69 210.55C111.69 211.13 111.69 212.16 111.69 212.16C111.69 212.16 111.69 213.12 111.69 213.7C111.69 216.4 114.07 216.59 115.38 216.59C115.38 216.59 120.55 216.59 122.27 216.59C123.99 216.65 125.71 216.27 125.71 214.79C126.7 214.79 130.14 214.79 130.63 214.79C130.63 218.32 129.16 219.99 122.11 219.99Z" id="bsjiwFjRD"></path><path d="M152.41 204.34L152.86 204.35L153.3 204.38L153.71 204.41L154.12 204.46L154.5 204.51L154.88 204.57L155.24 204.63L155.58 204.7L155.91 204.78L156.22 204.87L156.52 204.96L156.81 205.07L157.09 205.18L157.34 205.29L157.59 205.42L157.82 205.55L158.04 205.69L158.25 205.84L158.45 205.99L158.63 206.15L158.8 206.32L158.96 206.5L159.11 206.68L159.25 206.87L159.37 207.07L159.48 207.28L159.59 207.49L159.68 207.71L159.76 207.93L159.83 208.17L159.89 208.41L159.95 208.66L159.99 208.91L160.02 209.17L160.05 209.44L160.06 209.72L160.07 210L160.07 214.15L160.06 214.43L160.05 214.71L160.03 214.99L160 215.25L159.96 215.51L159.92 215.76L159.86 216.01L159.8 216.25L159.73 216.48L159.64 216.71L159.55 216.93L159.45 217.14L159.33 217.34L159.21 217.54L159.07 217.73L158.92 217.92L158.77 218.09L158.6 218.26L158.42 218.43L158.22 218.58L158.02 218.73L157.8 218.87L157.57 219L157.32 219.13L157.06 219.25L156.79 219.36L156.51 219.46L156.21 219.56L155.9 219.65L155.57 219.73L155.23 219.81L154.87 219.87L154.5 219.93L154.11 219.98L153.71 220.02L153.29 220.06L152.86 220.09L152.41 220.11L151.94 220.12L151.46 220.12L144.9 220.12L144.41 220.12L143.95 220.11L143.5 220.09L143.06 220.06L142.64 220.02L142.24 219.98L141.85 219.93L141.48 219.87L141.13 219.81L140.79 219.73L140.46 219.65L140.15 219.56L139.85 219.46L139.56 219.36L139.29 219.25L139.03 219.13L138.79 219L138.56 218.87L138.34 218.73L138.14 218.58L137.94 218.43L137.76 218.26L137.59 218.09L137.43 217.92L137.28 217.73L137.15 217.54L137.02 217.34L136.91 217.14L136.81 216.93L136.71 216.71L136.63 216.48L136.56 216.25L136.49 216.01L136.44 215.76L136.39 215.51L136.35 215.25L136.33 214.99L136.3 214.71L136.29 214.43L136.29 214.15L136.29 210.3L136.29 210.01L136.3 209.73L136.33 209.46L136.35 209.19L136.39 208.93L136.44 208.68L136.49 208.43L136.56 208.19L136.63 207.96L136.71 207.73L136.81 207.52L136.91 207.3L137.02 207.1L137.15 206.9L137.28 206.71L137.43 206.53L137.59 206.35L137.76 206.18L137.94 206.02L138.14 205.86L138.34 205.71L138.56 205.57L138.79 205.44L139.03 205.31L139.29 205.19L139.56 205.08L139.85 204.98L140.15 204.88L140.46 204.79L140.79 204.71L141.13 204.64L141.48 204.57L141.85 204.51L142.24 204.46L142.64 204.42L143.06 204.38L143.5 204.36L143.95 204.34L144.41 204.32L144.9 204.32L151.46 204.32L151.94 204.32L152.41 204.34ZM144.94 207.73L144.46 207.76L144.02 207.8L143.61 207.86L143.25 207.93L142.92 208.02L142.63 208.13L142.37 208.25L142.13 208.38L141.93 208.53L141.75 208.69L141.6 208.87L141.48 209.06L141.37 209.26L141.28 209.47L141.21 209.7L141.16 209.94L141.11 210.19L141.09 210.45L141.06 210.72L141.05 211L141.05 211.29L141.04 211.59L141.04 211.9L141.05 212.22L141.05 212.85L141.05 213.15L141.06 213.44L141.07 213.72L141.1 214L141.13 214.26L141.17 214.51L141.23 214.74L141.3 214.97L141.4 215.18L141.5 215.39L141.64 215.57L141.79 215.75L141.96 215.91L142.17 216.06L142.4 216.2L142.66 216.32L142.96 216.42L143.28 216.51L143.64 216.58L144.04 216.64L144.48 216.69L144.95 216.71L145.47 216.72L150.96 216.72L151.48 216.71L151.96 216.68L152.4 216.64L152.8 216.58L153.16 216.5L153.48 216.41L153.78 216.3L154.04 216.18L154.27 216.04L154.47 215.89L154.65 215.73L154.8 215.55L154.93 215.36L155.04 215.16L155.13 214.94L155.21 214.72L155.27 214.48L155.31 214.23L155.34 213.97L155.37 213.7L155.38 213.42L155.39 213.13L155.39 212.84L155.39 211.59L155.39 211.29L155.38 211L155.37 210.72L155.34 210.45L155.31 210.19L155.27 209.94L155.21 209.7L155.13 209.47L155.04 209.26L154.93 209.06L154.8 208.87L154.65 208.69L154.47 208.53L154.27 208.38L154.04 208.25L153.78 208.13L153.48 208.02L153.16 207.93L152.8 207.86L152.4 207.8L151.96 207.76L151.48 207.73L150.96 207.72L145.47 207.72L144.94 207.73Z" id="a3Pb5QIxrv"></path><path d="M152.41 204.34L152.86 204.35L153.3 204.38L153.71 204.41L154.12 204.46L154.5 204.51L154.88 204.57L155.24 204.63L155.58 204.7L155.91 204.78L156.22 204.87L156.52 204.96L156.81 205.07L157.09 205.18L157.34 205.29L157.59 205.42L157.82 205.55L158.04 205.69L158.25 205.84L158.45 205.99L158.63 206.15L158.8 206.32L158.96 206.5L159.11 206.68L159.25 206.87L159.37 207.07L159.48 207.28L159.59 207.49L159.68 207.71L159.76 207.93L159.83 208.17L159.89 208.41L159.95 208.66L159.99 208.91L160.02 209.17L160.05 209.44L160.06 209.72L160.07 210L160.07 214.15L160.06 214.43L160.05 214.71L160.03 214.99L160 215.25L159.96 215.51L159.92 215.76L159.86 216.01L159.8 216.25L159.73 216.48L159.64 216.71L159.55 216.93L159.45 217.14L159.33 217.34L159.21 217.54L159.07 217.73L158.92 217.92L158.77 218.09L158.6 218.26L158.42 218.43L158.22 218.58L158.02 218.73L157.8 218.87L157.57 219L157.32 219.13L157.06 219.25L156.79 219.36L156.51 219.46L156.21 219.56L155.9 219.65L155.57 219.73L155.23 219.81L154.87 219.87L154.5 219.93L154.11 219.98L153.71 220.02L153.29 220.06L152.86 220.09L152.41 220.11L151.94 220.12L151.46 220.12L144.9 220.12L144.41 220.12L143.95 220.11L143.5 220.09L143.06 220.06L142.64 220.02L142.24 219.98L141.85 219.93L141.48 219.87L141.13 219.81L140.79 219.73L140.46 219.65L140.15 219.56L139.85 219.46L139.56 219.36L139.29 219.25L139.03 219.13L138.79 219L138.56 218.87L138.34 218.73L138.14 218.58L137.94 218.43L137.76 218.26L137.59 218.09L137.43 217.92L137.28 217.73L137.15 217.54L137.02 217.34L136.91 217.14L136.81 216.93L136.71 216.71L136.63 216.48L136.56 216.25L136.49 216.01L136.44 215.76L136.39 215.51L136.35 215.25L136.33 214.99L136.3 214.71L136.29 214.43L136.29 214.15L136.29 210.3L136.29 210.01L136.3 209.73L136.33 209.46L136.35 209.19L136.39 208.93L136.44 208.68L136.49 208.43L136.56 208.19L136.63 207.96L136.71 207.73L136.81 207.52L136.91 207.3L137.02 207.1L137.15 206.9L137.28 206.71L137.43 206.53L137.59 206.35L137.76 206.18L137.94 206.02L138.14 205.86L138.34 205.71L138.56 205.57L138.79 205.44L139.03 205.31L139.29 205.19L139.56 205.08L139.85 204.98L140.15 204.88L140.46 204.79L140.79 204.71L141.13 204.64L141.48 204.57L141.85 204.51L142.24 204.46L142.64 204.42L143.06 204.38L143.5 204.36L143.95 204.34L144.41 204.32L144.9 204.32L151.46 204.32L151.94 204.32L152.41 204.34ZM144.94 207.73L144.46 207.76L144.02 207.8L143.61 207.86L143.25 207.93L142.92 208.02L142.63 208.13L142.37 208.25L142.13 208.38L141.93 208.53L141.75 208.69L141.6 208.87L141.48 209.06L141.37 209.26L141.28 209.47L141.21 209.7L141.16 209.94L141.11 210.19L141.09 210.45L141.06 210.72L141.05 211L141.05 211.29L141.04 211.59L141.04 211.9L141.05 212.22L141.05 212.85L141.05 213.15L141.06 213.44L141.07 213.72L141.1 214L141.13 214.26L141.17 214.51L141.23 214.74L141.3 214.97L141.4 215.18L141.5 215.39L141.64 215.57L141.79 215.75L141.96 215.91L142.17 216.06L142.4 216.2L142.66 216.32L142.96 216.42L143.28 216.51L143.64 216.58L144.04 216.64L144.48 216.69L144.95 216.71L145.47 216.72L150.96 216.72L151.48 216.71L151.96 216.68L152.4 216.64L152.8 216.58L153.16 216.5L153.48 216.41L153.78 216.3L154.04 216.18L154.27 216.04L154.47 215.89L154.65 215.73L154.8 215.55L154.93 215.36L155.04 215.16L155.13 214.94L155.21 214.72L155.27 214.48L155.31 214.23L155.34 213.97L155.37 213.7L155.38 213.42L155.39 213.13L155.39 212.84L155.39 211.59L155.39 211.29L155.38 211L155.37 210.72L155.34 210.45L155.31 210.19L155.27 209.94L155.21 209.7L155.13 209.47L155.04 209.26L154.93 209.06L154.8 208.87L154.65 208.69L154.47 208.53L154.27 208.38L154.04 208.25L153.78 208.13L153.48 208.02L153.16 207.93L152.8 207.86L152.4 207.8L151.96 207.76L151.48 207.73L150.96 207.72L145.47 207.72L144.94 207.73Z" id="fvXKYEGMC"></path><path d="M73.26 86.86C73.26 55.37 91.21 27.96 117.44 14.52C117.44 23.18 117.44 66.46 117.44 144.37C118.68 144.37 124.88 144.37 136.03 144.37L136.03 133.08L151.08 114.81L167.42 144.37L192.04 144.37L163.12 100.19L192.04 63L167.74 63C148.72 85.38 138.15 97.81 136.03 100.3C136.03 44.7 136.03 13.82 136.03 7.64C142.05 6.25 148.39 5.49 154.84 5.49C199.77 5.49 236.21 41.93 236.21 86.86C236.21 131.79 199.77 168.23 154.74 168.23C109.81 168.23 73.26 131.79 73.26 86.86Z" id="b3f4oIsC7e"></path></defs><g><g><g><use xlink:href="#a3GhzEAsoM" opacity="1" fill="#ffffff" fill-opacity="1"></use><g><use xlink:href="#a3GhzEAsoM" opacity="1" fill-opacity="0" stroke="#000000" stroke-width="1" stroke-opacity="0"></use></g></g><g><use xlink:href="#bTt9Fn9r1" opacity="1" fill="#ffffff" fill-opacity="1"></use><g><use xlink:href="#bTt9Fn9r1" opacity="1" fill-opacity="0" stroke="#000000" stroke-width="1" stroke-opacity="0"></use></g></g><g><use xlink:href="#cJD4FuucX" opacity="1" fill="#ffffff" fill-opacity="1"></use><g><use xlink:href="#cJD4FuucX" opacity="1" fill-opacity="0" stroke="#000000" stroke-width="1" stroke-opacity="0"></use></g></g><g><use xlink:href="#bE0M0tHiy" opacity="1" fill="#ffffff" fill-opacity="1"></use><g><use xlink:href="#bE0M0tHiy" opacity="1" fill-opacity="0" stroke="#000000" stroke-width="1" stroke-opacity="0"></use></g></g><g><use xlink:href="#b4k9vKNdBN" opacity="1" fill="#ffffff" fill-opacity="1"></use><g><use xlink:href="#b4k9vKNdBN" opacity="1" fill-opacity="0" stroke="#000000" stroke-width="1" stroke-opacity="0"></use></g></g><g><use xlink:href="#aUXSxefkI" opacity="1" fill="#ffffff" fill-opacity="1"></use><g><use xlink:href="#aUXSxefkI" opacity="1" fill-opacity="0" stroke="#000000" stroke-width="1" stroke-opacity="0"></use></g></g><g><use xlink:href="#bqjd1fCM" opacity="1" fill="#ffffff" fill-opacity="1"></use><g><use xlink:href="#bqjd1fCM" opacity="1" fill-opacity="0" stroke="#000000" stroke-width="1" stroke-opacity="0"></use></g></g><g><use xlink:href="#edft5nwDg" opacity="1" fill="#ffffff" fill-opacity="1"></use><g><use xlink:href="#edft5nwDg" opacity="1" fill-opacity="0" stroke="#000000" stroke-width="1" stroke-opacity="0"></use></g></g><g><use xlink:href="#gjO6SwAvX" opacity="1" fill="#ffffff" fill-opacity="1"></use><g><use xlink:href="#gjO6SwAvX" opacity="1" fill-opacity="0" stroke="#000000" stroke-width="1" stroke-opacity="0"></use></g></g><g><use xlink:href="#a1nUuyzeG" opacity="1" fill="#ffffff" fill-opacity="1"></use><g><use xlink:href="#a1nUuyzeG" opacity="1" fill-opacity="0" stroke="#000000" stroke-width="1" stroke-opacity="0"></use></g></g><g><use xlink:href="#m9W7YlJB" opacity="1" fill="#ffffff" fill-opacity="1"></use><g><use xlink:href="#m9W7YlJB" opacity="1" fill-opacity="0" stroke="#000000" stroke-width="1" stroke-opacity="0"></use></g></g><g><use xlink:href="#b1RzVFGA7d" opacity="1" fill="#ffffff" fill-opacity="1"></use><g><use xlink:href="#b1RzVFGA7d" opacity="1" fill-opacity="0" stroke="#000000" stroke-width="1" stroke-opacity="0"></use></g></g><g><use xlink:href="#b2tfgodz3v" opacity="1" fill="#ffffff" fill-opacity="1"></use><g><use xlink:href="#b2tfgodz3v" opacity="1" fill-opacity="0" stroke="#000000" stroke-width="1" stroke-opacity="0"></use></g></g><g><use xlink:href="#gtVJ8HoPx" opacity="1" fill="#ffffff" fill-opacity="1"></use><g><use xlink:href="#gtVJ8HoPx" opacity="1" fill-opacity="0" stroke="#000000" stroke-width="1" stroke-opacity="0"></use></g></g><g><use xlink:href="#b3PG7pn93" opacity="1" fill="#ffffff" fill-opacity="1"></use><g><use xlink:href="#b3PG7pn93" opacity="1" fill-opacity="0" stroke="#000000" stroke-width="1" stroke-opacity="0"></use></g></g><g><use xlink:href="#b8w5R9Dnt" opacity="1" fill="#ffffff" fill-opacity="1"></use><g><use xlink:href="#b8w5R9Dnt" opacity="1" fill-opacity="0" stroke="#000000" stroke-width="1" stroke-opacity="0"></use></g></g><g><use xlink:href="#d8pXZu0YC" opacity="1" fill="#ffffff" fill-opacity="1"></use><g><use xlink:href="#d8pXZu0YC" opacity="1" fill-opacity="0" stroke="#000000" stroke-width="1" stroke-opacity="0"></use></g></g><g><use xlink:href="#b43uQ6gmd" opacity="1" fill="#ffffff" fill-opacity="1"></use><g><use xlink:href="#b43uQ6gmd" opacity="1" fill-opacity="0" stroke="#000000" stroke-width="1" stroke-opacity="0"></use></g></g><g><use xlink:href="#d2wlwrxsh8" opacity="1" fill="#ffffff" fill-opacity="1"></use><g><use xlink:href="#d2wlwrxsh8" opacity="1" fill-opacity="0" stroke="#000000" stroke-width="1" stroke-opacity="0"></use></g></g><g><use xlink:href="#b1uybH2HbS" opacity="1" fill="#ffffff" fill-opacity="1"></use><g><use xlink:href="#b1uybH2HbS" opacity="1" fill-opacity="0" stroke="#000000" stroke-width="1" stroke-opacity="0"></use></g></g><g><use xlink:href="#gMWTmH4vR" opacity="1" fill="#ffffff" fill-opacity="1"></use><g><use xlink:href="#gMWTmH4vR" opacity="1" fill-opacity="0" stroke="#000000" stroke-width="1" stroke-opacity="0"></use></g></g><g><use xlink:href="#bsjiwFjRD" opacity="1" fill="#ffffff" fill-opacity="1"></use><g><use xlink:href="#bsjiwFjRD" opacity="1" fill-opacity="0" stroke="#000000" stroke-width="1" stroke-opacity="0"></use></g></g><g><use xlink:href="#a3Pb5QIxrv" opacity="1" fill="#ffffff" fill-opacity="1"></use><g><use xlink:href="#a3Pb5QIxrv" opacity="1" fill-opacity="0" stroke="#000000" stroke-width="1" stroke-opacity="0"></use></g></g><g><use xlink:href="#fvXKYEGMC" opacity="1" fill="#ffffff" fill-opacity="1"></use><g><use xlink:href="#fvXKYEGMC" opacity="1" fill-opacity="0" stroke="#000000" stroke-width="1" stroke-opacity="0"></use></g></g><g><use xlink:href="#b3f4oIsC7e" opacity="1" fill="#ffffff" fill-opacity="1"></use><g><use xlink:href="#b3f4oIsC7e" opacity="1" fill-opacity="0" stroke="#000000" stroke-width="1" stroke-opacity="0"></use></g></g></g></g></svg>