<?xml version="1.0" encoding="utf-8"?>
<!-- Generator: Adobe Illustrator 18.0.0, SVG Export Plug-In . SVG Version: 6.00 Build 0)  -->
<!DOCTYPE svg PUBLIC "-//W3C//DTD SVG 1.1//EN" "http://www.w3.org/Graphics/SVG/1.1/DTD/svg11.dtd">
<svg version="1.1" id="Laag_1" xmlns="http://www.w3.org/2000/svg" xmlns:xlink="http://www.w3.org/1999/xlink" x="0px" y="0px"
	 viewBox="0 0 95.1 95" style="enable-background:new 0 0 95.1 95;" xml:space="preserve">
<style type="text/css">
	.st0{fill:#046CB4;}
	.st1{fill:url(#XMLID_2_);}
</style>
<path id="XMLID_4_" class="st0" d="M47.6,2.2c25,0,45.3,20.3,45.3,45.3S72.6,92.8,47.6,92.8S2.2,72.5,2.2,47.5S22.5,2.2,47.6,2.2
	 M47.6,0C21.3,0,0,21.3,0,47.5S21.3,95,47.6,95s47.6-21.3,47.6-47.5S73.8,0,47.6,0L47.6,0z"/>
<linearGradient id="XMLID_2_" gradientUnits="userSpaceOnUse" x1="9.7213" y1="46.7663" x2="85.2983" y2="46.7663" gradientTransform="matrix(1 0 0 -1 0 94.2762)">
	<stop  offset="0" style="stop-color:#1FA0DB;stop-opacity:0.5"/>
	<stop  offset="0.5961" style="stop-color:#0D88CA;stop-opacity:0.5"/>
	<stop  offset="1" style="stop-color:#0B77BD;stop-opacity:0.5"/>
</linearGradient>
<path id="XMLID_7_" class="st1" d="M85.3,47.5c0,20.8-16.9,37.7-37.8,37.7c-20.8,0-37.8-16.9-37.8-37.7C9.7,32.9,18,20.2,30.2,14
	v60.2h8.6v-5.2l7-8.5l7.6,13.7h11.4L51.4,53.7l13.4-17.2H53.5L38.8,53.7v-43c2.8-0.6,5.7-1,8.7-1C68.4,9.8,85.3,26.7,85.3,47.5z"/>
</svg>
